<svg xmlns="http://www.w3.org/2000/svg" width="1200" height="675" viewBox="0 0 1200 675"><title>Koru — The Kiwi Dialectic</title><rect width="1200" height="675" fill="#f4f0e8"/><polyline points="600.00,110.50 612.86,111.37 625.63,112.88 638.29,115.03 650.79,117.80 663.11,121.20 675.22,125.20 687.09,129.80 698.68,134.97 709.98,140.71 720.94,147.00 731.56,153.82 741.79,161.15 751.63,168.97 761.03,177.25 769.99,185.98 778.48,195.13 786.48,204.67 793.97,214.58 800.94,224.83 807.37,235.40 813.24,246.26 818.55,257.37 823.29,268.71 827.43,280.24 830.99,291.95 833.94,303.79 836.29,315.74 838.03,327.77 839.16,339.84 839.67,351.92 839.58,363.99 838.89,376.01 837.59,387.95 835.70,399.79 833.22,411.49 830.16,423.02 826.53,434.36 822.35,445.47 817.62,456.34 812.36,466.93 806.59,477.22 800.32,487.18 793.58,496.79 786.38,506.02 778.74,514.86 770.68,523.29 762.23,531.28 753.41,538.82 744.24,545.88 734.75,552.46 724.96,558.54 714.91,564.11 704.61,569.15 694.09,573.65 683.39,577.61 672.53,581.02 661.53,583.87 650.44,586.16 639.26,587.88 628.05,589.03 616.82,589.62 605.60,589.64 594.42,589.09 583.31,587.99 572.29,586.33 561.40,584.12 550.66,581.38 540.10,578.10 529.75,574.31 519.62,570.01 509.75,565.22 500.15,559.95 490.86,554.22 481.89,548.04 473.26,541.44 465.00,534.43 457.12,527.03 449.64,519.26 442.59,511.14 435.96,502.70 429.79,493.97 424.08,484.95 418.84,475.68 414.09,466.18 409.83,456.49 406.08,446.61 402.84,436.59 400.12,426.44 397.91,416.19 396.23,405.87 395.07,395.51 394.44,385.13 394.34,374.76 394.75,364.42 395.68,354.15 397.13,343.96 399.08,333.88 401.53,323.94 404.47,314.17 407.89,304.58 411.78,295.20 416.12,286.05 420.91,277.16 426.13,268.55 431.75,260.23 437.77,252.22 444.17,244.55 450.93,237.24 458.04,230.29 465.46,223.73 473.18,217.56 481.18,211.81 489.43,206.49 497.93,201.60 506.63,197.16 515.52,193.17 524.57,189.65 533.77,186.59 543.08,184.01 552.48,181.91 561.95,180.29 571.46,179.15 580.99,178.50 590.51,178.33 600.00,178.63 609.44,179.42 618.80,180.67 628.05,182.39 637.18,184.56 646.17,187.19 654.98,190.26 663.60,193.76 672.02,197.67 680.19,201.99 688.12,206.71 695.78,211.80 703.14,217.26 710.21,223.06 716.95,229.20 723.35,235.65 729.40,242.39 735.09,249.40 740.40,256.68 745.32,264.19 749.84,271.91 753.95,279.83 757.65,287.92 760.93,296.16 763.77,304.53 766.19,313.00 768.17,321.56 769.70,330.18 770.80,338.85 771.46,347.53 771.68,356.20 771.46,364.85 770.80,373.44 769.72,381.97 768.22,390.40 766.29,398.72 763.96,406.91 761.22,414.94 758.10,422.80 754.59,430.46 750.71,437.92 746.48,445.15 741.90,452.13 736.99,458.85 731.77,465.29 726.24,471.44 720.43,477.28 714.36,482.80 708.03,487.99 701.47,492.85 694.70,497.34 687.73,501.48 680.59,505.25 673.29,508.64 665.86,511.65 658.31,514.27 650.66,516.49 642.93,518.33 635.16,519.76 627.34,520.80 619.51,521.44 611.68,521.68 603.88,521.52 596.13,520.98 588.44,520.05 580.83,518.73 573.33,517.04 565.94,514.98 558.70,512.56 551.62,509.78 544.70,506.66 537.98,503.21 531.47,499.44 525.17,495.36 519.12,490.98 513.31,486.32 507.77,481.39 502.50,476.20 497.52,470.78 492.83,465.13 488.46,459.27 484.40,453.23 480.67,447.01 477.26,440.63 474.20,434.11 471.48,427.48 469.11,420.74 467.09,413.91 465.42,407.02 464.11,400.08 463.16,393.10 462.56,386.12 462.31,379.14 462.42,372.19 462.88,365.28 463.68,358.42 464.83,351.65 466.31,344.96 468.12,338.39 470.25,331.94 472.69,325.63 475.44,319.48 478.48,313.51 481.81,307.71 485.41,302.12 489.28,296.73 493.39,291.57 497.75,286.65 502.32,281.97 507.11,277.55 512.10,273.39 517.26,269.51 522.60,265.91 528.08,262.60 533.71,259.58 539.45,256.86 545.30,254.45 551.24,252.34 557.25,250.55 563.31,249.07 569.42,247.90 575.55,247.05 581.69,246.51 587.82,246.29 593.93,246.37 600.00,246.77 606.01,247.46 611.96,248.46 617.82,249.75 623.58,251.32 629.22,253.18 634.74,255.32 640.12,257.71 645.35,260.37 650.41,263.27 655.30,266.41 660.00,269.78 664.49,273.37 668.79,277.16 672.86,281.15 676.71,285.31 680.32,289.65 683.70,294.14 686.82,298.77 689.70,303.54 692.31,308.42 694.67,313.40 696.75,318.47 698.57,323.61 700.12,328.81 701.39,334.06 702.39,339.33 703.12,344.63 703.58,349.93 703.76,355.21 703.68,360.48 703.33,365.70 702.72,370.87 701.85,375.98 700.73,381.01 699.37,385.95 697.76,390.79 695.92,395.52 693.85,400.12 691.56,404.59 689.06,408.91 686.36,413.08 683.47,417.08 680.40,420.90 677.15,424.55 673.74,428.01 670.18,431.27 666.48,434.32 662.65,437.17 658.71,439.81 654.65,442.22 650.51,444.42 646.28,446.39 641.98,448.13 637.63,449.64 633.23,450.92 628.79,451.97 624.34,452.78 619.88,453.36 615.42,453.72 610.97,453.84 606.55,453.74 602.17,453.41 597.84,452.87 593.57,452.11 589.37,451.14 585.25,449.96 581.23,448.58 577.30,447.01 573.48,445.25 569.78,443.32 566.21,441.21 562.78,438.93 559.49,436.50 556.34,433.92 553.36,431.20 550.53,428.35 547.87,425.38 545.39,422.30 543.08,419.12 540.96,415.85 539.01,412.49 537.26,409.07 535.69,405.58 534.31,402.04 533.13,398.47 532.14,394.86 531.34,391.23 530.73,387.60 530.31,383.96 530.08,380.34 530.04,376.73 530.18,373.16 530.51,369.62 531.01,366.13 531.68,362.70 532.53,359.34 533.53,356.04 534.70,352.83 536.02,349.71 537.49,346.69 539.10,343.77 540.84,340.96 542.71,338.26 544.70,335.69 546.80,333.24 549.01,330.93 551.32,328.75 553.71,326.71 556.19,324.81 558.74,323.06 561.35,321.46 564.02,320.01 566.73,318.71 569.49,317.56 572.27,316.57 575.08,315.73 577.90,315.04 580.73,314.51 583.55,314.13 586.37,313.90 589.16,313.81 591.93,313.87 594.66,314.08 597.35,314.42 600.00,314.90 602.59,315.51 605.12,316.25 607.58,317.11 609.97,318.08 612.28,319.17 614.50,320.37 616.64,321.67 618.68,323.07 620.63,324.55 622.47,326.12 624.21,327.76 625.85,329.48 627.37,331.26 628.78,333.09 630.07,334.98 631.25,336.91 632.31,338.87 633.25,340.87 634.08,342.89 634.79,344.92 635.38,346.97 635.85,349.02 636.21,351.06 636.46,353.09 636.59,355.11" fill="none" stroke="#0d0d0d" stroke-width="3.5" opacity="1.0" stroke-linecap="round"/><polyline points="660.00,155.50 665.33,155.88 670.63,156.48 675.88,157.32 681.08,158.39 686.22,159.69 691.29,161.20 696.27,162.94 701.16,164.88 705.95,167.04 710.63,169.40 715.19,171.96 719.63,174.71 723.93,177.65 728.09,180.77 732.09,184.06 735.94,187.51 739.63,191.13 743.14,194.89 746.48,198.80 749.64,202.84 752.61,207.01 755.38,211.30 757.96,215.69 760.34,220.19 762.51,224.77 764.47,229.44 766.22,234.17 767.76,238.97 769.08,243.82 770.18,248.71 771.07,253.64 771.73,258.58 772.18,263.54 772.40,268.51 772.41,273.47 772.20,278.41 771.77,283.33 771.12,288.21 770.27,293.05 769.20,297.83 767.93,302.55 766.45,307.20 764.78,311.77 762.91,316.26 760.84,320.64 758.60,324.92 756.17,329.08 753.56,333.13 750.79,337.05 747.85,340.83 744.76,344.47 741.52,347.96 738.13,351.30 734.61,354.47 730.96,357.49 727.19,360.33 723.31,362.99 719.32,365.48 715.24,367.78 711.07,369.90 706.82,371.82 702.50,373.55 698.12,375.09 693.69,376.42 689.22,377.56 684.70,378.50 680.17,379.23 675.61,379.76 671.05,380.09 666.49,380.22 661.94,380.15 657.41,379.88 652.91,379.41 648.44,378.74 644.02,377.88 639.65,376.83 635.35,375.58 631.11,374.16 626.95,372.55 622.88,370.76 618.90,368.80 615.01,366.68 611.24,364.39 607.58,361.94 604.04,359.34 600.63,356.59 597.35,353.70 594.21,350.68 591.22,347.54 588.37,344.27 585.68,340.88 583.14,337.39 580.77,333.81 578.57,330.13 576.53,326.36 574.67,322.52 572.98,318.62 571.48,314.65 570.15,310.63 569.00,306.57 568.04,302.47 567.26,298.34 566.66,294.20 566.25,290.04 566.03,285.88 565.99,281.73 566.13,277.59 566.45,273.47 566.95,269.38 567.63,265.33 568.49,261.33 569.52,257.37 570.72,253.48 572.09,249.65 573.62,245.90 575.31,242.23 577.15,238.65 579.15,235.16 581.29,231.78 583.57,228.50 585.99,225.33 588.54,222.29 591.21,219.36 594.00,216.57 596.91,213.91 599.92,211.38 603.03,209.00 606.23,206.77 609.52,204.69 612.88,202.75 616.32,200.98 619.82,199.36 623.38,197.90 627.00,196.61 630.65,195.48 634.34,194.51 638.06,193.71 641.79,193.08 645.55,192.62 649.30,192.32 653.06,192.19 656.80,192.22 660.53,192.42 664.24,192.79 667.91,193.31 671.55,193.99 675.14,194.84 678.68,195.83 682.16,196.98 685.58,198.28 688.92,199.72 692.19,201.31 695.38,203.03 698.47,204.88 701.48,206.87 704.38,208.97 707.18,211.20 709.87,213.54 712.44,215.99 714.89,218.54 717.23,221.19 719.43,223.94 721.51,226.76 723.45,229.67 725.26,232.65 726.92,235.70 728.45,238.81 729.83,241.97 731.07,245.18 732.16,248.43 733.10,251.72 733.89,255.03 734.54,258.36 735.03,261.71 735.38,265.06 735.57,268.42 735.62,271.77 735.52,275.10 735.27,278.42 734.88,281.71 734.34,284.97 733.66,288.19 732.85,291.37 731.89,294.50 730.81,297.57 729.59,300.58 728.25,303.53 726.78,306.40 725.19,309.19 723.48,311.90 721.67,314.52 719.74,317.05 717.72,319.49 715.59,321.82 713.37,324.05 711.07,326.18 708.68,328.19 706.21,330.08 703.67,331.86 701.06,333.52 698.40,335.06 695.67,336.47 692.90,337.75 690.09,338.91 687.23,339.93 684.35,340.83 681.44,341.59 678.51,342.22 675.56,342.72 672.61,343.09 669.65,343.32 666.70,343.43 663.76,343.40 660.83,343.24 657.93,342.96 655.05,342.54 652.20,342.01 649.39,341.35 646.63,340.57 643.91,339.67 641.25,338.65 638.64,337.52 636.09,336.29 633.62,334.94 631.21,333.50 628.88,331.95 626.64,330.31 624.47,328.58 622.39,326.76 620.41,324.86 618.51,322.88 616.72,320.83 615.02,318.71 613.43,316.52 611.94,314.28 610.56,311.98 609.28,309.63 608.12,307.24 607.07,304.81 606.13,302.35 605.31,299.86 604.60,297.34 604.00,294.81 603.52,292.26 603.16,289.71 602.91,287.15 602.77,284.59 602.75,282.05 602.84,279.52 603.05,277.00 603.36,274.51 603.78,272.04 604.31,269.61 604.94,267.21 605.68,264.86 606.51,262.55 607.45,260.29 608.48,258.08 609.59,255.94 610.80,253.85 612.10,251.83 613.47,249.88 614.93,248.00 616.46,246.19 618.06,244.47 619.73,242.82 621.46,241.26 623.25,239.78 625.09,238.39 626.99,237.10 628.93,235.89 630.91,234.78 632.94,233.76 634.99,232.83 637.07,232.01 639.18,231.28 641.31,230.64 643.45,230.11 645.60,229.68 647.76,229.34 649.92,229.10 652.08,228.96 654.23,228.91 656.37,228.96 658.49,229.11 660.60,229.35 662.68,229.68 664.73,230.10 666.75,230.60 668.74,231.20 670.68,231.88 672.59,232.64 674.44,233.48 676.25,234.40 678.00,235.39 679.70,236.46 681.34,237.59 682.92,238.79 684.44,240.05 685.89,241.37 687.27,242.74 688.58,244.17 689.82,245.64 690.98,247.17 692.07,248.73 693.08,250.33 694.01,251.96 694.87,253.62 695.64,255.31 696.33,257.03 696.94,258.76 697.48,260.50 697.92,262.26 698.29,264.02 698.58,265.79 698.78,267.56 698.90,269.32 698.95,271.08 698.92,272.83 698.80,274.56 698.61,276.27 698.35,277.96 698.01,279.63 697.61,281.27 697.13,282.88 696.58,284.46 695.97,285.99 695.29,287.49 694.55,288.95 693.75,290.36 692.89,291.73 691.98,293.04 691.02,294.31 690.01,295.52 688.95,296.68 687.85,297.78 686.71,298.82 685.54,299.80 684.32,300.72 683.08,301.58 681.81,302.37 680.51,303.10 679.19,303.77 677.86,304.37 676.51,304.91 675.14,305.38 673.77,305.79 672.39,306.13 671.00,306.40 669.62,306.61 668.24,306.76 666.87,306.84 665.50,306.86 664.15,306.81 662.81,306.71 661.49,306.55 660.18,306.33 658.90,306.05 657.65,305.71 656.42,305.33 655.22,304.89 654.06,304.40 652.92,303.86 651.83,303.28 650.77,302.65 649.74,301.98 648.76,301.27 647.83,300.52 646.93,299.74 646.08,298.93 645.28,298.08 644.53,297.21 643.82,296.31 643.16,295.39 642.55,294.45 641.99,293.49 641.48,292.52 641.02,291.53 640.61,290.54 640.25,289.53 639.94,288.52 639.69,287.51 639.48,286.50 639.32,285.49 639.21,284.49 639.15,283.49 639.13,282.50 639.16,281.52 639.24,280.56 639.36,279.61 639.52,278.68 639.72,277.76 639.97,276.87 640.25,276.01 640.57,275.16 640.93,274.35 641.31,273.56 641.74,272.80 642.19,272.07 642.67,271.37" fill="none" stroke="#c0392b" stroke-width="2" opacity="0.5" stroke-linecap="round"/><polyline points="520.00,349.50 522.54,349.69 525.06,349.98 527.57,350.36 530.05,350.83 532.51,351.40 534.95,352.06 537.34,352.81 539.71,353.64 542.04,354.57 544.32,355.57 546.56,356.67 548.75,357.84 550.89,359.09 552.98,360.42 555.02,361.82 556.99,363.30 558.90,364.85 560.75,366.46 562.53,368.14 564.24,369.89 565.89,371.69 567.45,373.55 568.95,375.46 570.37,377.42 571.71,379.43 572.97,381.49 574.15,383.58 575.24,385.72 576.25,387.89 577.18,390.09 578.02,392.32 578.78,394.58 579.45,396.86 580.03,399.15 580.52,401.46 580.92,403.78 581.23,406.11 581.46,408.45 581.59,410.79 581.64,413.12 581.60,415.45 581.47,417.77 581.25,420.08 580.95,422.38 580.56,424.65 580.09,426.90 579.53,429.13 578.90,431.34 578.18,433.51 577.38,435.64 576.50,437.74 575.54,439.80 574.51,441.82 573.41,443.79 572.24,445.72 570.99,447.59 569.69,449.41 568.31,451.18 566.87,452.89 565.38,454.54 563.82,456.13 562.22,457.65 560.55,459.11 558.84,460.50 557.08,461.83 555.28,463.08 553.44,464.26 551.55,465.36 549.63,466.40 547.68,467.35 545.70,468.23 543.69,469.03 541.66,469.76 539.61,470.40 537.53,470.97 535.45,471.45 533.35,471.85 531.25,472.18 529.14,472.42 527.02,472.58 524.91,472.67 522.80,472.67 520.70,472.59 518.61,472.43 516.53,472.20 514.46,471.89 512.42,471.50 510.40,471.03 508.40,470.49 506.42,469.88 504.48,469.19 502.57,468.43 500.70,467.60 498.86,466.71 497.06,465.75 495.31,464.72 493.60,463.63 491.93,462.48 490.32,461.27 488.76,460.00 487.25,458.68 485.79,457.31 484.39,455.89 483.05,454.41 481.77,452.90 480.56,451.34 479.40,449.74 478.31,448.10 477.29,446.42 476.33,444.71 475.44,442.98 474.62,441.21 473.87,439.42 473.19,437.61 472.58,435.78 472.04,433.93 471.57,432.07 471.18,430.19 470.85,428.31 470.60,426.42 470.42,424.53 470.32,422.64 470.28,420.76 470.32,418.87 470.43,417.00 470.61,415.14 470.86,413.29 471.17,411.45 471.56,409.64 472.01,407.85 472.53,406.08 473.12,404.33 473.76,402.62 474.47,400.93 475.24,399.28 476.08,397.66 476.96,396.08 477.91,394.54 478.91,393.05 479.96,391.59 481.07,390.18 482.22,388.82 483.42,387.51 484.67,386.24 485.96,385.03 487.29,383.87 488.65,382.77 490.06,381.72 491.50,380.73 492.97,379.80 494.47,378.92 496.00,378.11 497.55,377.36 499.13,376.67 500.73,376.04 502.34,375.48 503.97,374.97 505.61,374.54 507.26,374.16 508.92,373.85 510.59,373.60 512.25,373.42 513.92,373.30 515.59,373.25 517.25,373.25 518.90,373.32 520.55,373.46 522.18,373.65 523.80,373.91 525.40,374.22 526.99,374.60 528.55,375.03 530.10,375.53 531.61,376.07 533.10,376.68 534.56,377.33 535.99,378.04 537.39,378.80 538.75,379.62 540.08,380.47 541.37,381.38 542.62,382.33 543.83,383.33 544.99,384.36 546.11,385.44 547.19,386.55 548.22,387.70 549.20,388.88 550.13,390.10 551.01,391.35 551.84,392.62 552.62,393.92 553.35,395.24 554.02,396.59 554.64,397.96 555.21,399.34 555.72,400.74 556.17,402.15 556.57,403.57 556.91,405.01 557.20,406.45 557.43,407.89 557.61,409.33 557.73,410.78 557.79,412.23 557.81,413.67 557.76,415.10 557.66,416.53 557.51,417.94 557.30,419.35 557.05,420.74 556.74,422.11 556.38,423.47 555.97,424.80 555.51,426.12 555.00,427.41 554.45,428.67 553.85,429.91 553.21,431.12 552.52,432.30 551.80,433.45 551.03,434.57 550.22,435.65 549.38,436.70 548.50,437.71 547.59,438.68 546.64,439.61 545.66,440.50 544.66,441.35 543.62,442.16 542.56,442.92 541.48,443.64 540.38,444.32 539.25,444.95 538.11,445.53 536.95,446.07 535.77,446.56 534.58,447.01 533.38,447.40 532.18,447.75 530.96,448.05 529.74,448.31 528.52,448.51 527.29,448.67 526.06,448.78 524.84,448.85 523.62,448.87 522.40,448.84 521.20,448.76 520.00,448.64 518.81,448.47 517.64,448.26 516.48,448.01 515.33,447.71 514.21,447.38 513.10,447.00 512.01,446.58 510.94,446.12 509.90,445.62 508.88,445.09 507.89,444.51 506.92,443.91 505.98,443.27 505.08,442.60 504.20,441.90 503.35,441.17 502.54,440.41 501.76,439.62 501.01,438.81 500.30,437.97 499.63,437.12 498.99,436.24 498.39,435.34 497.83,434.42 497.30,433.49 496.82,432.54 496.37,431.58 495.96,430.61 495.59,429.63 495.26,428.64 494.98,427.64 494.73,426.64 494.52,425.64 494.35,424.63 494.22,423.62 494.12,422.61 494.07,421.61 494.06,420.61 494.08,419.61 494.15,418.63 494.25,417.65 494.39,416.68 494.56,415.72 494.77,414.77 495.01,413.84 495.29,412.93 495.60,412.03 495.95,411.15 496.32,410.28 496.73,409.44 497.17,408.62 497.63,407.82 498.12,407.04 498.64,406.29 499.19,405.56 499.76,404.86 500.35,404.18 500.96,403.53 501.60,402.91 502.25,402.32 502.92,401.75 503.61,401.22 504.32,400.72 505.04,400.25 505.77,399.80 506.52,399.39 507.28,399.02 508.04,398.67 508.81,398.35 509.59,398.07 510.38,397.82 511.17,397.60 511.96,397.42 512.75,397.26 513.55,397.14 514.34,397.05 515.13,396.99 515.92,396.96 516.70,396.96 517.47,396.99 518.24,397.06 519.00,397.15 519.75,397.27 520.49,397.41 521.22,397.59 521.94,397.79 522.64,398.02 523.33,398.28 524.00,398.55 524.66,398.86 525.30,399.18 525.92,399.53 526.52,399.90 527.11,400.29 527.67,400.70 528.21,401.13 528.73,401.57 529.23,402.04 529.71,402.51 530.17,403.01 530.60,403.51 531.01,404.03 531.39,404.56 531.75,405.10 532.09,405.65 532.40,406.21 532.68,406.77 532.94,407.34 533.18,407.92 533.39,408.50 533.58,409.08 533.74,409.67 533.88,410.25 533.99,410.84 534.08,411.42 534.15,412.01 534.19,412.59 534.21,413.16 534.20,413.73 534.17,414.30 534.12,414.85 534.05,415.40 533.96,415.95 533.84,416.48 533.71,417.00 533.56,417.51 533.39,418.01 533.20,418.50 532.99,418.97 532.76,419.43 532.52,419.88 532.27,420.31 532.00,420.73 531.71,421.13 531.41,421.52 531.10,421.89 530.78,422.24 530.45,422.58 530.11,422.89 529.76,423.19 529.40,423.48 529.04,423.74 528.66,423.99 528.29,424.21 527.90,424.42 527.52,424.61 527.13,424.78 526.74,424.94 526.34,425.07 525.95,425.19" fill="none" stroke="#0d0d0d" stroke-width="1.2" opacity="0.35" stroke-linecap="round"/><line x1="600" y1="623" x2="600" y2="645" stroke="#0d0d0d" stroke-width="4" stroke-linecap="round"/><text x="600" y="667" font-family="Georgia,serif" font-size="22" fill="#0d0d0d" text-anchor="middle" opacity="0.5">Koru</text></svg>