<svg xmlns="http://www.w3.org/2000/svg" width="800" height="800" viewBox="0 0 800 800"><title>Koru — The Kiwi Dialectic</title><rect width="800" height="800" fill="#0d0d0d"/><polyline points="400.00,126.00 415.24,127.03 430.38,128.82 445.38,131.37 460.20,134.66 474.80,138.68 489.15,143.42 503.21,148.87 516.95,155.01 530.34,161.81 543.34,169.26 555.92,177.34 568.05,186.03 579.71,195.29 590.85,205.11 601.47,215.46 611.53,226.30 621.01,237.61 629.89,249.36 638.15,261.51 645.77,274.03 652.73,286.90 659.02,300.06 664.63,313.50 669.55,327.18 673.76,341.05 677.26,355.09 680.04,369.25 682.11,383.50 683.44,397.81 684.06,412.13 683.95,426.43 683.13,440.68 681.59,454.83 679.35,468.86 676.41,482.73 672.78,496.40 668.48,509.83 663.52,523.01 657.92,535.88 651.69,548.43 644.85,560.63 637.42,572.43 629.43,583.82 620.89,594.77 611.84,605.25 602.29,615.23 592.27,624.70 581.82,633.64 570.95,642.01 559.70,649.81 548.10,657.02 536.18,663.61 523.98,669.59 511.52,674.92 498.83,679.62 485.96,683.66 472.93,687.03 459.78,689.74 446.54,691.78 433.24,693.15 419.93,693.84 406.63,693.86 393.38,693.22 380.21,691.91 367.16,689.94 354.26,687.33 341.53,684.08 329.01,680.20 316.74,675.70 304.74,670.61 293.04,664.93 281.66,658.68 270.65,651.89 260.02,644.57 249.79,636.74 240.00,628.43 230.66,619.66 221.80,610.45 213.43,600.84 205.58,590.83 198.27,580.48 191.50,569.79 185.29,558.81 179.66,547.55 174.62,536.06 170.17,524.35 166.33,512.47 163.10,500.44 160.49,488.30 158.49,476.07 157.12,463.79 156.38,451.49 156.25,439.19 156.74,426.94 157.85,414.77 159.56,402.69 161.88,390.75 164.78,378.97 168.26,367.39 172.32,356.02 176.93,344.91 182.07,334.06 187.75,323.53 193.93,313.31 200.60,303.45 207.73,293.97 215.32,284.88 223.33,276.21 231.75,267.97 240.54,260.19 249.69,252.89 259.17,246.07 268.96,239.76 279.02,233.97 289.34,228.70 299.87,223.98 310.60,219.80 321.50,216.18 332.53,213.13 343.68,210.64 354.90,208.72 366.17,207.37 377.46,206.59 388.75,206.39 400.00,206.75 411.18,207.68 422.28,209.16 433.25,211.20 444.07,213.78 454.72,216.89 465.16,220.53 475.38,224.67 485.35,229.31 495.04,234.44 504.44,240.03 513.51,246.06 522.25,252.53 530.62,259.41 538.60,266.68 546.19,274.32 553.36,282.31 560.10,290.63 566.40,299.25 572.23,308.15 577.59,317.30 582.46,326.68 586.85,336.27 590.73,346.04 594.10,355.96 596.96,366.00 599.31,376.15 601.13,386.37 602.43,396.63 603.21,406.92 603.47,417.20 603.21,427.45 602.43,437.64 601.15,447.74 599.37,457.74 597.09,467.60 594.32,477.30 591.08,486.82 587.37,496.13 583.22,505.22 578.62,514.05 573.60,522.62 568.18,530.89 562.36,538.85 556.17,546.49 549.62,553.77 542.73,560.70 535.53,567.25 528.04,573.40 520.26,579.15 512.24,584.48 503.98,589.38 495.52,593.85 486.87,597.87 478.05,601.43 469.10,604.54 460.04,607.18 450.89,609.35 441.67,611.05 432.40,612.28 423.12,613.04 413.85,613.32 404.60,613.14 395.41,612.49 386.30,611.39 377.28,609.83 368.39,607.83 359.64,605.38 351.05,602.51 342.66,599.22 334.46,595.53 326.50,591.44 318.77,586.97 311.32,582.13 304.14,576.94 297.26,571.42 290.69,565.57 284.44,559.43 278.54,553.00 272.99,546.30 267.80,539.36 262.99,532.20 258.57,524.82 254.54,517.27 250.91,509.54 247.68,501.68 244.87,493.69 242.48,485.60 240.50,477.43 238.95,469.20 237.81,460.94 237.10,452.66 236.82,444.39 236.94,436.15 237.49,427.96 238.44,419.84 239.80,411.80 241.55,403.88 243.69,396.09 246.22,388.45 249.11,380.97 252.37,373.69 255.98,366.60 259.92,359.73 264.19,353.10 268.77,346.72 273.65,340.61 278.81,334.77 284.24,329.23 289.91,323.98 295.82,319.06 301.94,314.46 308.26,310.19 314.77,306.26 321.43,302.69 328.24,299.47 335.17,296.61 342.21,294.11 349.33,291.99 356.52,290.23 363.76,288.85 371.03,287.84 378.30,287.20 385.57,286.93 392.81,287.03 400.00,287.50 407.13,288.33 414.17,289.50 421.12,291.03 427.94,292.90 434.64,295.11 441.18,297.63 447.55,300.48 453.75,303.62 459.75,307.06 465.54,310.79 471.11,314.78 476.44,319.03 481.52,323.52 486.35,328.25 490.91,333.19 495.20,338.32 499.20,343.65 502.90,349.14 506.31,354.79 509.41,360.57 512.20,366.47 514.67,372.48 516.82,378.57 518.66,384.74 520.17,390.96 521.35,397.21 522.22,403.49 522.76,409.77 522.98,416.03 522.88,422.27 522.46,428.46 521.74,434.59 520.71,440.65 519.39,446.61 517.77,452.47 515.86,458.20 513.68,463.80 511.23,469.26 508.52,474.55 505.56,479.67 502.36,484.61 498.93,489.35 495.29,493.89 491.44,498.21 487.40,502.30 483.18,506.17 478.79,509.79 474.25,513.17 469.58,516.29 464.77,519.15 459.86,521.75 454.85,524.09 449.76,526.15 444.59,527.94 439.38,529.46 434.12,530.70 428.85,531.67 423.56,532.36 418.27,532.77 413.00,532.92 407.77,532.80 402.57,532.42 397.44,531.77 392.38,530.87 387.40,529.72 382.52,528.32 377.75,526.69 373.09,524.83 368.57,522.75 364.19,520.45 359.96,517.95 355.89,515.25 351.98,512.37 348.26,509.31 344.72,506.09 341.37,502.71 338.22,499.19 335.28,495.54 332.54,491.77 330.02,487.89 327.72,483.92 325.64,479.86 323.78,475.72 322.15,471.53 320.75,467.29 319.57,463.02 318.62,458.72 317.90,454.41 317.41,450.10 317.13,445.81 317.08,441.53 317.25,437.30 317.64,433.11 318.23,428.97 319.03,424.91 320.03,420.92 321.22,417.02 322.61,413.21 324.17,409.51 325.91,405.93 327.82,402.47 329.89,399.13 332.10,395.94 334.46,392.89 336.95,389.99 339.57,387.25 342.30,384.66 345.14,382.25 348.08,380.00 351.10,377.92 354.19,376.02 357.35,374.30 360.57,372.76 363.84,371.40 367.14,370.23 370.47,369.23 373.81,368.42 377.16,367.79 380.51,367.34 383.84,367.06 387.15,366.96 390.43,367.03 393.67,367.28 396.86,367.68 400.00,368.25 403.07,368.97 406.07,369.85 408.99,370.87 411.82,372.03 414.55,373.32 417.19,374.74 419.72,376.28 422.14,377.93 424.45,379.69 426.64,381.55 428.70,383.50 430.63,385.53 432.43,387.64 434.10,389.81 435.64,392.05 437.03,394.34 438.29,396.67 439.41,399.03 440.39,401.42 441.23,403.84 441.93,406.26 442.49,408.68 442.92,411.11 443.21,413.52 443.37,415.91" fill="none" stroke="#f4f0e8" stroke-width="3.5" opacity="1.0" stroke-linecap="round"/><polyline points="460.00,196.00 466.32,196.44 472.60,197.17 478.82,198.16 484.99,199.43 491.08,200.96 497.08,202.76 502.99,204.81 508.78,207.12 514.46,209.68 520.01,212.47 525.42,215.51 530.67,218.77 535.77,222.25 540.70,225.94 545.45,229.84 550.01,233.94 554.38,238.23 558.54,242.69 562.50,247.32 566.24,252.11 569.76,257.05 573.04,262.13 576.10,267.34 578.92,272.67 581.49,278.10 583.81,283.63 585.89,289.24 587.71,294.93 589.28,300.67 590.58,306.47 591.63,312.31 592.42,318.17 592.95,324.05 593.22,329.94 593.22,335.81 592.97,341.67 592.47,347.50 591.70,353.29 590.69,359.02 589.43,364.69 587.92,370.29 586.17,375.80 584.18,381.21 581.96,386.52 579.52,391.72 576.85,396.79 573.98,401.73 570.89,406.52 567.60,411.17 564.12,415.65 560.45,419.96 556.61,424.10 552.60,428.06 548.42,431.82 544.10,435.39 539.63,438.76 535.03,441.92 530.31,444.86 525.47,447.59 520.53,450.10 515.49,452.38 510.37,454.43 505.18,456.25 499.93,457.83 494.63,459.18 489.28,460.29 483.90,461.16 478.51,461.79 473.10,462.19 467.70,462.34 462.30,462.25 456.93,461.93 451.60,461.37 446.30,460.58 441.06,459.56 435.89,458.31 430.78,456.84 425.76,455.15 420.83,453.24 416.00,451.13 411.28,448.81 406.68,446.28 402.21,443.57 397.87,440.67 393.68,437.59 389.64,434.33 385.75,430.91 382.03,427.33 378.48,423.60 375.10,419.72 371.91,415.71 368.91,411.58 366.10,407.33 363.49,402.96 361.07,398.50 358.87,393.95 356.87,389.32 355.08,384.62 353.51,379.86 352.15,375.04 351.01,370.19 350.09,365.30 349.38,360.38 348.89,355.46 348.63,350.53 348.58,345.61 348.74,340.70 349.13,335.82 349.72,330.97 350.53,326.17 351.55,321.42 352.77,316.74 354.19,312.12 355.81,307.59 357.62,303.14 359.63,298.79 361.81,294.55 364.18,290.42 366.72,286.40 369.42,282.52 372.29,278.76 375.31,275.15 378.47,271.69 381.78,268.38 385.22,265.22 388.79,262.23 392.47,259.41 396.27,256.76 400.17,254.29 404.16,252.00 408.23,249.90 412.38,247.98 416.60,246.26 420.88,244.72 425.22,243.38 429.59,242.24 433.99,241.29 438.42,240.54 442.87,239.99 447.32,239.64 451.77,239.48 456.21,239.52 460.63,239.76 465.02,240.19 469.38,240.81 473.69,241.62 477.94,242.62 482.14,243.80 486.26,245.16 490.31,246.70 494.28,248.41 498.15,250.29 501.93,252.33 505.60,254.53 509.16,256.88 512.60,259.38 515.91,262.02 519.10,264.79 522.15,267.69 525.06,270.72 527.82,273.86 530.44,277.11 532.90,280.46 535.20,283.91 537.34,287.44 539.32,291.05 541.12,294.74 542.76,298.48 544.23,302.29 545.52,306.14 546.64,310.03 547.58,313.96 548.34,317.91 548.93,321.88 549.34,325.85 549.57,329.83 549.62,333.80 549.50,337.75 549.21,341.68 548.74,345.58 548.11,349.45 547.31,353.27 546.34,357.03 545.21,360.74 543.92,364.38 542.48,367.95 540.88,371.44 539.14,374.84 537.26,378.15 535.24,381.36 533.09,384.47 530.81,387.47 528.40,390.36 525.89,393.13 523.26,395.77 520.52,398.28 517.69,400.67 514.77,402.91 511.76,405.02 508.67,406.99 505.51,408.81 502.28,410.48 499.00,412.00 495.66,413.37 492.28,414.59 488.86,415.65 485.41,416.55 481.93,417.30 478.44,417.89 474.94,418.33 471.44,418.61 467.94,418.73 464.45,418.70 460.99,418.51 457.54,418.17 454.13,417.68 450.76,417.05 447.43,416.26 444.15,415.34 440.93,414.27 437.77,413.07 434.68,411.73 431.67,410.27 428.73,408.67 425.88,406.96 423.12,405.13 420.46,403.18 417.89,401.13 415.43,398.98 413.07,396.73 410.83,394.38 408.70,391.95 406.69,389.43 404.80,386.84 403.04,384.18 401.40,381.46 399.89,378.68 398.51,375.84 397.27,372.96 396.16,370.04 395.18,367.09 394.34,364.11 393.63,361.10 393.06,358.09 392.63,355.06 392.34,352.03 392.18,349.00 392.15,345.98 392.26,342.98 392.50,340.00 392.87,337.05 393.37,334.12 394.00,331.24 394.75,328.40 395.62,325.61 396.61,322.87 397.72,320.19 398.93,317.58 400.26,315.03 401.69,312.56 403.23,310.17 404.86,307.85 406.58,305.63 408.39,303.49 410.29,301.44 412.27,299.49 414.32,297.64 416.44,295.89 418.63,294.24 420.87,292.71 423.18,291.28 425.53,289.96 427.92,288.75 430.36,287.65 432.83,286.67 435.33,285.81 437.85,285.06 440.39,284.43 442.94,283.91 445.50,283.51 448.06,283.23 450.61,283.06 453.16,283.01 455.70,283.07 458.22,283.24 460.71,283.52 463.18,283.91 465.61,284.41 468.00,285.01 470.35,285.72 472.66,286.52 474.92,287.43 477.12,288.42 479.26,289.51 481.34,290.69 483.35,291.95 485.30,293.29 487.17,294.71 488.96,296.21 490.68,297.77 492.32,299.40 493.87,301.09 495.34,302.84 496.72,304.64 498.01,306.49 499.21,308.39 500.31,310.32 501.32,312.29 502.24,314.30 503.06,316.33 503.79,318.38 504.41,320.45 504.95,322.53 505.38,324.62 505.72,326.72 505.96,328.81 506.11,330.90 506.16,332.99 506.12,335.05 505.99,337.11 505.77,339.14 505.45,341.14 505.05,343.12 504.57,345.06 504.00,346.97 503.35,348.84 502.63,350.66 501.82,352.44 500.95,354.16 500.00,355.84 498.98,357.46 497.91,359.02 496.77,360.51 495.57,361.95 494.32,363.32 493.01,364.62 491.66,365.86 490.26,367.02 488.83,368.11 487.35,369.13 485.85,370.07 484.31,370.94 482.75,371.73 481.17,372.44 479.56,373.08 477.95,373.64 476.32,374.12 474.68,374.52 473.04,374.85 471.40,375.09 469.77,375.27 468.14,375.36 466.52,375.39 464.92,375.34 463.33,375.21 461.76,375.02 460.22,374.76 458.70,374.43 457.21,374.03 455.76,373.57 454.34,373.05 452.96,372.47 451.61,371.84 450.31,371.14 449.06,370.40 447.85,369.61 446.68,368.77 445.57,367.88 444.51,366.95 443.51,365.99 442.56,364.99 441.66,363.95 440.82,362.89 440.04,361.80 439.32,360.68 438.65,359.55 438.05,358.39 437.50,357.22 437.02,356.04 436.60,354.85 436.23,353.66 435.92,352.46 435.68,351.26 435.49,350.06 435.36,348.87 435.28,347.69 435.27,346.52 435.30,345.36 435.39,344.22 435.53,343.09 435.73,341.99 435.97,340.91 436.26,339.85 436.59,338.82 436.97,337.82 437.39,336.86 437.85,335.92 438.35,335.02 438.89,334.15 439.46,333.33" fill="none" stroke="#c0392b" stroke-width="2" opacity="0.5" stroke-linecap="round"/><polyline points="320.00,400.00 323.01,400.23 326.00,400.57 328.97,401.02 331.92,401.58 334.83,402.25 337.71,403.03 340.56,403.92 343.36,404.91 346.12,406.00 348.82,407.20 351.48,408.49 354.08,409.88 356.62,411.37 359.09,412.94 361.50,414.61 363.84,416.36 366.10,418.19 368.29,420.11 370.41,422.10 372.44,424.16 374.38,426.30 376.24,428.50 378.01,430.77 379.70,433.09 381.28,435.48 382.78,437.91 384.17,440.40 385.47,442.93 386.67,445.50 387.77,448.11 388.77,450.75 389.66,453.43 390.45,456.13 391.14,458.85 391.72,461.58 392.20,464.34 392.57,467.10 392.84,469.87 393.00,472.64 393.06,475.40 393.01,478.16 392.85,480.92 392.60,483.65 392.24,486.37 391.78,489.07 391.22,491.74 390.56,494.38 389.80,496.99 388.95,499.56 388.00,502.09 386.96,504.58 385.83,507.03 384.61,509.42 383.30,511.75 381.91,514.04 380.44,516.26 378.89,518.42 377.26,520.51 375.56,522.54 373.78,524.49 371.94,526.37 370.03,528.18 368.06,529.91 366.03,531.56 363.95,533.13 361.81,534.61 359.63,536.01 357.40,537.32 355.12,538.54 352.81,539.68 350.46,540.72 348.08,541.67 345.67,542.53 343.24,543.29 340.78,543.96 338.31,544.53 335.82,545.01 333.33,545.40 330.83,545.68 328.32,545.88 325.82,545.97 323.32,545.98 320.83,545.88 318.35,545.70 315.88,545.42 313.44,545.05 311.01,544.59 308.62,544.04 306.25,543.40 303.91,542.67 301.61,541.85 299.34,540.96 297.12,539.97 294.94,538.91 292.81,537.77 290.73,536.56 288.71,535.27 286.74,533.90 284.82,532.47 282.97,530.97 281.18,529.40 279.46,527.77 277.80,526.09 276.21,524.34 274.69,522.54 273.25,520.70 271.88,518.80 270.59,516.85 269.38,514.87 268.24,512.85 267.19,510.79 266.22,508.69 265.33,506.57 264.52,504.42 263.80,502.25 263.16,500.06 262.60,497.86 262.14,495.63 261.75,493.40 261.46,491.17 261.24,488.93 261.12,486.69 261.08,484.45 261.12,482.22 261.25,480.00 261.46,477.79 261.76,475.60 262.13,473.43 262.59,471.28 263.13,469.15 263.74,467.05 264.43,464.99 265.20,462.95 266.04,460.96 266.96,459.00 267.94,457.08 268.99,455.21 270.12,453.39 271.30,451.61 272.55,449.89 273.86,448.22 275.22,446.60 276.65,445.04 278.12,443.55 279.65,442.11 281.23,440.74 282.85,439.43 284.52,438.19 286.22,437.01 287.97,435.91 289.74,434.87 291.56,433.91 293.40,433.02 295.27,432.20 297.16,431.46 299.07,430.79 301.00,430.19 302.95,429.67 304.90,429.23 306.87,428.86 308.84,428.57 310.82,428.35 312.79,428.21 314.77,428.14 316.74,428.15 318.70,428.24 320.65,428.39 322.58,428.62 324.50,428.93 326.40,429.30 328.28,429.75 330.14,430.26 331.96,430.85 333.76,431.49 335.53,432.21 337.26,432.99 338.95,433.83 340.61,434.73 342.23,435.69 343.80,436.71 345.33,437.78 346.81,438.91 348.24,440.09 349.62,441.32 350.95,442.59 352.22,443.91 353.44,445.27 354.60,446.68 355.71,448.12 356.75,449.59 357.74,451.11 358.66,452.65 359.52,454.22 360.32,455.81 361.05,457.43 361.72,459.07 362.33,460.73 362.87,462.40 363.34,464.09 363.75,465.79 364.09,467.49 364.36,469.20 364.57,470.92 364.72,472.63 364.79,474.34 364.81,476.05 364.75,477.75 364.64,479.44 364.46,481.12 364.21,482.78 363.91,484.43 363.54,486.06 363.11,487.66 362.63,489.25 362.08,490.81 361.48,492.34 360.83,493.84 360.12,495.30 359.36,496.74 358.55,498.14 357.68,499.50 356.77,500.82 355.82,502.10 354.82,503.34 353.78,504.54 352.69,505.69 351.57,506.79 350.42,507.85 349.22,508.86 348.00,509.81 346.74,510.72 345.46,511.57 344.15,512.38 342.82,513.12 341.46,513.82 340.08,514.45 338.69,515.04 337.28,515.56 335.86,516.03 334.43,516.45 332.99,516.80 331.54,517.11 330.09,517.35 328.64,517.54 327.19,517.67 325.74,517.75 324.29,517.77 322.85,517.73 321.42,517.64 320.00,517.50 318.59,517.30 317.20,517.05 315.83,516.75 314.47,516.40 313.13,516.00 311.82,515.55 310.53,515.05 309.26,514.51 308.03,513.92 306.82,513.29 305.64,512.61 304.50,511.89 303.39,511.14 302.31,510.34 301.27,509.51 300.27,508.64 299.31,507.74 298.38,506.81 297.50,505.85 296.66,504.86 295.86,503.84 295.10,502.80 294.39,501.73 293.72,500.65 293.10,499.54 292.52,498.42 291.99,497.28 291.51,496.13 291.07,494.97 290.68,493.80 290.34,492.61 290.05,491.43 289.80,490.23 289.60,489.04 289.44,487.85 289.33,486.65 289.27,485.46 289.26,484.28 289.29,483.10 289.36,481.93 289.48,480.77 289.64,479.62 289.85,478.48 290.10,477.36 290.39,476.26 290.72,475.17 291.08,474.11 291.49,473.06 291.94,472.04 292.42,471.04 292.94,470.06 293.49,469.12 294.07,468.19 294.69,467.30 295.33,466.44 296.01,465.61 296.71,464.80 297.44,464.04 298.19,463.30 298.96,462.60 299.76,461.93 300.58,461.30 301.42,460.70 302.27,460.14 303.14,459.62 304.02,459.13 304.92,458.69 305.83,458.27 306.74,457.90 307.67,457.57 308.60,457.27 309.53,457.01 310.47,456.79 311.41,456.61 312.35,456.46 313.29,456.35 314.23,456.28 315.16,456.25 316.09,456.25 317.00,456.29 317.92,456.36 318.82,456.47 319.71,456.61 320.58,456.79 321.45,457.00 322.30,457.24 323.13,457.51 323.95,457.81 324.74,458.14 325.52,458.50 326.28,458.88 327.02,459.30 327.73,459.73 328.42,460.20 329.09,460.68 329.73,461.19 330.35,461.72 330.94,462.27 331.51,462.83 332.05,463.42 332.56,464.01 333.04,464.63 333.50,465.26 333.93,465.90 334.32,466.55 334.69,467.21 335.03,467.88 335.34,468.56 335.62,469.24 335.87,469.93 336.09,470.62 336.29,471.31 336.45,472.01 336.58,472.70 336.69,473.39 336.77,474.08 336.82,474.77 336.84,475.45 336.83,476.13 336.80,476.80 336.74,477.46 336.65,478.11 336.54,478.75 336.41,479.38 336.25,480.00 336.07,480.61 335.86,481.20 335.64,481.78 335.39,482.34 335.13,482.89 334.84,483.42 334.54,483.93 334.22,484.42 333.88,484.90 333.53,485.36 333.16,485.79 332.78,486.21 332.39,486.61 331.98,486.99 331.57,487.34 331.14,487.68 330.71,487.99 330.27,488.28 329.82,488.55 329.37,488.80 328.91,489.02 328.45,489.23 327.98,489.41 327.52,489.57 327.05,489.71" fill="none" stroke="#f4f0e8" stroke-width="1.2" opacity="0.35" stroke-linecap="round"/><line x1="400" y1="734" x2="400" y2="770" stroke="#f4f0e8" stroke-width="4" stroke-linecap="round"/><text x="400" y="792" font-family="Georgia,serif" font-size="22" fill="#f4f0e8" text-anchor="middle" opacity="0.5">Koru</text></svg>