<svg xmlns="http://www.w3.org/2000/svg" width="800" height="800" viewBox="0 0 800 800"><title>Kōwhaiwhai — The Kiwi Dialectic</title><rect width="800" height="800" fill="#f4f0e8"/><path d="M0,35 C20,5 60,65 80,35" fill="none" stroke="#c0392b" stroke-width="3" opacity="0.8"/><path d="M80,35 C100,5 140,65 160,35" fill="none" stroke="#c0392b" stroke-width="3" opacity="0.8"/><path d="M160,35 C180,5 220,65 240,35" fill="none" stroke="#c0392b" stroke-width="3" opacity="0.8"/><path d="M240,35 C260,5 300,65 320,35" fill="none" stroke="#c0392b" stroke-width="3" opacity="0.8"/><path d="M320,35 C340,5 380,65 400,35" fill="none" stroke="#c0392b" stroke-width="3" opacity="0.8"/><path d="M400,35 C420,5 460,65 480,35" fill="none" stroke="#c0392b" stroke-width="3" opacity="0.8"/><path d="M480,35 C500,5 540,65 560,35" fill="none" stroke="#c0392b" stroke-width="3" opacity="0.8"/><path d="M560,35 C580,5 620,65 640,35" fill="none" stroke="#c0392b" stroke-width="3" opacity="0.8"/><path d="M640,35 C660,5 700,65 720,35" fill="none" stroke="#c0392b" stroke-width="3" opacity="0.8"/><path d="M720,35 C740,5 780,65 800,35" fill="none" stroke="#c0392b" stroke-width="3" opacity="0.8"/><path d="M800,35 C820,5 860,65 880,35" fill="none" stroke="#c0392b" stroke-width="3" opacity="0.8"/><path d="M880,35 C900,5 940,65 960,35" fill="none" stroke="#c0392b" stroke-width="3" opacity="0.8"/><line x1="0" y1="0" x2="800" y2="0" stroke="#0d0d0d" stroke-width="0.8" opacity="0.3"/><path d="M0,105 C20,135 60,75 80,105" fill="none" stroke="#0d0d0d" stroke-width="3" opacity="0.4"/><path d="M80,105 C100,135 140,75 160,105" fill="none" stroke="#0d0d0d" stroke-width="3" opacity="0.4"/><path d="M160,105 C180,135 220,75 240,105" fill="none" stroke="#0d0d0d" stroke-width="3" opacity="0.4"/><path d="M240,105 C260,135 300,75 320,105" fill="none" stroke="#0d0d0d" stroke-width="3" opacity="0.4"/><path d="M320,105 C340,135 380,75 400,105" fill="none" stroke="#0d0d0d" stroke-width="3" opacity="0.4"/><path d="M400,105 C420,135 460,75 480,105" fill="none" stroke="#0d0d0d" stroke-width="3" opacity="0.4"/><path d="M480,105 C500,135 540,75 560,105" fill="none" stroke="#0d0d0d" stroke-width="3" opacity="0.4"/><path d="M560,105 C580,135 620,75 640,105" fill="none" stroke="#0d0d0d" stroke-width="3" opacity="0.4"/><path d="M640,105 C660,135 700,75 720,105" fill="none" stroke="#0d0d0d" stroke-width="3" opacity="0.4"/><path d="M720,105 C740,135 780,75 800,105" fill="none" stroke="#0d0d0d" stroke-width="3" opacity="0.4"/><path d="M800,105 C820,135 860,75 880,105" fill="none" stroke="#0d0d0d" stroke-width="3" opacity="0.4"/><path d="M880,105 C900,135 940,75 960,105" fill="none" stroke="#0d0d0d" stroke-width="3" opacity="0.4"/><line x1="0" y1="70" x2="800" y2="70" stroke="#0d0d0d" stroke-width="0.8" opacity="0.3"/><path d="M0,175 C20,145 60,205 80,175" fill="none" stroke="#c0392b" stroke-width="3" opacity="0.4"/><path d="M80,175 C100,145 140,205 160,175" fill="none" stroke="#c0392b" stroke-width="3" opacity="0.4"/><path d="M160,175 C180,145 220,205 240,175" fill="none" stroke="#c0392b" stroke-width="3" opacity="0.4"/><path d="M240,175 C260,145 300,205 320,175" fill="none" stroke="#c0392b" stroke-width="3" opacity="0.4"/><path d="M320,175 C340,145 380,205 400,175" fill="none" stroke="#c0392b" stroke-width="3" opacity="0.4"/><path d="M400,175 C420,145 460,205 480,175" fill="none" stroke="#c0392b" stroke-width="3" opacity="0.4"/><path d="M480,175 C500,145 540,205 560,175" fill="none" stroke="#c0392b" stroke-width="3" opacity="0.4"/><path d="M560,175 C580,145 620,205 640,175" fill="none" stroke="#c0392b" stroke-width="3" opacity="0.4"/><path d="M640,175 C660,145 700,205 720,175" fill="none" stroke="#c0392b" stroke-width="3" opacity="0.4"/><path d="M720,175 C740,145 780,205 800,175" fill="none" stroke="#c0392b" stroke-width="3" opacity="0.4"/><path d="M800,175 C820,145 860,205 880,175" fill="none" stroke="#c0392b" stroke-width="3" opacity="0.4"/><path d="M880,175 C900,145 940,205 960,175" fill="none" stroke="#c0392b" stroke-width="3" opacity="0.4"/><line x1="0" y1="140" x2="800" y2="140" stroke="#0d0d0d" stroke-width="0.8" opacity="0.3"/><path d="M0,245 C20,275 60,215 80,245" fill="none" stroke="#0d0d0d" stroke-width="3" opacity="0.8"/><path d="M80,245 C100,275 140,215 160,245" fill="none" stroke="#0d0d0d" stroke-width="3" opacity="0.8"/><path d="M160,245 C180,275 220,215 240,245" fill="none" stroke="#0d0d0d" stroke-width="3" opacity="0.8"/><path d="M240,245 C260,275 300,215 320,245" fill="none" stroke="#0d0d0d" stroke-width="3" opacity="0.8"/><path d="M320,245 C340,275 380,215 400,245" fill="none" stroke="#0d0d0d" stroke-width="3" opacity="0.8"/><path d="M400,245 C420,275 460,215 480,245" fill="none" stroke="#0d0d0d" stroke-width="3" opacity="0.8"/><path d="M480,245 C500,275 540,215 560,245" fill="none" stroke="#0d0d0d" stroke-width="3" opacity="0.8"/><path d="M560,245 C580,275 620,215 640,245" fill="none" stroke="#0d0d0d" stroke-width="3" opacity="0.8"/><path d="M640,245 C660,275 700,215 720,245" fill="none" stroke="#0d0d0d" stroke-width="3" opacity="0.8"/><path d="M720,245 C740,275 780,215 800,245" fill="none" stroke="#0d0d0d" stroke-width="3" opacity="0.8"/><path d="M800,245 C820,275 860,215 880,245" fill="none" stroke="#0d0d0d" stroke-width="3" opacity="0.8"/><path d="M880,245 C900,275 940,215 960,245" fill="none" stroke="#0d0d0d" stroke-width="3" opacity="0.8"/><line x1="0" y1="210" x2="800" y2="210" stroke="#0d0d0d" stroke-width="0.8" opacity="0.3"/><path d="M0,315 C20,285 60,345 80,315" fill="none" stroke="#c0392b" stroke-width="3" opacity="0.4"/><path d="M80,315 C100,285 140,345 160,315" fill="none" stroke="#c0392b" stroke-width="3" opacity="0.4"/><path d="M160,315 C180,285 220,345 240,315" fill="none" stroke="#c0392b" stroke-width="3" opacity="0.4"/><path d="M240,315 C260,285 300,345 320,315" fill="none" stroke="#c0392b" stroke-width="3" opacity="0.4"/><path d="M320,315 C340,285 380,345 400,315" fill="none" stroke="#c0392b" stroke-width="3" opacity="0.4"/><path d="M400,315 C420,285 460,345 480,315" fill="none" stroke="#c0392b" stroke-width="3" opacity="0.4"/><path d="M480,315 C500,285 540,345 560,315" fill="none" stroke="#c0392b" stroke-width="3" opacity="0.4"/><path d="M560,315 C580,285 620,345 640,315" fill="none" stroke="#c0392b" stroke-width="3" opacity="0.4"/><path d="M640,315 C660,285 700,345 720,315" fill="none" stroke="#c0392b" stroke-width="3" opacity="0.4"/><path d="M720,315 C740,285 780,345 800,315" fill="none" stroke="#c0392b" stroke-width="3" opacity="0.4"/><path d="M800,315 C820,285 860,345 880,315" fill="none" stroke="#c0392b" stroke-width="3" opacity="0.4"/><path d="M880,315 C900,285 940,345 960,315" fill="none" stroke="#c0392b" stroke-width="3" opacity="0.4"/><line x1="0" y1="280" x2="800" y2="280" stroke="#0d0d0d" stroke-width="0.8" opacity="0.3"/><path d="M0,385 C20,415 60,355 80,385" fill="none" stroke="#0d0d0d" stroke-width="3" opacity="0.4"/><path d="M80,385 C100,415 140,355 160,385" fill="none" stroke="#0d0d0d" stroke-width="3" opacity="0.4"/><path d="M160,385 C180,415 220,355 240,385" fill="none" stroke="#0d0d0d" stroke-width="3" opacity="0.4"/><path d="M240,385 C260,415 300,355 320,385" fill="none" stroke="#0d0d0d" stroke-width="3" opacity="0.4"/><path d="M320,385 C340,415 380,355 400,385" fill="none" stroke="#0d0d0d" stroke-width="3" opacity="0.4"/><path d="M400,385 C420,415 460,355 480,385" fill="none" stroke="#0d0d0d" stroke-width="3" opacity="0.4"/><path d="M480,385 C500,415 540,355 560,385" fill="none" stroke="#0d0d0d" stroke-width="3" opacity="0.4"/><path d="M560,385 C580,415 620,355 640,385" fill="none" stroke="#0d0d0d" stroke-width="3" opacity="0.4"/><path d="M640,385 C660,415 700,355 720,385" fill="none" stroke="#0d0d0d" stroke-width="3" opacity="0.4"/><path d="M720,385 C740,415 780,355 800,385" fill="none" stroke="#0d0d0d" stroke-width="3" opacity="0.4"/><path d="M800,385 C820,415 860,355 880,385" fill="none" stroke="#0d0d0d" stroke-width="3" opacity="0.4"/><path d="M880,385 C900,415 940,355 960,385" fill="none" stroke="#0d0d0d" stroke-width="3" opacity="0.4"/><line x1="0" y1="350" x2="800" y2="350" stroke="#0d0d0d" stroke-width="0.8" opacity="0.3"/><path d="M0,455 C20,425 60,485 80,455" fill="none" stroke="#c0392b" stroke-width="3" opacity="0.8"/><path d="M80,455 C100,425 140,485 160,455" fill="none" stroke="#c0392b" stroke-width="3" opacity="0.8"/><path d="M160,455 C180,425 220,485 240,455" fill="none" stroke="#c0392b" stroke-width="3" opacity="0.8"/><path d="M240,455 C260,425 300,485 320,455" fill="none" stroke="#c0392b" stroke-width="3" opacity="0.8"/><path d="M320,455 C340,425 380,485 400,455" fill="none" stroke="#c0392b" stroke-width="3" opacity="0.8"/><path d="M400,455 C420,425 460,485 480,455" fill="none" stroke="#c0392b" stroke-width="3" opacity="0.8"/><path d="M480,455 C500,425 540,485 560,455" fill="none" stroke="#c0392b" stroke-width="3" opacity="0.8"/><path d="M560,455 C580,425 620,485 640,455" fill="none" stroke="#c0392b" stroke-width="3" opacity="0.8"/><path d="M640,455 C660,425 700,485 720,455" fill="none" stroke="#c0392b" stroke-width="3" opacity="0.8"/><path d="M720,455 C740,425 780,485 800,455" fill="none" stroke="#c0392b" stroke-width="3" opacity="0.8"/><path d="M800,455 C820,425 860,485 880,455" fill="none" stroke="#c0392b" stroke-width="3" opacity="0.8"/><path d="M880,455 C900,425 940,485 960,455" fill="none" stroke="#c0392b" stroke-width="3" opacity="0.8"/><line x1="0" y1="420" x2="800" y2="420" stroke="#0d0d0d" stroke-width="0.8" opacity="0.3"/><path d="M0,525 C20,555 60,495 80,525" fill="none" stroke="#0d0d0d" stroke-width="3" opacity="0.4"/><path d="M80,525 C100,555 140,495 160,525" fill="none" stroke="#0d0d0d" stroke-width="3" opacity="0.4"/><path d="M160,525 C180,555 220,495 240,525" fill="none" stroke="#0d0d0d" stroke-width="3" opacity="0.4"/><path d="M240,525 C260,555 300,495 320,525" fill="none" stroke="#0d0d0d" stroke-width="3" opacity="0.4"/><path d="M320,525 C340,555 380,495 400,525" fill="none" stroke="#0d0d0d" stroke-width="3" opacity="0.4"/><path d="M400,525 C420,555 460,495 480,525" fill="none" stroke="#0d0d0d" stroke-width="3" opacity="0.4"/><path d="M480,525 C500,555 540,495 560,525" fill="none" stroke="#0d0d0d" stroke-width="3" opacity="0.4"/><path d="M560,525 C580,555 620,495 640,525" fill="none" stroke="#0d0d0d" stroke-width="3" opacity="0.4"/><path d="M640,525 C660,555 700,495 720,525" fill="none" stroke="#0d0d0d" stroke-width="3" opacity="0.4"/><path d="M720,525 C740,555 780,495 800,525" fill="none" stroke="#0d0d0d" stroke-width="3" opacity="0.4"/><path d="M800,525 C820,555 860,495 880,525" fill="none" stroke="#0d0d0d" stroke-width="3" opacity="0.4"/><path d="M880,525 C900,555 940,495 960,525" fill="none" stroke="#0d0d0d" stroke-width="3" opacity="0.4"/><line x1="0" y1="490" x2="800" y2="490" stroke="#0d0d0d" stroke-width="0.8" opacity="0.3"/><path d="M0,595 C20,565 60,625 80,595" fill="none" stroke="#c0392b" stroke-width="3" opacity="0.4"/><path d="M80,595 C100,565 140,625 160,595" fill="none" stroke="#c0392b" stroke-width="3" opacity="0.4"/><path d="M160,595 C180,565 220,625 240,595" fill="none" stroke="#c0392b" stroke-width="3" opacity="0.4"/><path d="M240,595 C260,565 300,625 320,595" fill="none" stroke="#c0392b" stroke-width="3" opacity="0.4"/><path d="M320,595 C340,565 380,625 400,595" fill="none" stroke="#c0392b" stroke-width="3" opacity="0.4"/><path d="M400,595 C420,565 460,625 480,595" fill="none" stroke="#c0392b" stroke-width="3" opacity="0.4"/><path d="M480,595 C500,565 540,625 560,595" fill="none" stroke="#c0392b" stroke-width="3" opacity="0.4"/><path d="M560,595 C580,565 620,625 640,595" fill="none" stroke="#c0392b" stroke-width="3" opacity="0.4"/><path d="M640,595 C660,565 700,625 720,595" fill="none" stroke="#c0392b" stroke-width="3" opacity="0.4"/><path d="M720,595 C740,565 780,625 800,595" fill="none" stroke="#c0392b" stroke-width="3" opacity="0.4"/><path d="M800,595 C820,565 860,625 880,595" fill="none" stroke="#c0392b" stroke-width="3" opacity="0.4"/><path d="M880,595 C900,565 940,625 960,595" fill="none" stroke="#c0392b" stroke-width="3" opacity="0.4"/><line x1="0" y1="560" x2="800" y2="560" stroke="#0d0d0d" stroke-width="0.8" opacity="0.3"/><path d="M0,665 C20,695 60,635 80,665" fill="none" stroke="#0d0d0d" stroke-width="3" opacity="0.8"/><path d="M80,665 C100,695 140,635 160,665" fill="none" stroke="#0d0d0d" stroke-width="3" opacity="0.8"/><path d="M160,665 C180,695 220,635 240,665" fill="none" stroke="#0d0d0d" stroke-width="3" opacity="0.8"/><path d="M240,665 C260,695 300,635 320,665" fill="none" stroke="#0d0d0d" stroke-width="3" opacity="0.8"/><path d="M320,665 C340,695 380,635 400,665" fill="none" stroke="#0d0d0d" stroke-width="3" opacity="0.8"/><path d="M400,665 C420,695 460,635 480,665" fill="none" stroke="#0d0d0d" stroke-width="3" opacity="0.8"/><path d="M480,665 C500,695 540,635 560,665" fill="none" stroke="#0d0d0d" stroke-width="3" opacity="0.8"/><path d="M560,665 C580,695 620,635 640,665" fill="none" stroke="#0d0d0d" stroke-width="3" opacity="0.8"/><path d="M640,665 C660,695 700,635 720,665" fill="none" stroke="#0d0d0d" stroke-width="3" opacity="0.8"/><path d="M720,665 C740,695 780,635 800,665" fill="none" stroke="#0d0d0d" stroke-width="3" opacity="0.8"/><path d="M800,665 C820,695 860,635 880,665" fill="none" stroke="#0d0d0d" stroke-width="3" opacity="0.8"/><path d="M880,665 C900,695 940,635 960,665" fill="none" stroke="#0d0d0d" stroke-width="3" opacity="0.8"/><line x1="0" y1="630" x2="800" y2="630" stroke="#0d0d0d" stroke-width="0.8" opacity="0.3"/><path d="M0,735 C20,705 60,765 80,735" fill="none" stroke="#c0392b" stroke-width="3" opacity="0.4"/><path d="M80,735 C100,705 140,765 160,735" fill="none" stroke="#c0392b" stroke-width="3" opacity="0.4"/><path d="M160,735 C180,705 220,765 240,735" fill="none" stroke="#c0392b" stroke-width="3" opacity="0.4"/><path d="M240,735 C260,705 300,765 320,735" fill="none" stroke="#c0392b" stroke-width="3" opacity="0.4"/><path d="M320,735 C340,705 380,765 400,735" fill="none" stroke="#c0392b" stroke-width="3" opacity="0.4"/><path d="M400,735 C420,705 460,765 480,735" fill="none" stroke="#c0392b" stroke-width="3" opacity="0.4"/><path d="M480,735 C500,705 540,765 560,735" fill="none" stroke="#c0392b" stroke-width="3" opacity="0.4"/><path d="M560,735 C580,705 620,765 640,735" fill="none" stroke="#c0392b" stroke-width="3" opacity="0.4"/><path d="M640,735 C660,705 700,765 720,735" fill="none" stroke="#c0392b" stroke-width="3" opacity="0.4"/><path d="M720,735 C740,705 780,765 800,735" fill="none" stroke="#c0392b" stroke-width="3" opacity="0.4"/><path d="M800,735 C820,705 860,765 880,735" fill="none" stroke="#c0392b" stroke-width="3" opacity="0.4"/><path d="M880,735 C900,705 940,765 960,735" fill="none" stroke="#c0392b" stroke-width="3" opacity="0.4"/><line x1="0" y1="700" x2="800" y2="700" stroke="#0d0d0d" stroke-width="0.8" opacity="0.3"/><path d="M0,805 C20,835 60,775 80,805" fill="none" stroke="#0d0d0d" stroke-width="3" opacity="0.4"/><path d="M80,805 C100,835 140,775 160,805" fill="none" stroke="#0d0d0d" stroke-width="3" opacity="0.4"/><path d="M160,805 C180,835 220,775 240,805" fill="none" stroke="#0d0d0d" stroke-width="3" opacity="0.4"/><path d="M240,805 C260,835 300,775 320,805" fill="none" stroke="#0d0d0d" stroke-width="3" opacity="0.4"/><path d="M320,805 C340,835 380,775 400,805" fill="none" stroke="#0d0d0d" stroke-width="3" opacity="0.4"/><path d="M400,805 C420,835 460,775 480,805" fill="none" stroke="#0d0d0d" stroke-width="3" opacity="0.4"/><path d="M480,805 C500,835 540,775 560,805" fill="none" stroke="#0d0d0d" stroke-width="3" opacity="0.4"/><path d="M560,805 C580,835 620,775 640,805" fill="none" stroke="#0d0d0d" stroke-width="3" opacity="0.4"/><path d="M640,805 C660,835 700,775 720,805" fill="none" stroke="#0d0d0d" stroke-width="3" opacity="0.4"/><path d="M720,805 C740,835 780,775 800,805" fill="none" stroke="#0d0d0d" stroke-width="3" opacity="0.4"/><path d="M800,805 C820,835 860,775 880,805" fill="none" stroke="#0d0d0d" stroke-width="3" opacity="0.4"/><path d="M880,805 C900,835 940,775 960,805" fill="none" stroke="#0d0d0d" stroke-width="3" opacity="0.4"/><line x1="0" y1="770" x2="800" y2="770" stroke="#0d0d0d" stroke-width="0.8" opacity="0.3"/><path d="M0,875 C20,845 60,905 80,875" fill="none" stroke="#c0392b" stroke-width="3" opacity="0.8"/><path d="M80,875 C100,845 140,905 160,875" fill="none" stroke="#c0392b" stroke-width="3" opacity="0.8"/><path d="M160,875 C180,845 220,905 240,875" fill="none" stroke="#c0392b" stroke-width="3" opacity="0.8"/><path d="M240,875 C260,845 300,905 320,875" fill="none" stroke="#c0392b" stroke-width="3" opacity="0.8"/><path d="M320,875 C340,845 380,905 400,875" fill="none" stroke="#c0392b" stroke-width="3" opacity="0.8"/><path d="M400,875 C420,845 460,905 480,875" fill="none" stroke="#c0392b" stroke-width="3" opacity="0.8"/><path d="M480,875 C500,845 540,905 560,875" fill="none" stroke="#c0392b" stroke-width="3" opacity="0.8"/><path d="M560,875 C580,845 620,905 640,875" fill="none" stroke="#c0392b" stroke-width="3" opacity="0.8"/><path d="M640,875 C660,845 700,905 720,875" fill="none" stroke="#c0392b" stroke-width="3" opacity="0.8"/><path d="M720,875 C740,845 780,905 800,875" fill="none" stroke="#c0392b" stroke-width="3" opacity="0.8"/><path d="M800,875 C820,845 860,905 880,875" fill="none" stroke="#c0392b" stroke-width="3" opacity="0.8"/><path d="M880,875 C900,845 940,905 960,875" fill="none" stroke="#c0392b" stroke-width="3" opacity="0.8"/><line x1="0" y1="840" x2="800" y2="840" stroke="#0d0d0d" stroke-width="0.8" opacity="0.3"/><text x="400" y="792" font-family="Georgia,serif" font-size="22" fill="#0d0d0d" text-anchor="middle" opacity="0.5">Kōwhaiwhai</text></svg>