<svg xmlns="http://www.w3.org/2000/svg" width="1200" height="675" viewBox="0 0 1200 675"><title>Niho Taniwha — The Kiwi Dialectic</title><rect width="1200" height="675" fill="#f4f0e8"/><polygon points="-48,-40 0,-40 -24,0" fill="#c0392b" opacity="0.9"/><polygon points="0,-40 48,-40 24,0" fill="#0d0d0d" opacity="0.4"/><polygon points="48,-40 96,-40 72,0" fill="#0d0d0d" opacity="0.2"/><polygon points="96,-40 144,-40 120,0" fill="#0d0d0d" opacity="0.9"/><polygon points="144,-40 192,-40 168,0" fill="#c0392b" opacity="0.4"/><polygon points="192,-40 240,-40 216,0" fill="#0d0d0d" opacity="0.2"/><polygon points="240,-40 288,-40 264,0" fill="#0d0d0d" opacity="0.9"/><polygon points="288,-40 336,-40 312,0" fill="#0d0d0d" opacity="0.4"/><polygon points="336,-40 384,-40 360,0" fill="#c0392b" opacity="0.2"/><polygon points="384,-40 432,-40 408,0" fill="#0d0d0d" opacity="0.9"/><polygon points="432,-40 480,-40 456,0" fill="#0d0d0d" opacity="0.4"/><polygon points="480,-40 528,-40 504,0" fill="#0d0d0d" opacity="0.2"/><polygon points="528,-40 576,-40 552,0" fill="#c0392b" opacity="0.9"/><polygon points="576,-40 624,-40 600,0" fill="#0d0d0d" opacity="0.4"/><polygon points="624,-40 672,-40 648,0" fill="#0d0d0d" opacity="0.2"/><polygon points="672,-40 720,-40 696,0" fill="#0d0d0d" opacity="0.9"/><polygon points="720,-40 768,-40 744,0" fill="#c0392b" opacity="0.4"/><polygon points="768,-40 816,-40 792,0" fill="#0d0d0d" opacity="0.2"/><polygon points="816,-40 864,-40 840,0" fill="#0d0d0d" opacity="0.9"/><polygon points="864,-40 912,-40 888,0" fill="#0d0d0d" opacity="0.4"/><polygon points="912,-40 960,-40 936,0" fill="#c0392b" opacity="0.2"/><polygon points="960,-40 1008,-40 984,0" fill="#0d0d0d" opacity="0.9"/><polygon points="1008,-40 1056,-40 1032,0" fill="#0d0d0d" opacity="0.4"/><polygon points="1056,-40 1104,-40 1080,0" fill="#0d0d0d" opacity="0.2"/><polygon points="1104,-40 1152,-40 1128,0" fill="#c0392b" opacity="0.9"/><polygon points="1152,-40 1200,-40 1176,0" fill="#0d0d0d" opacity="0.4"/><polygon points="1200,-40 1248,-40 1224,0" fill="#0d0d0d" opacity="0.2"/><polygon points="-24,0 24,0 0,40" fill="#0d0d0d" opacity="0.4"/><polygon points="24,0 72,0 48,40" fill="#0d0d0d" opacity="0.2"/><polygon points="72,0 120,0 96,40" fill="#0d0d0d" opacity="0.9"/><polygon points="120,0 168,0 144,40" fill="#c0392b" opacity="0.4"/><polygon points="168,0 216,0 192,40" fill="#0d0d0d" opacity="0.2"/><polygon points="216,0 264,0 240,40" fill="#0d0d0d" opacity="0.9"/><polygon points="264,0 312,0 288,40" fill="#0d0d0d" opacity="0.4"/><polygon points="312,0 360,0 336,40" fill="#c0392b" opacity="0.2"/><polygon points="360,0 408,0 384,40" fill="#0d0d0d" opacity="0.9"/><polygon points="408,0 456,0 432,40" fill="#0d0d0d" opacity="0.4"/><polygon points="456,0 504,0 480,40" fill="#0d0d0d" opacity="0.2"/><polygon points="504,0 552,0 528,40" fill="#c0392b" opacity="0.9"/><polygon points="552,0 600,0 576,40" fill="#0d0d0d" opacity="0.4"/><polygon points="600,0 648,0 624,40" fill="#0d0d0d" opacity="0.2"/><polygon points="648,0 696,0 672,40" fill="#0d0d0d" opacity="0.9"/><polygon points="696,0 744,0 720,40" fill="#c0392b" opacity="0.4"/><polygon points="744,0 792,0 768,40" fill="#0d0d0d" opacity="0.2"/><polygon points="792,0 840,0 816,40" fill="#0d0d0d" opacity="0.9"/><polygon points="840,0 888,0 864,40" fill="#0d0d0d" opacity="0.4"/><polygon points="888,0 936,0 912,40" fill="#c0392b" opacity="0.2"/><polygon points="936,0 984,0 960,40" fill="#0d0d0d" opacity="0.9"/><polygon points="984,0 1032,0 1008,40" fill="#0d0d0d" opacity="0.4"/><polygon points="1032,0 1080,0 1056,40" fill="#0d0d0d" opacity="0.2"/><polygon points="1080,0 1128,0 1104,40" fill="#c0392b" opacity="0.9"/><polygon points="1128,0 1176,0 1152,40" fill="#0d0d0d" opacity="0.4"/><polygon points="1176,0 1224,0 1200,40" fill="#0d0d0d" opacity="0.2"/><polygon points="1224,0 1272,0 1248,40" fill="#0d0d0d" opacity="0.9"/><polygon points="-48,40 0,40 -24,80" fill="#0d0d0d" opacity="0.2"/><polygon points="0,40 48,40 24,80" fill="#0d0d0d" opacity="0.9"/><polygon points="48,40 96,40 72,80" fill="#c0392b" opacity="0.4"/><polygon points="96,40 144,40 120,80" fill="#0d0d0d" opacity="0.2"/><polygon points="144,40 192,40 168,80" fill="#0d0d0d" opacity="0.9"/><polygon points="192,40 240,40 216,80" fill="#0d0d0d" opacity="0.4"/><polygon points="240,40 288,40 264,80" fill="#c0392b" opacity="0.2"/><polygon points="288,40 336,40 312,80" fill="#0d0d0d" opacity="0.9"/><polygon points="336,40 384,40 360,80" fill="#0d0d0d" opacity="0.4"/><polygon points="384,40 432,40 408,80" fill="#0d0d0d" opacity="0.2"/><polygon points="432,40 480,40 456,80" fill="#c0392b" opacity="0.9"/><polygon points="480,40 528,40 504,80" fill="#0d0d0d" opacity="0.4"/><polygon points="528,40 576,40 552,80" fill="#0d0d0d" opacity="0.2"/><polygon points="576,40 624,40 600,80" fill="#0d0d0d" opacity="0.9"/><polygon points="624,40 672,40 648,80" fill="#c0392b" opacity="0.4"/><polygon points="672,40 720,40 696,80" fill="#0d0d0d" opacity="0.2"/><polygon points="720,40 768,40 744,80" fill="#0d0d0d" opacity="0.9"/><polygon points="768,40 816,40 792,80" fill="#0d0d0d" opacity="0.4"/><polygon points="816,40 864,40 840,80" fill="#c0392b" opacity="0.2"/><polygon points="864,40 912,40 888,80" fill="#0d0d0d" opacity="0.9"/><polygon points="912,40 960,40 936,80" fill="#0d0d0d" opacity="0.4"/><polygon points="960,40 1008,40 984,80" fill="#0d0d0d" opacity="0.2"/><polygon points="1008,40 1056,40 1032,80" fill="#c0392b" opacity="0.9"/><polygon points="1056,40 1104,40 1080,80" fill="#0d0d0d" opacity="0.4"/><polygon points="1104,40 1152,40 1128,80" fill="#0d0d0d" opacity="0.2"/><polygon points="1152,40 1200,40 1176,80" fill="#0d0d0d" opacity="0.9"/><polygon points="1200,40 1248,40 1224,80" fill="#c0392b" opacity="0.4"/><polygon points="-24,80 24,80 0,120" fill="#0d0d0d" opacity="0.9"/><polygon points="24,80 72,80 48,120" fill="#c0392b" opacity="0.4"/><polygon points="72,80 120,80 96,120" fill="#0d0d0d" opacity="0.2"/><polygon points="120,80 168,80 144,120" fill="#0d0d0d" opacity="0.9"/><polygon points="168,80 216,80 192,120" fill="#0d0d0d" opacity="0.4"/><polygon points="216,80 264,80 240,120" fill="#c0392b" opacity="0.2"/><polygon points="264,80 312,80 288,120" fill="#0d0d0d" opacity="0.9"/><polygon points="312,80 360,80 336,120" fill="#0d0d0d" opacity="0.4"/><polygon points="360,80 408,80 384,120" fill="#0d0d0d" opacity="0.2"/><polygon points="408,80 456,80 432,120" fill="#c0392b" opacity="0.9"/><polygon points="456,80 504,80 480,120" fill="#0d0d0d" opacity="0.4"/><polygon points="504,80 552,80 528,120" fill="#0d0d0d" opacity="0.2"/><polygon points="552,80 600,80 576,120" fill="#0d0d0d" opacity="0.9"/><polygon points="600,80 648,80 624,120" fill="#c0392b" opacity="0.4"/><polygon points="648,80 696,80 672,120" fill="#0d0d0d" opacity="0.2"/><polygon points="696,80 744,80 720,120" fill="#0d0d0d" opacity="0.9"/><polygon points="744,80 792,80 768,120" fill="#0d0d0d" opacity="0.4"/><polygon points="792,80 840,80 816,120" fill="#c0392b" opacity="0.2"/><polygon points="840,80 888,80 864,120" fill="#0d0d0d" opacity="0.9"/><polygon points="888,80 936,80 912,120" fill="#0d0d0d" opacity="0.4"/><polygon points="936,80 984,80 960,120" fill="#0d0d0d" opacity="0.2"/><polygon points="984,80 1032,80 1008,120" fill="#c0392b" opacity="0.9"/><polygon points="1032,80 1080,80 1056,120" fill="#0d0d0d" opacity="0.4"/><polygon points="1080,80 1128,80 1104,120" fill="#0d0d0d" opacity="0.2"/><polygon points="1128,80 1176,80 1152,120" fill="#0d0d0d" opacity="0.9"/><polygon points="1176,80 1224,80 1200,120" fill="#c0392b" opacity="0.4"/><polygon points="1224,80 1272,80 1248,120" fill="#0d0d0d" opacity="0.2"/><polygon points="-48,120 0,120 -24,160" fill="#c0392b" opacity="0.4"/><polygon points="0,120 48,120 24,160" fill="#0d0d0d" opacity="0.2"/><polygon points="48,120 96,120 72,160" fill="#0d0d0d" opacity="0.9"/><polygon points="96,120 144,120 120,160" fill="#0d0d0d" opacity="0.4"/><polygon points="144,120 192,120 168,160" fill="#c0392b" opacity="0.2"/><polygon points="192,120 240,120 216,160" fill="#0d0d0d" opacity="0.9"/><polygon points="240,120 288,120 264,160" fill="#0d0d0d" opacity="0.4"/><polygon points="288,120 336,120 312,160" fill="#0d0d0d" opacity="0.2"/><polygon points="336,120 384,120 360,160" fill="#c0392b" opacity="0.9"/><polygon points="384,120 432,120 408,160" fill="#0d0d0d" opacity="0.4"/><polygon points="432,120 480,120 456,160" fill="#0d0d0d" opacity="0.2"/><polygon points="480,120 528,120 504,160" fill="#0d0d0d" opacity="0.9"/><polygon points="528,120 576,120 552,160" fill="#c0392b" opacity="0.4"/><polygon points="576,120 624,120 600,160" fill="#0d0d0d" opacity="0.2"/><polygon points="624,120 672,120 648,160" fill="#0d0d0d" opacity="0.9"/><polygon points="672,120 720,120 696,160" fill="#0d0d0d" opacity="0.4"/><polygon points="720,120 768,120 744,160" fill="#c0392b" opacity="0.2"/><polygon points="768,120 816,120 792,160" fill="#0d0d0d" opacity="0.9"/><polygon points="816,120 864,120 840,160" fill="#0d0d0d" opacity="0.4"/><polygon points="864,120 912,120 888,160" fill="#0d0d0d" opacity="0.2"/><polygon points="912,120 960,120 936,160" fill="#c0392b" opacity="0.9"/><polygon points="960,120 1008,120 984,160" fill="#0d0d0d" opacity="0.4"/><polygon points="1008,120 1056,120 1032,160" fill="#0d0d0d" opacity="0.2"/><polygon points="1056,120 1104,120 1080,160" fill="#0d0d0d" opacity="0.9"/><polygon points="1104,120 1152,120 1128,160" fill="#c0392b" opacity="0.4"/><polygon points="1152,120 1200,120 1176,160" fill="#0d0d0d" opacity="0.2"/><polygon points="1200,120 1248,120 1224,160" fill="#0d0d0d" opacity="0.9"/><polygon points="-24,160 24,160 0,200" fill="#0d0d0d" opacity="0.2"/><polygon points="24,160 72,160 48,200" fill="#0d0d0d" opacity="0.9"/><polygon points="72,160 120,160 96,200" fill="#0d0d0d" opacity="0.4"/><polygon points="120,160 168,160 144,200" fill="#c0392b" opacity="0.2"/><polygon points="168,160 216,160 192,200" fill="#0d0d0d" opacity="0.9"/><polygon points="216,160 264,160 240,200" fill="#0d0d0d" opacity="0.4"/><polygon points="264,160 312,160 288,200" fill="#0d0d0d" opacity="0.2"/><polygon points="312,160 360,160 336,200" fill="#c0392b" opacity="0.9"/><polygon points="360,160 408,160 384,200" fill="#0d0d0d" opacity="0.4"/><polygon points="408,160 456,160 432,200" fill="#0d0d0d" opacity="0.2"/><polygon points="456,160 504,160 480,200" fill="#0d0d0d" opacity="0.9"/><polygon points="504,160 552,160 528,200" fill="#c0392b" opacity="0.4"/><polygon points="552,160 600,160 576,200" fill="#0d0d0d" opacity="0.2"/><polygon points="600,160 648,160 624,200" fill="#0d0d0d" opacity="0.9"/><polygon points="648,160 696,160 672,200" fill="#0d0d0d" opacity="0.4"/><polygon points="696,160 744,160 720,200" fill="#c0392b" opacity="0.2"/><polygon points="744,160 792,160 768,200" fill="#0d0d0d" opacity="0.9"/><polygon points="792,160 840,160 816,200" fill="#0d0d0d" opacity="0.4"/><polygon points="840,160 888,160 864,200" fill="#0d0d0d" opacity="0.2"/><polygon points="888,160 936,160 912,200" fill="#c0392b" opacity="0.9"/><polygon points="936,160 984,160 960,200" fill="#0d0d0d" opacity="0.4"/><polygon points="984,160 1032,160 1008,200" fill="#0d0d0d" opacity="0.2"/><polygon points="1032,160 1080,160 1056,200" fill="#0d0d0d" opacity="0.9"/><polygon points="1080,160 1128,160 1104,200" fill="#c0392b" opacity="0.4"/><polygon points="1128,160 1176,160 1152,200" fill="#0d0d0d" opacity="0.2"/><polygon points="1176,160 1224,160 1200,200" fill="#0d0d0d" opacity="0.9"/><polygon points="1224,160 1272,160 1248,200" fill="#0d0d0d" opacity="0.4"/><polygon points="-48,200 0,200 -24,240" fill="#0d0d0d" opacity="0.9"/><polygon points="0,200 48,200 24,240" fill="#0d0d0d" opacity="0.4"/><polygon points="48,200 96,200 72,240" fill="#c0392b" opacity="0.2"/><polygon points="96,200 144,200 120,240" fill="#0d0d0d" opacity="0.9"/><polygon points="144,200 192,200 168,240" fill="#0d0d0d" opacity="0.4"/><polygon points="192,200 240,200 216,240" fill="#0d0d0d" opacity="0.2"/><polygon points="240,200 288,200 264,240" fill="#c0392b" opacity="0.9"/><polygon points="288,200 336,200 312,240" fill="#0d0d0d" opacity="0.4"/><polygon points="336,200 384,200 360,240" fill="#0d0d0d" opacity="0.2"/><polygon points="384,200 432,200 408,240" fill="#0d0d0d" opacity="0.9"/><polygon points="432,200 480,200 456,240" fill="#c0392b" opacity="0.4"/><polygon points="480,200 528,200 504,240" fill="#0d0d0d" opacity="0.2"/><polygon points="528,200 576,200 552,240" fill="#0d0d0d" opacity="0.9"/><polygon points="576,200 624,200 600,240" fill="#0d0d0d" opacity="0.4"/><polygon points="624,200 672,200 648,240" fill="#c0392b" opacity="0.2"/><polygon points="672,200 720,200 696,240" fill="#0d0d0d" opacity="0.9"/><polygon points="720,200 768,200 744,240" fill="#0d0d0d" opacity="0.4"/><polygon points="768,200 816,200 792,240" fill="#0d0d0d" opacity="0.2"/><polygon points="816,200 864,200 840,240" fill="#c0392b" opacity="0.9"/><polygon points="864,200 912,200 888,240" fill="#0d0d0d" opacity="0.4"/><polygon points="912,200 960,200 936,240" fill="#0d0d0d" opacity="0.2"/><polygon points="960,200 1008,200 984,240" fill="#0d0d0d" opacity="0.9"/><polygon points="1008,200 1056,200 1032,240" fill="#c0392b" opacity="0.4"/><polygon points="1056,200 1104,200 1080,240" fill="#0d0d0d" opacity="0.2"/><polygon points="1104,200 1152,200 1128,240" fill="#0d0d0d" opacity="0.9"/><polygon points="1152,200 1200,200 1176,240" fill="#0d0d0d" opacity="0.4"/><polygon points="1200,200 1248,200 1224,240" fill="#c0392b" opacity="0.2"/><polygon points="-24,240 24,240 0,280" fill="#0d0d0d" opacity="0.4"/><polygon points="24,240 72,240 48,280" fill="#c0392b" opacity="0.2"/><polygon points="72,240 120,240 96,280" fill="#0d0d0d" opacity="0.9"/><polygon points="120,240 168,240 144,280" fill="#0d0d0d" opacity="0.4"/><polygon points="168,240 216,240 192,280" fill="#0d0d0d" opacity="0.2"/><polygon points="216,240 264,240 240,280" fill="#c0392b" opacity="0.9"/><polygon points="264,240 312,240 288,280" fill="#0d0d0d" opacity="0.4"/><polygon points="312,240 360,240 336,280" fill="#0d0d0d" opacity="0.2"/><polygon points="360,240 408,240 384,280" fill="#0d0d0d" opacity="0.9"/><polygon points="408,240 456,240 432,280" fill="#c0392b" opacity="0.4"/><polygon points="456,240 504,240 480,280" fill="#0d0d0d" opacity="0.2"/><polygon points="504,240 552,240 528,280" fill="#0d0d0d" opacity="0.9"/><polygon points="552,240 600,240 576,280" fill="#0d0d0d" opacity="0.4"/><polygon points="600,240 648,240 624,280" fill="#c0392b" opacity="0.2"/><polygon points="648,240 696,240 672,280" fill="#0d0d0d" opacity="0.9"/><polygon points="696,240 744,240 720,280" fill="#0d0d0d" opacity="0.4"/><polygon points="744,240 792,240 768,280" fill="#0d0d0d" opacity="0.2"/><polygon points="792,240 840,240 816,280" fill="#c0392b" opacity="0.9"/><polygon points="840,240 888,240 864,280" fill="#0d0d0d" opacity="0.4"/><polygon points="888,240 936,240 912,280" fill="#0d0d0d" opacity="0.2"/><polygon points="936,240 984,240 960,280" fill="#0d0d0d" opacity="0.9"/><polygon points="984,240 1032,240 1008,280" fill="#c0392b" opacity="0.4"/><polygon points="1032,240 1080,240 1056,280" fill="#0d0d0d" opacity="0.2"/><polygon points="1080,240 1128,240 1104,280" fill="#0d0d0d" opacity="0.9"/><polygon points="1128,240 1176,240 1152,280" fill="#0d0d0d" opacity="0.4"/><polygon points="1176,240 1224,240 1200,280" fill="#c0392b" opacity="0.2"/><polygon points="1224,240 1272,240 1248,280" fill="#0d0d0d" opacity="0.9"/><polygon points="-48,280 0,280 -24,320" fill="#c0392b" opacity="0.2"/><polygon points="0,280 48,280 24,320" fill="#0d0d0d" opacity="0.9"/><polygon points="48,280 96,280 72,320" fill="#0d0d0d" opacity="0.4"/><polygon points="96,280 144,280 120,320" fill="#0d0d0d" opacity="0.2"/><polygon points="144,280 192,280 168,320" fill="#c0392b" opacity="0.9"/><polygon points="192,280 240,280 216,320" fill="#0d0d0d" opacity="0.4"/><polygon points="240,280 288,280 264,320" fill="#0d0d0d" opacity="0.2"/><polygon points="288,280 336,280 312,320" fill="#0d0d0d" opacity="0.9"/><polygon points="336,280 384,280 360,320" fill="#c0392b" opacity="0.4"/><polygon points="384,280 432,280 408,320" fill="#0d0d0d" opacity="0.2"/><polygon points="432,280 480,280 456,320" fill="#0d0d0d" opacity="0.9"/><polygon points="480,280 528,280 504,320" fill="#0d0d0d" opacity="0.4"/><polygon points="528,280 576,280 552,320" fill="#c0392b" opacity="0.2"/><polygon points="576,280 624,280 600,320" fill="#0d0d0d" opacity="0.9"/><polygon points="624,280 672,280 648,320" fill="#0d0d0d" opacity="0.4"/><polygon points="672,280 720,280 696,320" fill="#0d0d0d" opacity="0.2"/><polygon points="720,280 768,280 744,320" fill="#c0392b" opacity="0.9"/><polygon points="768,280 816,280 792,320" fill="#0d0d0d" opacity="0.4"/><polygon points="816,280 864,280 840,320" fill="#0d0d0d" opacity="0.2"/><polygon points="864,280 912,280 888,320" fill="#0d0d0d" opacity="0.9"/><polygon points="912,280 960,280 936,320" fill="#c0392b" opacity="0.4"/><polygon points="960,280 1008,280 984,320" fill="#0d0d0d" opacity="0.2"/><polygon points="1008,280 1056,280 1032,320" fill="#0d0d0d" opacity="0.9"/><polygon points="1056,280 1104,280 1080,320" fill="#0d0d0d" opacity="0.4"/><polygon points="1104,280 1152,280 1128,320" fill="#c0392b" opacity="0.2"/><polygon points="1152,280 1200,280 1176,320" fill="#0d0d0d" opacity="0.9"/><polygon points="1200,280 1248,280 1224,320" fill="#0d0d0d" opacity="0.4"/><polygon points="-24,320 24,320 0,360" fill="#0d0d0d" opacity="0.9"/><polygon points="24,320 72,320 48,360" fill="#0d0d0d" opacity="0.4"/><polygon points="72,320 120,320 96,360" fill="#0d0d0d" opacity="0.2"/><polygon points="120,320 168,320 144,360" fill="#c0392b" opacity="0.9"/><polygon points="168,320 216,320 192,360" fill="#0d0d0d" opacity="0.4"/><polygon points="216,320 264,320 240,360" fill="#0d0d0d" opacity="0.2"/><polygon points="264,320 312,320 288,360" fill="#0d0d0d" opacity="0.9"/><polygon points="312,320 360,320 336,360" fill="#c0392b" opacity="0.4"/><polygon points="360,320 408,320 384,360" fill="#0d0d0d" opacity="0.2"/><polygon points="408,320 456,320 432,360" fill="#0d0d0d" opacity="0.9"/><polygon points="456,320 504,320 480,360" fill="#0d0d0d" opacity="0.4"/><polygon points="504,320 552,320 528,360" fill="#c0392b" opacity="0.2"/><polygon points="552,320 600,320 576,360" fill="#0d0d0d" opacity="0.9"/><polygon points="600,320 648,320 624,360" fill="#0d0d0d" opacity="0.4"/><polygon points="648,320 696,320 672,360" fill="#0d0d0d" opacity="0.2"/><polygon points="696,320 744,320 720,360" fill="#c0392b" opacity="0.9"/><polygon points="744,320 792,320 768,360" fill="#0d0d0d" opacity="0.4"/><polygon points="792,320 840,320 816,360" fill="#0d0d0d" opacity="0.2"/><polygon points="840,320 888,320 864,360" fill="#0d0d0d" opacity="0.9"/><polygon points="888,320 936,320 912,360" fill="#c0392b" opacity="0.4"/><polygon points="936,320 984,320 960,360" fill="#0d0d0d" opacity="0.2"/><polygon points="984,320 1032,320 1008,360" fill="#0d0d0d" opacity="0.9"/><polygon points="1032,320 1080,320 1056,360" fill="#0d0d0d" opacity="0.4"/><polygon points="1080,320 1128,320 1104,360" fill="#c0392b" opacity="0.2"/><polygon points="1128,320 1176,320 1152,360" fill="#0d0d0d" opacity="0.9"/><polygon points="1176,320 1224,320 1200,360" fill="#0d0d0d" opacity="0.4"/><polygon points="1224,320 1272,320 1248,360" fill="#0d0d0d" opacity="0.2"/><polygon points="-48,360 0,360 -24,400" fill="#0d0d0d" opacity="0.4"/><polygon points="0,360 48,360 24,400" fill="#0d0d0d" opacity="0.2"/><polygon points="48,360 96,360 72,400" fill="#c0392b" opacity="0.9"/><polygon points="96,360 144,360 120,400" fill="#0d0d0d" opacity="0.4"/><polygon points="144,360 192,360 168,400" fill="#0d0d0d" opacity="0.2"/><polygon points="192,360 240,360 216,400" fill="#0d0d0d" opacity="0.9"/><polygon points="240,360 288,360 264,400" fill="#c0392b" opacity="0.4"/><polygon points="288,360 336,360 312,400" fill="#0d0d0d" opacity="0.2"/><polygon points="336,360 384,360 360,400" fill="#0d0d0d" opacity="0.9"/><polygon points="384,360 432,360 408,400" fill="#0d0d0d" opacity="0.4"/><polygon points="432,360 480,360 456,400" fill="#c0392b" opacity="0.2"/><polygon points="480,360 528,360 504,400" fill="#0d0d0d" opacity="0.9"/><polygon points="528,360 576,360 552,400" fill="#0d0d0d" opacity="0.4"/><polygon points="576,360 624,360 600,400" fill="#0d0d0d" opacity="0.2"/><polygon points="624,360 672,360 648,400" fill="#c0392b" opacity="0.9"/><polygon points="672,360 720,360 696,400" fill="#0d0d0d" opacity="0.4"/><polygon points="720,360 768,360 744,400" fill="#0d0d0d" opacity="0.2"/><polygon points="768,360 816,360 792,400" fill="#0d0d0d" opacity="0.9"/><polygon points="816,360 864,360 840,400" fill="#c0392b" opacity="0.4"/><polygon points="864,360 912,360 888,400" fill="#0d0d0d" opacity="0.2"/><polygon points="912,360 960,360 936,400" fill="#0d0d0d" opacity="0.9"/><polygon points="960,360 1008,360 984,400" fill="#0d0d0d" opacity="0.4"/><polygon points="1008,360 1056,360 1032,400" fill="#c0392b" opacity="0.2"/><polygon points="1056,360 1104,360 1080,400" fill="#0d0d0d" opacity="0.9"/><polygon points="1104,360 1152,360 1128,400" fill="#0d0d0d" opacity="0.4"/><polygon points="1152,360 1200,360 1176,400" fill="#0d0d0d" opacity="0.2"/><polygon points="1200,360 1248,360 1224,400" fill="#c0392b" opacity="0.9"/><polygon points="-24,400 24,400 0,440" fill="#0d0d0d" opacity="0.2"/><polygon points="24,400 72,400 48,440" fill="#c0392b" opacity="0.9"/><polygon points="72,400 120,400 96,440" fill="#0d0d0d" opacity="0.4"/><polygon points="120,400 168,400 144,440" fill="#0d0d0d" opacity="0.2"/><polygon points="168,400 216,400 192,440" fill="#0d0d0d" opacity="0.9"/><polygon points="216,400 264,400 240,440" fill="#c0392b" opacity="0.4"/><polygon points="264,400 312,400 288,440" fill="#0d0d0d" opacity="0.2"/><polygon points="312,400 360,400 336,440" fill="#0d0d0d" opacity="0.9"/><polygon points="360,400 408,400 384,440" fill="#0d0d0d" opacity="0.4"/><polygon points="408,400 456,400 432,440" fill="#c0392b" opacity="0.2"/><polygon points="456,400 504,400 480,440" fill="#0d0d0d" opacity="0.9"/><polygon points="504,400 552,400 528,440" fill="#0d0d0d" opacity="0.4"/><polygon points="552,400 600,400 576,440" fill="#0d0d0d" opacity="0.2"/><polygon points="600,400 648,400 624,440" fill="#c0392b" opacity="0.9"/><polygon points="648,400 696,400 672,440" fill="#0d0d0d" opacity="0.4"/><polygon points="696,400 744,400 720,440" fill="#0d0d0d" opacity="0.2"/><polygon points="744,400 792,400 768,440" fill="#0d0d0d" opacity="0.9"/><polygon points="792,400 840,400 816,440" fill="#c0392b" opacity="0.4"/><polygon points="840,400 888,400 864,440" fill="#0d0d0d" opacity="0.2"/><polygon points="888,400 936,400 912,440" fill="#0d0d0d" opacity="0.9"/><polygon points="936,400 984,400 960,440" fill="#0d0d0d" opacity="0.4"/><polygon points="984,400 1032,400 1008,440" fill="#c0392b" opacity="0.2"/><polygon points="1032,400 1080,400 1056,440" fill="#0d0d0d" opacity="0.9"/><polygon points="1080,400 1128,400 1104,440" fill="#0d0d0d" opacity="0.4"/><polygon points="1128,400 1176,400 1152,440" fill="#0d0d0d" opacity="0.2"/><polygon points="1176,400 1224,400 1200,440" fill="#c0392b" opacity="0.9"/><polygon points="1224,400 1272,400 1248,440" fill="#0d0d0d" opacity="0.4"/><polygon points="-48,440 0,440 -24,480" fill="#c0392b" opacity="0.9"/><polygon points="0,440 48,440 24,480" fill="#0d0d0d" opacity="0.4"/><polygon points="48,440 96,440 72,480" fill="#0d0d0d" opacity="0.2"/><polygon points="96,440 144,440 120,480" fill="#0d0d0d" opacity="0.9"/><polygon points="144,440 192,440 168,480" fill="#c0392b" opacity="0.4"/><polygon points="192,440 240,440 216,480" fill="#0d0d0d" opacity="0.2"/><polygon points="240,440 288,440 264,480" fill="#0d0d0d" opacity="0.9"/><polygon points="288,440 336,440 312,480" fill="#0d0d0d" opacity="0.4"/><polygon points="336,440 384,440 360,480" fill="#c0392b" opacity="0.2"/><polygon points="384,440 432,440 408,480" fill="#0d0d0d" opacity="0.9"/><polygon points="432,440 480,440 456,480" fill="#0d0d0d" opacity="0.4"/><polygon points="480,440 528,440 504,480" fill="#0d0d0d" opacity="0.2"/><polygon points="528,440 576,440 552,480" fill="#c0392b" opacity="0.9"/><polygon points="576,440 624,440 600,480" fill="#0d0d0d" opacity="0.4"/><polygon points="624,440 672,440 648,480" fill="#0d0d0d" opacity="0.2"/><polygon points="672,440 720,440 696,480" fill="#0d0d0d" opacity="0.9"/><polygon points="720,440 768,440 744,480" fill="#c0392b" opacity="0.4"/><polygon points="768,440 816,440 792,480" fill="#0d0d0d" opacity="0.2"/><polygon points="816,440 864,440 840,480" fill="#0d0d0d" opacity="0.9"/><polygon points="864,440 912,440 888,480" fill="#0d0d0d" opacity="0.4"/><polygon points="912,440 960,440 936,480" fill="#c0392b" opacity="0.2"/><polygon points="960,440 1008,440 984,480" fill="#0d0d0d" opacity="0.9"/><polygon points="1008,440 1056,440 1032,480" fill="#0d0d0d" opacity="0.4"/><polygon points="1056,440 1104,440 1080,480" fill="#0d0d0d" opacity="0.2"/><polygon points="1104,440 1152,440 1128,480" fill="#c0392b" opacity="0.9"/><polygon points="1152,440 1200,440 1176,480" fill="#0d0d0d" opacity="0.4"/><polygon points="1200,440 1248,440 1224,480" fill="#0d0d0d" opacity="0.2"/><polygon points="-24,480 24,480 0,520" fill="#0d0d0d" opacity="0.4"/><polygon points="24,480 72,480 48,520" fill="#0d0d0d" opacity="0.2"/><polygon points="72,480 120,480 96,520" fill="#0d0d0d" opacity="0.9"/><polygon points="120,480 168,480 144,520" fill="#c0392b" opacity="0.4"/><polygon points="168,480 216,480 192,520" fill="#0d0d0d" opacity="0.2"/><polygon points="216,480 264,480 240,520" fill="#0d0d0d" opacity="0.9"/><polygon points="264,480 312,480 288,520" fill="#0d0d0d" opacity="0.4"/><polygon points="312,480 360,480 336,520" fill="#c0392b" opacity="0.2"/><polygon points="360,480 408,480 384,520" fill="#0d0d0d" opacity="0.9"/><polygon points="408,480 456,480 432,520" fill="#0d0d0d" opacity="0.4"/><polygon points="456,480 504,480 480,520" fill="#0d0d0d" opacity="0.2"/><polygon points="504,480 552,480 528,520" fill="#c0392b" opacity="0.9"/><polygon points="552,480 600,480 576,520" fill="#0d0d0d" opacity="0.4"/><polygon points="600,480 648,480 624,520" fill="#0d0d0d" opacity="0.2"/><polygon points="648,480 696,480 672,520" fill="#0d0d0d" opacity="0.9"/><polygon points="696,480 744,480 720,520" fill="#c0392b" opacity="0.4"/><polygon points="744,480 792,480 768,520" fill="#0d0d0d" opacity="0.2"/><polygon points="792,480 840,480 816,520" fill="#0d0d0d" opacity="0.9"/><polygon points="840,480 888,480 864,520" fill="#0d0d0d" opacity="0.4"/><polygon points="888,480 936,480 912,520" fill="#c0392b" opacity="0.2"/><polygon points="936,480 984,480 960,520" fill="#0d0d0d" opacity="0.9"/><polygon points="984,480 1032,480 1008,520" fill="#0d0d0d" opacity="0.4"/><polygon points="1032,480 1080,480 1056,520" fill="#0d0d0d" opacity="0.2"/><polygon points="1080,480 1128,480 1104,520" fill="#c0392b" opacity="0.9"/><polygon points="1128,480 1176,480 1152,520" fill="#0d0d0d" opacity="0.4"/><polygon points="1176,480 1224,480 1200,520" fill="#0d0d0d" opacity="0.2"/><polygon points="1224,480 1272,480 1248,520" fill="#0d0d0d" opacity="0.9"/><polygon points="-48,520 0,520 -24,560" fill="#0d0d0d" opacity="0.2"/><polygon points="0,520 48,520 24,560" fill="#0d0d0d" opacity="0.9"/><polygon points="48,520 96,520 72,560" fill="#c0392b" opacity="0.4"/><polygon points="96,520 144,520 120,560" fill="#0d0d0d" opacity="0.2"/><polygon points="144,520 192,520 168,560" fill="#0d0d0d" opacity="0.9"/><polygon points="192,520 240,520 216,560" fill="#0d0d0d" opacity="0.4"/><polygon points="240,520 288,520 264,560" fill="#c0392b" opacity="0.2"/><polygon points="288,520 336,520 312,560" fill="#0d0d0d" opacity="0.9"/><polygon points="336,520 384,520 360,560" fill="#0d0d0d" opacity="0.4"/><polygon points="384,520 432,520 408,560" fill="#0d0d0d" opacity="0.2"/><polygon points="432,520 480,520 456,560" fill="#c0392b" opacity="0.9"/><polygon points="480,520 528,520 504,560" fill="#0d0d0d" opacity="0.4"/><polygon points="528,520 576,520 552,560" fill="#0d0d0d" opacity="0.2"/><polygon points="576,520 624,520 600,560" fill="#0d0d0d" opacity="0.9"/><polygon points="624,520 672,520 648,560" fill="#c0392b" opacity="0.4"/><polygon points="672,520 720,520 696,560" fill="#0d0d0d" opacity="0.2"/><polygon points="720,520 768,520 744,560" fill="#0d0d0d" opacity="0.9"/><polygon points="768,520 816,520 792,560" fill="#0d0d0d" opacity="0.4"/><polygon points="816,520 864,520 840,560" fill="#c0392b" opacity="0.2"/><polygon points="864,520 912,520 888,560" fill="#0d0d0d" opacity="0.9"/><polygon points="912,520 960,520 936,560" fill="#0d0d0d" opacity="0.4"/><polygon points="960,520 1008,520 984,560" fill="#0d0d0d" opacity="0.2"/><polygon points="1008,520 1056,520 1032,560" fill="#c0392b" opacity="0.9"/><polygon points="1056,520 1104,520 1080,560" fill="#0d0d0d" opacity="0.4"/><polygon points="1104,520 1152,520 1128,560" fill="#0d0d0d" opacity="0.2"/><polygon points="1152,520 1200,520 1176,560" fill="#0d0d0d" opacity="0.9"/><polygon points="1200,520 1248,520 1224,560" fill="#c0392b" opacity="0.4"/><polygon points="-24,560 24,560 0,600" fill="#0d0d0d" opacity="0.9"/><polygon points="24,560 72,560 48,600" fill="#c0392b" opacity="0.4"/><polygon points="72,560 120,560 96,600" fill="#0d0d0d" opacity="0.2"/><polygon points="120,560 168,560 144,600" fill="#0d0d0d" opacity="0.9"/><polygon points="168,560 216,560 192,600" fill="#0d0d0d" opacity="0.4"/><polygon points="216,560 264,560 240,600" fill="#c0392b" opacity="0.2"/><polygon points="264,560 312,560 288,600" fill="#0d0d0d" opacity="0.9"/><polygon points="312,560 360,560 336,600" fill="#0d0d0d" opacity="0.4"/><polygon points="360,560 408,560 384,600" fill="#0d0d0d" opacity="0.2"/><polygon points="408,560 456,560 432,600" fill="#c0392b" opacity="0.9"/><polygon points="456,560 504,560 480,600" fill="#0d0d0d" opacity="0.4"/><polygon points="504,560 552,560 528,600" fill="#0d0d0d" opacity="0.2"/><polygon points="552,560 600,560 576,600" fill="#0d0d0d" opacity="0.9"/><polygon points="600,560 648,560 624,600" fill="#c0392b" opacity="0.4"/><polygon points="648,560 696,560 672,600" fill="#0d0d0d" opacity="0.2"/><polygon points="696,560 744,560 720,600" fill="#0d0d0d" opacity="0.9"/><polygon points="744,560 792,560 768,600" fill="#0d0d0d" opacity="0.4"/><polygon points="792,560 840,560 816,600" fill="#c0392b" opacity="0.2"/><polygon points="840,560 888,560 864,600" fill="#0d0d0d" opacity="0.9"/><polygon points="888,560 936,560 912,600" fill="#0d0d0d" opacity="0.4"/><polygon points="936,560 984,560 960,600" fill="#0d0d0d" opacity="0.2"/><polygon points="984,560 1032,560 1008,600" fill="#c0392b" opacity="0.9"/><polygon points="1032,560 1080,560 1056,600" fill="#0d0d0d" opacity="0.4"/><polygon points="1080,560 1128,560 1104,600" fill="#0d0d0d" opacity="0.2"/><polygon points="1128,560 1176,560 1152,600" fill="#0d0d0d" opacity="0.9"/><polygon points="1176,560 1224,560 1200,600" fill="#c0392b" opacity="0.4"/><polygon points="1224,560 1272,560 1248,600" fill="#0d0d0d" opacity="0.2"/><polygon points="-48,600 0,600 -24,640" fill="#c0392b" opacity="0.4"/><polygon points="0,600 48,600 24,640" fill="#0d0d0d" opacity="0.2"/><polygon points="48,600 96,600 72,640" fill="#0d0d0d" opacity="0.9"/><polygon points="96,600 144,600 120,640" fill="#0d0d0d" opacity="0.4"/><polygon points="144,600 192,600 168,640" fill="#c0392b" opacity="0.2"/><polygon points="192,600 240,600 216,640" fill="#0d0d0d" opacity="0.9"/><polygon points="240,600 288,600 264,640" fill="#0d0d0d" opacity="0.4"/><polygon points="288,600 336,600 312,640" fill="#0d0d0d" opacity="0.2"/><polygon points="336,600 384,600 360,640" fill="#c0392b" opacity="0.9"/><polygon points="384,600 432,600 408,640" fill="#0d0d0d" opacity="0.4"/><polygon points="432,600 480,600 456,640" fill="#0d0d0d" opacity="0.2"/><polygon points="480,600 528,600 504,640" fill="#0d0d0d" opacity="0.9"/><polygon points="528,600 576,600 552,640" fill="#c0392b" opacity="0.4"/><polygon points="576,600 624,600 600,640" fill="#0d0d0d" opacity="0.2"/><polygon points="624,600 672,600 648,640" fill="#0d0d0d" opacity="0.9"/><polygon points="672,600 720,600 696,640" fill="#0d0d0d" opacity="0.4"/><polygon points="720,600 768,600 744,640" fill="#c0392b" opacity="0.2"/><polygon points="768,600 816,600 792,640" fill="#0d0d0d" opacity="0.9"/><polygon points="816,600 864,600 840,640" fill="#0d0d0d" opacity="0.4"/><polygon points="864,600 912,600 888,640" fill="#0d0d0d" opacity="0.2"/><polygon points="912,600 960,600 936,640" fill="#c0392b" opacity="0.9"/><polygon points="960,600 1008,600 984,640" fill="#0d0d0d" opacity="0.4"/><polygon points="1008,600 1056,600 1032,640" fill="#0d0d0d" opacity="0.2"/><polygon points="1056,600 1104,600 1080,640" fill="#0d0d0d" opacity="0.9"/><polygon points="1104,600 1152,600 1128,640" fill="#c0392b" opacity="0.4"/><polygon points="1152,600 1200,600 1176,640" fill="#0d0d0d" opacity="0.2"/><polygon points="1200,600 1248,600 1224,640" fill="#0d0d0d" opacity="0.9"/><polygon points="-24,640 24,640 0,680" fill="#0d0d0d" opacity="0.2"/><polygon points="24,640 72,640 48,680" fill="#0d0d0d" opacity="0.9"/><polygon points="72,640 120,640 96,680" fill="#0d0d0d" opacity="0.4"/><polygon points="120,640 168,640 144,680" fill="#c0392b" opacity="0.2"/><polygon points="168,640 216,640 192,680" fill="#0d0d0d" opacity="0.9"/><polygon points="216,640 264,640 240,680" fill="#0d0d0d" opacity="0.4"/><polygon points="264,640 312,640 288,680" fill="#0d0d0d" opacity="0.2"/><polygon points="312,640 360,640 336,680" fill="#c0392b" opacity="0.9"/><polygon points="360,640 408,640 384,680" fill="#0d0d0d" opacity="0.4"/><polygon points="408,640 456,640 432,680" fill="#0d0d0d" opacity="0.2"/><polygon points="456,640 504,640 480,680" fill="#0d0d0d" opacity="0.9"/><polygon points="504,640 552,640 528,680" fill="#c0392b" opacity="0.4"/><polygon points="552,640 600,640 576,680" fill="#0d0d0d" opacity="0.2"/><polygon points="600,640 648,640 624,680" fill="#0d0d0d" opacity="0.9"/><polygon points="648,640 696,640 672,680" fill="#0d0d0d" opacity="0.4"/><polygon points="696,640 744,640 720,680" fill="#c0392b" opacity="0.2"/><polygon points="744,640 792,640 768,680" fill="#0d0d0d" opacity="0.9"/><polygon points="792,640 840,640 816,680" fill="#0d0d0d" opacity="0.4"/><polygon points="840,640 888,640 864,680" fill="#0d0d0d" opacity="0.2"/><polygon points="888,640 936,640 912,680" fill="#c0392b" opacity="0.9"/><polygon points="936,640 984,640 960,680" fill="#0d0d0d" opacity="0.4"/><polygon points="984,640 1032,640 1008,680" fill="#0d0d0d" opacity="0.2"/><polygon points="1032,640 1080,640 1056,680" fill="#0d0d0d" opacity="0.9"/><polygon points="1080,640 1128,640 1104,680" fill="#c0392b" opacity="0.4"/><polygon points="1128,640 1176,640 1152,680" fill="#0d0d0d" opacity="0.2"/><polygon points="1176,640 1224,640 1200,680" fill="#0d0d0d" opacity="0.9"/><polygon points="1224,640 1272,640 1248,680" fill="#0d0d0d" opacity="0.4"/><text x="600" y="667" font-family="Georgia,serif" font-size="22" fill="#f4f0e8" text-anchor="middle" opacity="0.6">Niho Taniwha</text></svg>