<svg xmlns="http://www.w3.org/2000/svg" width="800" height="800" viewBox="0 0 800 800"><title>Niho Taniwha — The Kiwi Dialectic</title><rect width="800" height="800" fill="#0d0d0d"/><polygon points="-48,-40 0,-40 -24,0" fill="#c0392b" opacity="0.9"/><polygon points="0,-40 48,-40 24,0" fill="#f4f0e8" opacity="0.4"/><polygon points="48,-40 96,-40 72,0" fill="#f4f0e8" opacity="0.2"/><polygon points="96,-40 144,-40 120,0" fill="#f4f0e8" opacity="0.9"/><polygon points="144,-40 192,-40 168,0" fill="#c0392b" opacity="0.4"/><polygon points="192,-40 240,-40 216,0" fill="#f4f0e8" opacity="0.2"/><polygon points="240,-40 288,-40 264,0" fill="#f4f0e8" opacity="0.9"/><polygon points="288,-40 336,-40 312,0" fill="#f4f0e8" opacity="0.4"/><polygon points="336,-40 384,-40 360,0" fill="#c0392b" opacity="0.2"/><polygon points="384,-40 432,-40 408,0" fill="#f4f0e8" opacity="0.9"/><polygon points="432,-40 480,-40 456,0" fill="#f4f0e8" opacity="0.4"/><polygon points="480,-40 528,-40 504,0" fill="#f4f0e8" opacity="0.2"/><polygon points="528,-40 576,-40 552,0" fill="#c0392b" opacity="0.9"/><polygon points="576,-40 624,-40 600,0" fill="#f4f0e8" opacity="0.4"/><polygon points="624,-40 672,-40 648,0" fill="#f4f0e8" opacity="0.2"/><polygon points="672,-40 720,-40 696,0" fill="#f4f0e8" opacity="0.9"/><polygon points="720,-40 768,-40 744,0" fill="#c0392b" opacity="0.4"/><polygon points="768,-40 816,-40 792,0" fill="#f4f0e8" opacity="0.2"/><polygon points="-24,0 24,0 0,40" fill="#f4f0e8" opacity="0.4"/><polygon points="24,0 72,0 48,40" fill="#f4f0e8" opacity="0.2"/><polygon points="72,0 120,0 96,40" fill="#f4f0e8" opacity="0.9"/><polygon points="120,0 168,0 144,40" fill="#c0392b" opacity="0.4"/><polygon points="168,0 216,0 192,40" fill="#f4f0e8" opacity="0.2"/><polygon points="216,0 264,0 240,40" fill="#f4f0e8" opacity="0.9"/><polygon points="264,0 312,0 288,40" fill="#f4f0e8" opacity="0.4"/><polygon points="312,0 360,0 336,40" fill="#c0392b" opacity="0.2"/><polygon points="360,0 408,0 384,40" fill="#f4f0e8" opacity="0.9"/><polygon points="408,0 456,0 432,40" fill="#f4f0e8" opacity="0.4"/><polygon points="456,0 504,0 480,40" fill="#f4f0e8" opacity="0.2"/><polygon points="504,0 552,0 528,40" fill="#c0392b" opacity="0.9"/><polygon points="552,0 600,0 576,40" fill="#f4f0e8" opacity="0.4"/><polygon points="600,0 648,0 624,40" fill="#f4f0e8" opacity="0.2"/><polygon points="648,0 696,0 672,40" fill="#f4f0e8" opacity="0.9"/><polygon points="696,0 744,0 720,40" fill="#c0392b" opacity="0.4"/><polygon points="744,0 792,0 768,40" fill="#f4f0e8" opacity="0.2"/><polygon points="792,0 840,0 816,40" fill="#f4f0e8" opacity="0.9"/><polygon points="-48,40 0,40 -24,80" fill="#f4f0e8" opacity="0.2"/><polygon points="0,40 48,40 24,80" fill="#f4f0e8" opacity="0.9"/><polygon points="48,40 96,40 72,80" fill="#c0392b" opacity="0.4"/><polygon points="96,40 144,40 120,80" fill="#f4f0e8" opacity="0.2"/><polygon points="144,40 192,40 168,80" fill="#f4f0e8" opacity="0.9"/><polygon points="192,40 240,40 216,80" fill="#f4f0e8" opacity="0.4"/><polygon points="240,40 288,40 264,80" fill="#c0392b" opacity="0.2"/><polygon points="288,40 336,40 312,80" fill="#f4f0e8" opacity="0.9"/><polygon points="336,40 384,40 360,80" fill="#f4f0e8" opacity="0.4"/><polygon points="384,40 432,40 408,80" fill="#f4f0e8" opacity="0.2"/><polygon points="432,40 480,40 456,80" fill="#c0392b" opacity="0.9"/><polygon points="480,40 528,40 504,80" fill="#f4f0e8" opacity="0.4"/><polygon points="528,40 576,40 552,80" fill="#f4f0e8" opacity="0.2"/><polygon points="576,40 624,40 600,80" fill="#f4f0e8" opacity="0.9"/><polygon points="624,40 672,40 648,80" fill="#c0392b" opacity="0.4"/><polygon points="672,40 720,40 696,80" fill="#f4f0e8" opacity="0.2"/><polygon points="720,40 768,40 744,80" fill="#f4f0e8" opacity="0.9"/><polygon points="768,40 816,40 792,80" fill="#f4f0e8" opacity="0.4"/><polygon points="-24,80 24,80 0,120" fill="#f4f0e8" opacity="0.9"/><polygon points="24,80 72,80 48,120" fill="#c0392b" opacity="0.4"/><polygon points="72,80 120,80 96,120" fill="#f4f0e8" opacity="0.2"/><polygon points="120,80 168,80 144,120" fill="#f4f0e8" opacity="0.9"/><polygon points="168,80 216,80 192,120" fill="#f4f0e8" opacity="0.4"/><polygon points="216,80 264,80 240,120" fill="#c0392b" opacity="0.2"/><polygon points="264,80 312,80 288,120" fill="#f4f0e8" opacity="0.9"/><polygon points="312,80 360,80 336,120" fill="#f4f0e8" opacity="0.4"/><polygon points="360,80 408,80 384,120" fill="#f4f0e8" opacity="0.2"/><polygon points="408,80 456,80 432,120" fill="#c0392b" opacity="0.9"/><polygon points="456,80 504,80 480,120" fill="#f4f0e8" opacity="0.4"/><polygon points="504,80 552,80 528,120" fill="#f4f0e8" opacity="0.2"/><polygon points="552,80 600,80 576,120" fill="#f4f0e8" opacity="0.9"/><polygon points="600,80 648,80 624,120" fill="#c0392b" opacity="0.4"/><polygon points="648,80 696,80 672,120" fill="#f4f0e8" opacity="0.2"/><polygon points="696,80 744,80 720,120" fill="#f4f0e8" opacity="0.9"/><polygon points="744,80 792,80 768,120" fill="#f4f0e8" opacity="0.4"/><polygon points="792,80 840,80 816,120" fill="#c0392b" opacity="0.2"/><polygon points="-48,120 0,120 -24,160" fill="#c0392b" opacity="0.4"/><polygon points="0,120 48,120 24,160" fill="#f4f0e8" opacity="0.2"/><polygon points="48,120 96,120 72,160" fill="#f4f0e8" opacity="0.9"/><polygon points="96,120 144,120 120,160" fill="#f4f0e8" opacity="0.4"/><polygon points="144,120 192,120 168,160" fill="#c0392b" opacity="0.2"/><polygon points="192,120 240,120 216,160" fill="#f4f0e8" opacity="0.9"/><polygon points="240,120 288,120 264,160" fill="#f4f0e8" opacity="0.4"/><polygon points="288,120 336,120 312,160" fill="#f4f0e8" opacity="0.2"/><polygon points="336,120 384,120 360,160" fill="#c0392b" opacity="0.9"/><polygon points="384,120 432,120 408,160" fill="#f4f0e8" opacity="0.4"/><polygon points="432,120 480,120 456,160" fill="#f4f0e8" opacity="0.2"/><polygon points="480,120 528,120 504,160" fill="#f4f0e8" opacity="0.9"/><polygon points="528,120 576,120 552,160" fill="#c0392b" opacity="0.4"/><polygon points="576,120 624,120 600,160" fill="#f4f0e8" opacity="0.2"/><polygon points="624,120 672,120 648,160" fill="#f4f0e8" opacity="0.9"/><polygon points="672,120 720,120 696,160" fill="#f4f0e8" opacity="0.4"/><polygon points="720,120 768,120 744,160" fill="#c0392b" opacity="0.2"/><polygon points="768,120 816,120 792,160" fill="#f4f0e8" opacity="0.9"/><polygon points="-24,160 24,160 0,200" fill="#f4f0e8" opacity="0.2"/><polygon points="24,160 72,160 48,200" fill="#f4f0e8" opacity="0.9"/><polygon points="72,160 120,160 96,200" fill="#f4f0e8" opacity="0.4"/><polygon points="120,160 168,160 144,200" fill="#c0392b" opacity="0.2"/><polygon points="168,160 216,160 192,200" fill="#f4f0e8" opacity="0.9"/><polygon points="216,160 264,160 240,200" fill="#f4f0e8" opacity="0.4"/><polygon points="264,160 312,160 288,200" fill="#f4f0e8" opacity="0.2"/><polygon points="312,160 360,160 336,200" fill="#c0392b" opacity="0.9"/><polygon points="360,160 408,160 384,200" fill="#f4f0e8" opacity="0.4"/><polygon points="408,160 456,160 432,200" fill="#f4f0e8" opacity="0.2"/><polygon points="456,160 504,160 480,200" fill="#f4f0e8" opacity="0.9"/><polygon points="504,160 552,160 528,200" fill="#c0392b" opacity="0.4"/><polygon points="552,160 600,160 576,200" fill="#f4f0e8" opacity="0.2"/><polygon points="600,160 648,160 624,200" fill="#f4f0e8" opacity="0.9"/><polygon points="648,160 696,160 672,200" fill="#f4f0e8" opacity="0.4"/><polygon points="696,160 744,160 720,200" fill="#c0392b" opacity="0.2"/><polygon points="744,160 792,160 768,200" fill="#f4f0e8" opacity="0.9"/><polygon points="792,160 840,160 816,200" fill="#f4f0e8" opacity="0.4"/><polygon points="-48,200 0,200 -24,240" fill="#f4f0e8" opacity="0.9"/><polygon points="0,200 48,200 24,240" fill="#f4f0e8" opacity="0.4"/><polygon points="48,200 96,200 72,240" fill="#c0392b" opacity="0.2"/><polygon points="96,200 144,200 120,240" fill="#f4f0e8" opacity="0.9"/><polygon points="144,200 192,200 168,240" fill="#f4f0e8" opacity="0.4"/><polygon points="192,200 240,200 216,240" fill="#f4f0e8" opacity="0.2"/><polygon points="240,200 288,200 264,240" fill="#c0392b" opacity="0.9"/><polygon points="288,200 336,200 312,240" fill="#f4f0e8" opacity="0.4"/><polygon points="336,200 384,200 360,240" fill="#f4f0e8" opacity="0.2"/><polygon points="384,200 432,200 408,240" fill="#f4f0e8" opacity="0.9"/><polygon points="432,200 480,200 456,240" fill="#c0392b" opacity="0.4"/><polygon points="480,200 528,200 504,240" fill="#f4f0e8" opacity="0.2"/><polygon points="528,200 576,200 552,240" fill="#f4f0e8" opacity="0.9"/><polygon points="576,200 624,200 600,240" fill="#f4f0e8" opacity="0.4"/><polygon points="624,200 672,200 648,240" fill="#c0392b" opacity="0.2"/><polygon points="672,200 720,200 696,240" fill="#f4f0e8" opacity="0.9"/><polygon points="720,200 768,200 744,240" fill="#f4f0e8" opacity="0.4"/><polygon points="768,200 816,200 792,240" fill="#f4f0e8" opacity="0.2"/><polygon points="-24,240 24,240 0,280" fill="#f4f0e8" opacity="0.4"/><polygon points="24,240 72,240 48,280" fill="#c0392b" opacity="0.2"/><polygon points="72,240 120,240 96,280" fill="#f4f0e8" opacity="0.9"/><polygon points="120,240 168,240 144,280" fill="#f4f0e8" opacity="0.4"/><polygon points="168,240 216,240 192,280" fill="#f4f0e8" opacity="0.2"/><polygon points="216,240 264,240 240,280" fill="#c0392b" opacity="0.9"/><polygon points="264,240 312,240 288,280" fill="#f4f0e8" opacity="0.4"/><polygon points="312,240 360,240 336,280" fill="#f4f0e8" opacity="0.2"/><polygon points="360,240 408,240 384,280" fill="#f4f0e8" opacity="0.9"/><polygon points="408,240 456,240 432,280" fill="#c0392b" opacity="0.4"/><polygon points="456,240 504,240 480,280" fill="#f4f0e8" opacity="0.2"/><polygon points="504,240 552,240 528,280" fill="#f4f0e8" opacity="0.9"/><polygon points="552,240 600,240 576,280" fill="#f4f0e8" opacity="0.4"/><polygon points="600,240 648,240 624,280" fill="#c0392b" opacity="0.2"/><polygon points="648,240 696,240 672,280" fill="#f4f0e8" opacity="0.9"/><polygon points="696,240 744,240 720,280" fill="#f4f0e8" opacity="0.4"/><polygon points="744,240 792,240 768,280" fill="#f4f0e8" opacity="0.2"/><polygon points="792,240 840,240 816,280" fill="#c0392b" opacity="0.9"/><polygon points="-48,280 0,280 -24,320" fill="#c0392b" opacity="0.2"/><polygon points="0,280 48,280 24,320" fill="#f4f0e8" opacity="0.9"/><polygon points="48,280 96,280 72,320" fill="#f4f0e8" opacity="0.4"/><polygon points="96,280 144,280 120,320" fill="#f4f0e8" opacity="0.2"/><polygon points="144,280 192,280 168,320" fill="#c0392b" opacity="0.9"/><polygon points="192,280 240,280 216,320" fill="#f4f0e8" opacity="0.4"/><polygon points="240,280 288,280 264,320" fill="#f4f0e8" opacity="0.2"/><polygon points="288,280 336,280 312,320" fill="#f4f0e8" opacity="0.9"/><polygon points="336,280 384,280 360,320" fill="#c0392b" opacity="0.4"/><polygon points="384,280 432,280 408,320" fill="#f4f0e8" opacity="0.2"/><polygon points="432,280 480,280 456,320" fill="#f4f0e8" opacity="0.9"/><polygon points="480,280 528,280 504,320" fill="#f4f0e8" opacity="0.4"/><polygon points="528,280 576,280 552,320" fill="#c0392b" opacity="0.2"/><polygon points="576,280 624,280 600,320" fill="#f4f0e8" opacity="0.9"/><polygon points="624,280 672,280 648,320" fill="#f4f0e8" opacity="0.4"/><polygon points="672,280 720,280 696,320" fill="#f4f0e8" opacity="0.2"/><polygon points="720,280 768,280 744,320" fill="#c0392b" opacity="0.9"/><polygon points="768,280 816,280 792,320" fill="#f4f0e8" opacity="0.4"/><polygon points="-24,320 24,320 0,360" fill="#f4f0e8" opacity="0.9"/><polygon points="24,320 72,320 48,360" fill="#f4f0e8" opacity="0.4"/><polygon points="72,320 120,320 96,360" fill="#f4f0e8" opacity="0.2"/><polygon points="120,320 168,320 144,360" fill="#c0392b" opacity="0.9"/><polygon points="168,320 216,320 192,360" fill="#f4f0e8" opacity="0.4"/><polygon points="216,320 264,320 240,360" fill="#f4f0e8" opacity="0.2"/><polygon points="264,320 312,320 288,360" fill="#f4f0e8" opacity="0.9"/><polygon points="312,320 360,320 336,360" fill="#c0392b" opacity="0.4"/><polygon points="360,320 408,320 384,360" fill="#f4f0e8" opacity="0.2"/><polygon points="408,320 456,320 432,360" fill="#f4f0e8" opacity="0.9"/><polygon points="456,320 504,320 480,360" fill="#f4f0e8" opacity="0.4"/><polygon points="504,320 552,320 528,360" fill="#c0392b" opacity="0.2"/><polygon points="552,320 600,320 576,360" fill="#f4f0e8" opacity="0.9"/><polygon points="600,320 648,320 624,360" fill="#f4f0e8" opacity="0.4"/><polygon points="648,320 696,320 672,360" fill="#f4f0e8" opacity="0.2"/><polygon points="696,320 744,320 720,360" fill="#c0392b" opacity="0.9"/><polygon points="744,320 792,320 768,360" fill="#f4f0e8" opacity="0.4"/><polygon points="792,320 840,320 816,360" fill="#f4f0e8" opacity="0.2"/><polygon points="-48,360 0,360 -24,400" fill="#f4f0e8" opacity="0.4"/><polygon points="0,360 48,360 24,400" fill="#f4f0e8" opacity="0.2"/><polygon points="48,360 96,360 72,400" fill="#c0392b" opacity="0.9"/><polygon points="96,360 144,360 120,400" fill="#f4f0e8" opacity="0.4"/><polygon points="144,360 192,360 168,400" fill="#f4f0e8" opacity="0.2"/><polygon points="192,360 240,360 216,400" fill="#f4f0e8" opacity="0.9"/><polygon points="240,360 288,360 264,400" fill="#c0392b" opacity="0.4"/><polygon points="288,360 336,360 312,400" fill="#f4f0e8" opacity="0.2"/><polygon points="336,360 384,360 360,400" fill="#f4f0e8" opacity="0.9"/><polygon points="384,360 432,360 408,400" fill="#f4f0e8" opacity="0.4"/><polygon points="432,360 480,360 456,400" fill="#c0392b" opacity="0.2"/><polygon points="480,360 528,360 504,400" fill="#f4f0e8" opacity="0.9"/><polygon points="528,360 576,360 552,400" fill="#f4f0e8" opacity="0.4"/><polygon points="576,360 624,360 600,400" fill="#f4f0e8" opacity="0.2"/><polygon points="624,360 672,360 648,400" fill="#c0392b" opacity="0.9"/><polygon points="672,360 720,360 696,400" fill="#f4f0e8" opacity="0.4"/><polygon points="720,360 768,360 744,400" fill="#f4f0e8" opacity="0.2"/><polygon points="768,360 816,360 792,400" fill="#f4f0e8" opacity="0.9"/><polygon points="-24,400 24,400 0,440" fill="#f4f0e8" opacity="0.2"/><polygon points="24,400 72,400 48,440" fill="#c0392b" opacity="0.9"/><polygon points="72,400 120,400 96,440" fill="#f4f0e8" opacity="0.4"/><polygon points="120,400 168,400 144,440" fill="#f4f0e8" opacity="0.2"/><polygon points="168,400 216,400 192,440" fill="#f4f0e8" opacity="0.9"/><polygon points="216,400 264,400 240,440" fill="#c0392b" opacity="0.4"/><polygon points="264,400 312,400 288,440" fill="#f4f0e8" opacity="0.2"/><polygon points="312,400 360,400 336,440" fill="#f4f0e8" opacity="0.9"/><polygon points="360,400 408,400 384,440" fill="#f4f0e8" opacity="0.4"/><polygon points="408,400 456,400 432,440" fill="#c0392b" opacity="0.2"/><polygon points="456,400 504,400 480,440" fill="#f4f0e8" opacity="0.9"/><polygon points="504,400 552,400 528,440" fill="#f4f0e8" opacity="0.4"/><polygon points="552,400 600,400 576,440" fill="#f4f0e8" opacity="0.2"/><polygon points="600,400 648,400 624,440" fill="#c0392b" opacity="0.9"/><polygon points="648,400 696,400 672,440" fill="#f4f0e8" opacity="0.4"/><polygon points="696,400 744,400 720,440" fill="#f4f0e8" opacity="0.2"/><polygon points="744,400 792,400 768,440" fill="#f4f0e8" opacity="0.9"/><polygon points="792,400 840,400 816,440" fill="#c0392b" opacity="0.4"/><polygon points="-48,440 0,440 -24,480" fill="#c0392b" opacity="0.9"/><polygon points="0,440 48,440 24,480" fill="#f4f0e8" opacity="0.4"/><polygon points="48,440 96,440 72,480" fill="#f4f0e8" opacity="0.2"/><polygon points="96,440 144,440 120,480" fill="#f4f0e8" opacity="0.9"/><polygon points="144,440 192,440 168,480" fill="#c0392b" opacity="0.4"/><polygon points="192,440 240,440 216,480" fill="#f4f0e8" opacity="0.2"/><polygon points="240,440 288,440 264,480" fill="#f4f0e8" opacity="0.9"/><polygon points="288,440 336,440 312,480" fill="#f4f0e8" opacity="0.4"/><polygon points="336,440 384,440 360,480" fill="#c0392b" opacity="0.2"/><polygon points="384,440 432,440 408,480" fill="#f4f0e8" opacity="0.9"/><polygon points="432,440 480,440 456,480" fill="#f4f0e8" opacity="0.4"/><polygon points="480,440 528,440 504,480" fill="#f4f0e8" opacity="0.2"/><polygon points="528,440 576,440 552,480" fill="#c0392b" opacity="0.9"/><polygon points="576,440 624,440 600,480" fill="#f4f0e8" opacity="0.4"/><polygon points="624,440 672,440 648,480" fill="#f4f0e8" opacity="0.2"/><polygon points="672,440 720,440 696,480" fill="#f4f0e8" opacity="0.9"/><polygon points="720,440 768,440 744,480" fill="#c0392b" opacity="0.4"/><polygon points="768,440 816,440 792,480" fill="#f4f0e8" opacity="0.2"/><polygon points="-24,480 24,480 0,520" fill="#f4f0e8" opacity="0.4"/><polygon points="24,480 72,480 48,520" fill="#f4f0e8" opacity="0.2"/><polygon points="72,480 120,480 96,520" fill="#f4f0e8" opacity="0.9"/><polygon points="120,480 168,480 144,520" fill="#c0392b" opacity="0.4"/><polygon points="168,480 216,480 192,520" fill="#f4f0e8" opacity="0.2"/><polygon points="216,480 264,480 240,520" fill="#f4f0e8" opacity="0.9"/><polygon points="264,480 312,480 288,520" fill="#f4f0e8" opacity="0.4"/><polygon points="312,480 360,480 336,520" fill="#c0392b" opacity="0.2"/><polygon points="360,480 408,480 384,520" fill="#f4f0e8" opacity="0.9"/><polygon points="408,480 456,480 432,520" fill="#f4f0e8" opacity="0.4"/><polygon points="456,480 504,480 480,520" fill="#f4f0e8" opacity="0.2"/><polygon points="504,480 552,480 528,520" fill="#c0392b" opacity="0.9"/><polygon points="552,480 600,480 576,520" fill="#f4f0e8" opacity="0.4"/><polygon points="600,480 648,480 624,520" fill="#f4f0e8" opacity="0.2"/><polygon points="648,480 696,480 672,520" fill="#f4f0e8" opacity="0.9"/><polygon points="696,480 744,480 720,520" fill="#c0392b" opacity="0.4"/><polygon points="744,480 792,480 768,520" fill="#f4f0e8" opacity="0.2"/><polygon points="792,480 840,480 816,520" fill="#f4f0e8" opacity="0.9"/><polygon points="-48,520 0,520 -24,560" fill="#f4f0e8" opacity="0.2"/><polygon points="0,520 48,520 24,560" fill="#f4f0e8" opacity="0.9"/><polygon points="48,520 96,520 72,560" fill="#c0392b" opacity="0.4"/><polygon points="96,520 144,520 120,560" fill="#f4f0e8" opacity="0.2"/><polygon points="144,520 192,520 168,560" fill="#f4f0e8" opacity="0.9"/><polygon points="192,520 240,520 216,560" fill="#f4f0e8" opacity="0.4"/><polygon points="240,520 288,520 264,560" fill="#c0392b" opacity="0.2"/><polygon points="288,520 336,520 312,560" fill="#f4f0e8" opacity="0.9"/><polygon points="336,520 384,520 360,560" fill="#f4f0e8" opacity="0.4"/><polygon points="384,520 432,520 408,560" fill="#f4f0e8" opacity="0.2"/><polygon points="432,520 480,520 456,560" fill="#c0392b" opacity="0.9"/><polygon points="480,520 528,520 504,560" fill="#f4f0e8" opacity="0.4"/><polygon points="528,520 576,520 552,560" fill="#f4f0e8" opacity="0.2"/><polygon points="576,520 624,520 600,560" fill="#f4f0e8" opacity="0.9"/><polygon points="624,520 672,520 648,560" fill="#c0392b" opacity="0.4"/><polygon points="672,520 720,520 696,560" fill="#f4f0e8" opacity="0.2"/><polygon points="720,520 768,520 744,560" fill="#f4f0e8" opacity="0.9"/><polygon points="768,520 816,520 792,560" fill="#f4f0e8" opacity="0.4"/><polygon points="-24,560 24,560 0,600" fill="#f4f0e8" opacity="0.9"/><polygon points="24,560 72,560 48,600" fill="#c0392b" opacity="0.4"/><polygon points="72,560 120,560 96,600" fill="#f4f0e8" opacity="0.2"/><polygon points="120,560 168,560 144,600" fill="#f4f0e8" opacity="0.9"/><polygon points="168,560 216,560 192,600" fill="#f4f0e8" opacity="0.4"/><polygon points="216,560 264,560 240,600" fill="#c0392b" opacity="0.2"/><polygon points="264,560 312,560 288,600" fill="#f4f0e8" opacity="0.9"/><polygon points="312,560 360,560 336,600" fill="#f4f0e8" opacity="0.4"/><polygon points="360,560 408,560 384,600" fill="#f4f0e8" opacity="0.2"/><polygon points="408,560 456,560 432,600" fill="#c0392b" opacity="0.9"/><polygon points="456,560 504,560 480,600" fill="#f4f0e8" opacity="0.4"/><polygon points="504,560 552,560 528,600" fill="#f4f0e8" opacity="0.2"/><polygon points="552,560 600,560 576,600" fill="#f4f0e8" opacity="0.9"/><polygon points="600,560 648,560 624,600" fill="#c0392b" opacity="0.4"/><polygon points="648,560 696,560 672,600" fill="#f4f0e8" opacity="0.2"/><polygon points="696,560 744,560 720,600" fill="#f4f0e8" opacity="0.9"/><polygon points="744,560 792,560 768,600" fill="#f4f0e8" opacity="0.4"/><polygon points="792,560 840,560 816,600" fill="#c0392b" opacity="0.2"/><polygon points="-48,600 0,600 -24,640" fill="#c0392b" opacity="0.4"/><polygon points="0,600 48,600 24,640" fill="#f4f0e8" opacity="0.2"/><polygon points="48,600 96,600 72,640" fill="#f4f0e8" opacity="0.9"/><polygon points="96,600 144,600 120,640" fill="#f4f0e8" opacity="0.4"/><polygon points="144,600 192,600 168,640" fill="#c0392b" opacity="0.2"/><polygon points="192,600 240,600 216,640" fill="#f4f0e8" opacity="0.9"/><polygon points="240,600 288,600 264,640" fill="#f4f0e8" opacity="0.4"/><polygon points="288,600 336,600 312,640" fill="#f4f0e8" opacity="0.2"/><polygon points="336,600 384,600 360,640" fill="#c0392b" opacity="0.9"/><polygon points="384,600 432,600 408,640" fill="#f4f0e8" opacity="0.4"/><polygon points="432,600 480,600 456,640" fill="#f4f0e8" opacity="0.2"/><polygon points="480,600 528,600 504,640" fill="#f4f0e8" opacity="0.9"/><polygon points="528,600 576,600 552,640" fill="#c0392b" opacity="0.4"/><polygon points="576,600 624,600 600,640" fill="#f4f0e8" opacity="0.2"/><polygon points="624,600 672,600 648,640" fill="#f4f0e8" opacity="0.9"/><polygon points="672,600 720,600 696,640" fill="#f4f0e8" opacity="0.4"/><polygon points="720,600 768,600 744,640" fill="#c0392b" opacity="0.2"/><polygon points="768,600 816,600 792,640" fill="#f4f0e8" opacity="0.9"/><polygon points="-24,640 24,640 0,680" fill="#f4f0e8" opacity="0.2"/><polygon points="24,640 72,640 48,680" fill="#f4f0e8" opacity="0.9"/><polygon points="72,640 120,640 96,680" fill="#f4f0e8" opacity="0.4"/><polygon points="120,640 168,640 144,680" fill="#c0392b" opacity="0.2"/><polygon points="168,640 216,640 192,680" fill="#f4f0e8" opacity="0.9"/><polygon points="216,640 264,640 240,680" fill="#f4f0e8" opacity="0.4"/><polygon points="264,640 312,640 288,680" fill="#f4f0e8" opacity="0.2"/><polygon points="312,640 360,640 336,680" fill="#c0392b" opacity="0.9"/><polygon points="360,640 408,640 384,680" fill="#f4f0e8" opacity="0.4"/><polygon points="408,640 456,640 432,680" fill="#f4f0e8" opacity="0.2"/><polygon points="456,640 504,640 480,680" fill="#f4f0e8" opacity="0.9"/><polygon points="504,640 552,640 528,680" fill="#c0392b" opacity="0.4"/><polygon points="552,640 600,640 576,680" fill="#f4f0e8" opacity="0.2"/><polygon points="600,640 648,640 624,680" fill="#f4f0e8" opacity="0.9"/><polygon points="648,640 696,640 672,680" fill="#f4f0e8" opacity="0.4"/><polygon points="696,640 744,640 720,680" fill="#c0392b" opacity="0.2"/><polygon points="744,640 792,640 768,680" fill="#f4f0e8" opacity="0.9"/><polygon points="792,640 840,640 816,680" fill="#f4f0e8" opacity="0.4"/><polygon points="-48,680 0,680 -24,720" fill="#f4f0e8" opacity="0.9"/><polygon points="0,680 48,680 24,720" fill="#f4f0e8" opacity="0.4"/><polygon points="48,680 96,680 72,720" fill="#c0392b" opacity="0.2"/><polygon points="96,680 144,680 120,720" fill="#f4f0e8" opacity="0.9"/><polygon points="144,680 192,680 168,720" fill="#f4f0e8" opacity="0.4"/><polygon points="192,680 240,680 216,720" fill="#f4f0e8" opacity="0.2"/><polygon points="240,680 288,680 264,720" fill="#c0392b" opacity="0.9"/><polygon points="288,680 336,680 312,720" fill="#f4f0e8" opacity="0.4"/><polygon points="336,680 384,680 360,720" fill="#f4f0e8" opacity="0.2"/><polygon points="384,680 432,680 408,720" fill="#f4f0e8" opacity="0.9"/><polygon points="432,680 480,680 456,720" fill="#c0392b" opacity="0.4"/><polygon points="480,680 528,680 504,720" fill="#f4f0e8" opacity="0.2"/><polygon points="528,680 576,680 552,720" fill="#f4f0e8" opacity="0.9"/><polygon points="576,680 624,680 600,720" fill="#f4f0e8" opacity="0.4"/><polygon points="624,680 672,680 648,720" fill="#c0392b" opacity="0.2"/><polygon points="672,680 720,680 696,720" fill="#f4f0e8" opacity="0.9"/><polygon points="720,680 768,680 744,720" fill="#f4f0e8" opacity="0.4"/><polygon points="768,680 816,680 792,720" fill="#f4f0e8" opacity="0.2"/><polygon points="-24,720 24,720 0,760" fill="#f4f0e8" opacity="0.4"/><polygon points="24,720 72,720 48,760" fill="#c0392b" opacity="0.2"/><polygon points="72,720 120,720 96,760" fill="#f4f0e8" opacity="0.9"/><polygon points="120,720 168,720 144,760" fill="#f4f0e8" opacity="0.4"/><polygon points="168,720 216,720 192,760" fill="#f4f0e8" opacity="0.2"/><polygon points="216,720 264,720 240,760" fill="#c0392b" opacity="0.9"/><polygon points="264,720 312,720 288,760" fill="#f4f0e8" opacity="0.4"/><polygon points="312,720 360,720 336,760" fill="#f4f0e8" opacity="0.2"/><polygon points="360,720 408,720 384,760" fill="#f4f0e8" opacity="0.9"/><polygon points="408,720 456,720 432,760" fill="#c0392b" opacity="0.4"/><polygon points="456,720 504,720 480,760" fill="#f4f0e8" opacity="0.2"/><polygon points="504,720 552,720 528,760" fill="#f4f0e8" opacity="0.9"/><polygon points="552,720 600,720 576,760" fill="#f4f0e8" opacity="0.4"/><polygon points="600,720 648,720 624,760" fill="#c0392b" opacity="0.2"/><polygon points="648,720 696,720 672,760" fill="#f4f0e8" opacity="0.9"/><polygon points="696,720 744,720 720,760" fill="#f4f0e8" opacity="0.4"/><polygon points="744,720 792,720 768,760" fill="#f4f0e8" opacity="0.2"/><polygon points="792,720 840,720 816,760" fill="#c0392b" opacity="0.9"/><polygon points="-48,760 0,760 -24,800" fill="#c0392b" opacity="0.2"/><polygon points="0,760 48,760 24,800" fill="#f4f0e8" opacity="0.9"/><polygon points="48,760 96,760 72,800" fill="#f4f0e8" opacity="0.4"/><polygon points="96,760 144,760 120,800" fill="#f4f0e8" opacity="0.2"/><polygon points="144,760 192,760 168,800" fill="#c0392b" opacity="0.9"/><polygon points="192,760 240,760 216,800" fill="#f4f0e8" opacity="0.4"/><polygon points="240,760 288,760 264,800" fill="#f4f0e8" opacity="0.2"/><polygon points="288,760 336,760 312,800" fill="#f4f0e8" opacity="0.9"/><polygon points="336,760 384,760 360,800" fill="#c0392b" opacity="0.4"/><polygon points="384,760 432,760 408,800" fill="#f4f0e8" opacity="0.2"/><polygon points="432,760 480,760 456,800" fill="#f4f0e8" opacity="0.9"/><polygon points="480,760 528,760 504,800" fill="#f4f0e8" opacity="0.4"/><polygon points="528,760 576,760 552,800" fill="#c0392b" opacity="0.2"/><polygon points="576,760 624,760 600,800" fill="#f4f0e8" opacity="0.9"/><polygon points="624,760 672,760 648,800" fill="#f4f0e8" opacity="0.4"/><polygon points="672,760 720,760 696,800" fill="#f4f0e8" opacity="0.2"/><polygon points="720,760 768,760 744,800" fill="#c0392b" opacity="0.9"/><polygon points="768,760 816,760 792,800" fill="#f4f0e8" opacity="0.4"/><polygon points="-24,800 24,800 0,840" fill="#f4f0e8" opacity="0.9"/><polygon points="24,800 72,800 48,840" fill="#f4f0e8" opacity="0.4"/><polygon points="72,800 120,800 96,840" fill="#f4f0e8" opacity="0.2"/><polygon points="120,800 168,800 144,840" fill="#c0392b" opacity="0.9"/><polygon points="168,800 216,800 192,840" fill="#f4f0e8" opacity="0.4"/><polygon points="216,800 264,800 240,840" fill="#f4f0e8" opacity="0.2"/><polygon points="264,800 312,800 288,840" fill="#f4f0e8" opacity="0.9"/><polygon points="312,800 360,800 336,840" fill="#c0392b" opacity="0.4"/><polygon points="360,800 408,800 384,840" fill="#f4f0e8" opacity="0.2"/><polygon points="408,800 456,800 432,840" fill="#f4f0e8" opacity="0.9"/><polygon points="456,800 504,800 480,840" fill="#f4f0e8" opacity="0.4"/><polygon points="504,800 552,800 528,840" fill="#c0392b" opacity="0.2"/><polygon points="552,800 600,800 576,840" fill="#f4f0e8" opacity="0.9"/><polygon points="600,800 648,800 624,840" fill="#f4f0e8" opacity="0.4"/><polygon points="648,800 696,800 672,840" fill="#f4f0e8" opacity="0.2"/><polygon points="696,800 744,800 720,840" fill="#c0392b" opacity="0.9"/><polygon points="744,800 792,800 768,840" fill="#f4f0e8" opacity="0.4"/><polygon points="792,800 840,800 816,840" fill="#f4f0e8" opacity="0.2"/><text x="400" y="792" font-family="Georgia,serif" font-size="22" fill="#f4f0e8" text-anchor="middle" opacity="0.6">Niho Taniwha</text></svg>