<svg xmlns="http://www.w3.org/2000/svg" width="1200" height="675" viewBox="0 0 1200 675"><title>Pā Tūwatawata — The Kiwi Dialectic</title><rect width="1200" height="675" fill="#f4f0e8"/><circle cx="600" cy="337" r="283" fill="none" stroke="#0d0d0d" stroke-width="3.0" opacity="1.0"/><circle cx="600" cy="337" r="216" fill="none" stroke="#0d0d0d" stroke-width="2.5" opacity="0.75"/><circle cx="600" cy="337" r="148" fill="none" stroke="#0d0d0d" stroke-width="2.0" opacity="0.55"/><circle cx="600" cy="337" r="87" fill="none" stroke="#0d0d0d" stroke-width="1.5" opacity="0.4"/><line x1="867.0" y1="337.0" x2="893.0" y2="337.0" stroke="#c0392b" stroke-width="2.5" stroke-linecap="round"/><line x1="862.9" y1="383.4" x2="888.5" y2="387.9" stroke="#c0392b" stroke-width="2.5" stroke-linecap="round"/><line x1="850.9" y1="428.3" x2="875.3" y2="437.2" stroke="#c0392b" stroke-width="2.5" stroke-linecap="round"/><line x1="831.2" y1="470.5" x2="853.7" y2="483.5" stroke="#c0392b" stroke-width="2.5" stroke-linecap="round"/><line x1="804.5" y1="508.6" x2="824.5" y2="525.3" stroke="#c0392b" stroke-width="2.5" stroke-linecap="round"/><line x1="771.6" y1="541.5" x2="788.3" y2="561.5" stroke="#c0392b" stroke-width="2.5" stroke-linecap="round"/><line x1="733.5" y1="568.2" x2="746.5" y2="590.7" stroke="#c0392b" stroke-width="2.5" stroke-linecap="round"/><line x1="691.3" y1="587.9" x2="700.2" y2="612.3" stroke="#c0392b" stroke-width="2.5" stroke-linecap="round"/><line x1="646.4" y1="599.9" x2="650.9" y2="625.5" stroke="#c0392b" stroke-width="2.5" stroke-linecap="round"/><line x1="600.0" y1="604.0" x2="600.0" y2="630.0" stroke="#c0392b" stroke-width="2.5" stroke-linecap="round"/><line x1="553.6" y1="599.9" x2="549.1" y2="625.5" stroke="#c0392b" stroke-width="2.5" stroke-linecap="round"/><line x1="508.7" y1="587.9" x2="499.8" y2="612.3" stroke="#c0392b" stroke-width="2.5" stroke-linecap="round"/><line x1="466.5" y1="568.2" x2="453.5" y2="590.7" stroke="#c0392b" stroke-width="2.5" stroke-linecap="round"/><line x1="428.4" y1="541.5" x2="411.7" y2="561.5" stroke="#c0392b" stroke-width="2.5" stroke-linecap="round"/><line x1="395.5" y1="508.6" x2="375.5" y2="525.3" stroke="#c0392b" stroke-width="2.5" stroke-linecap="round"/><line x1="368.8" y1="470.5" x2="346.3" y2="483.5" stroke="#c0392b" stroke-width="2.5" stroke-linecap="round"/><line x1="349.1" y1="428.3" x2="324.7" y2="437.2" stroke="#c0392b" stroke-width="2.5" stroke-linecap="round"/><line x1="337.1" y1="383.4" x2="311.5" y2="387.9" stroke="#c0392b" stroke-width="2.5" stroke-linecap="round"/><line x1="333.0" y1="337.0" x2="307.0" y2="337.0" stroke="#c0392b" stroke-width="2.5" stroke-linecap="round"/><line x1="337.1" y1="290.6" x2="311.5" y2="286.1" stroke="#c0392b" stroke-width="2.5" stroke-linecap="round"/><line x1="349.1" y1="245.7" x2="324.7" y2="236.8" stroke="#c0392b" stroke-width="2.5" stroke-linecap="round"/><line x1="368.8" y1="203.5" x2="346.3" y2="190.5" stroke="#c0392b" stroke-width="2.5" stroke-linecap="round"/><line x1="395.5" y1="165.4" x2="375.5" y2="148.7" stroke="#c0392b" stroke-width="2.5" stroke-linecap="round"/><line x1="428.4" y1="132.5" x2="411.7" y2="112.5" stroke="#c0392b" stroke-width="2.5" stroke-linecap="round"/><line x1="466.5" y1="105.8" x2="453.5" y2="83.3" stroke="#c0392b" stroke-width="2.5" stroke-linecap="round"/><line x1="508.7" y1="86.1" x2="499.8" y2="61.7" stroke="#c0392b" stroke-width="2.5" stroke-linecap="round"/><line x1="553.6" y1="74.1" x2="549.1" y2="48.5" stroke="#c0392b" stroke-width="2.5" stroke-linecap="round"/><line x1="600.0" y1="70.0" x2="600.0" y2="44.0" stroke="#c0392b" stroke-width="2.5" stroke-linecap="round"/><line x1="646.4" y1="74.1" x2="650.9" y2="48.5" stroke="#c0392b" stroke-width="2.5" stroke-linecap="round"/><line x1="691.3" y1="86.1" x2="700.2" y2="61.7" stroke="#c0392b" stroke-width="2.5" stroke-linecap="round"/><line x1="733.5" y1="105.8" x2="746.5" y2="83.3" stroke="#c0392b" stroke-width="2.5" stroke-linecap="round"/><line x1="771.6" y1="132.5" x2="788.3" y2="112.5" stroke="#c0392b" stroke-width="2.5" stroke-linecap="round"/><line x1="804.5" y1="165.4" x2="824.5" y2="148.7" stroke="#c0392b" stroke-width="2.5" stroke-linecap="round"/><line x1="831.2" y1="203.5" x2="853.7" y2="190.5" stroke="#c0392b" stroke-width="2.5" stroke-linecap="round"/><line x1="850.9" y1="245.7" x2="875.3" y2="236.8" stroke="#c0392b" stroke-width="2.5" stroke-linecap="round"/><line x1="862.9" y1="290.6" x2="888.5" y2="286.1" stroke="#c0392b" stroke-width="2.5" stroke-linecap="round"/><rect x="578" y="612" width="44" height="32" fill="#f4f0e8" stroke="#c0392b" stroke-width="2"/><text x="600" y="667" font-family="Georgia,serif" font-size="22" fill="#0d0d0d" text-anchor="middle" opacity="0.5">Pā Tūwatawata</text></svg>