<svg xmlns="http://www.w3.org/2000/svg" width="800" height="800" viewBox="0 0 800 800"><title>Pā Tūwatawata — The Kiwi Dialectic</title><rect width="800" height="800" fill="#f4f0e8"/><circle cx="400" cy="400" r="336" fill="none" stroke="#0d0d0d" stroke-width="3.0" opacity="1.0"/><circle cx="400" cy="400" r="256" fill="none" stroke="#0d0d0d" stroke-width="2.5" opacity="0.75"/><circle cx="400" cy="400" r="176" fill="none" stroke="#0d0d0d" stroke-width="2.0" opacity="0.55"/><circle cx="400" cy="400" r="104" fill="none" stroke="#0d0d0d" stroke-width="1.5" opacity="0.4"/><line x1="720.0" y1="400.0" x2="746.0" y2="400.0" stroke="#c0392b" stroke-width="2.5" stroke-linecap="round"/><line x1="715.1" y1="455.6" x2="740.7" y2="460.1" stroke="#c0392b" stroke-width="2.5" stroke-linecap="round"/><line x1="700.7" y1="509.4" x2="725.1" y2="518.3" stroke="#c0392b" stroke-width="2.5" stroke-linecap="round"/><line x1="677.1" y1="560.0" x2="699.6" y2="573.0" stroke="#c0392b" stroke-width="2.5" stroke-linecap="round"/><line x1="645.1" y1="605.7" x2="665.1" y2="622.4" stroke="#c0392b" stroke-width="2.5" stroke-linecap="round"/><line x1="605.7" y1="645.1" x2="622.4" y2="665.1" stroke="#c0392b" stroke-width="2.5" stroke-linecap="round"/><line x1="560.0" y1="677.1" x2="573.0" y2="699.6" stroke="#c0392b" stroke-width="2.5" stroke-linecap="round"/><line x1="509.4" y1="700.7" x2="518.3" y2="725.1" stroke="#c0392b" stroke-width="2.5" stroke-linecap="round"/><line x1="455.6" y1="715.1" x2="460.1" y2="740.7" stroke="#c0392b" stroke-width="2.5" stroke-linecap="round"/><line x1="400.0" y1="720.0" x2="400.0" y2="746.0" stroke="#c0392b" stroke-width="2.5" stroke-linecap="round"/><line x1="344.4" y1="715.1" x2="339.9" y2="740.7" stroke="#c0392b" stroke-width="2.5" stroke-linecap="round"/><line x1="290.6" y1="700.7" x2="281.7" y2="725.1" stroke="#c0392b" stroke-width="2.5" stroke-linecap="round"/><line x1="240.0" y1="677.1" x2="227.0" y2="699.6" stroke="#c0392b" stroke-width="2.5" stroke-linecap="round"/><line x1="194.3" y1="645.1" x2="177.6" y2="665.1" stroke="#c0392b" stroke-width="2.5" stroke-linecap="round"/><line x1="154.9" y1="605.7" x2="134.9" y2="622.4" stroke="#c0392b" stroke-width="2.5" stroke-linecap="round"/><line x1="122.9" y1="560.0" x2="100.4" y2="573.0" stroke="#c0392b" stroke-width="2.5" stroke-linecap="round"/><line x1="99.3" y1="509.4" x2="74.9" y2="518.3" stroke="#c0392b" stroke-width="2.5" stroke-linecap="round"/><line x1="84.9" y1="455.6" x2="59.3" y2="460.1" stroke="#c0392b" stroke-width="2.5" stroke-linecap="round"/><line x1="80.0" y1="400.0" x2="54.0" y2="400.0" stroke="#c0392b" stroke-width="2.5" stroke-linecap="round"/><line x1="84.9" y1="344.4" x2="59.3" y2="339.9" stroke="#c0392b" stroke-width="2.5" stroke-linecap="round"/><line x1="99.3" y1="290.6" x2="74.9" y2="281.7" stroke="#c0392b" stroke-width="2.5" stroke-linecap="round"/><line x1="122.9" y1="240.0" x2="100.4" y2="227.0" stroke="#c0392b" stroke-width="2.5" stroke-linecap="round"/><line x1="154.9" y1="194.3" x2="134.9" y2="177.6" stroke="#c0392b" stroke-width="2.5" stroke-linecap="round"/><line x1="194.3" y1="154.9" x2="177.6" y2="134.9" stroke="#c0392b" stroke-width="2.5" stroke-linecap="round"/><line x1="240.0" y1="122.9" x2="227.0" y2="100.4" stroke="#c0392b" stroke-width="2.5" stroke-linecap="round"/><line x1="290.6" y1="99.3" x2="281.7" y2="74.9" stroke="#c0392b" stroke-width="2.5" stroke-linecap="round"/><line x1="344.4" y1="84.9" x2="339.9" y2="59.3" stroke="#c0392b" stroke-width="2.5" stroke-linecap="round"/><line x1="400.0" y1="80.0" x2="400.0" y2="54.0" stroke="#c0392b" stroke-width="2.5" stroke-linecap="round"/><line x1="455.6" y1="84.9" x2="460.1" y2="59.3" stroke="#c0392b" stroke-width="2.5" stroke-linecap="round"/><line x1="509.4" y1="99.3" x2="518.3" y2="74.9" stroke="#c0392b" stroke-width="2.5" stroke-linecap="round"/><line x1="560.0" y1="122.9" x2="573.0" y2="100.4" stroke="#c0392b" stroke-width="2.5" stroke-linecap="round"/><line x1="605.7" y1="154.9" x2="622.4" y2="134.9" stroke="#c0392b" stroke-width="2.5" stroke-linecap="round"/><line x1="645.1" y1="194.3" x2="665.1" y2="177.6" stroke="#c0392b" stroke-width="2.5" stroke-linecap="round"/><line x1="677.1" y1="240.0" x2="699.6" y2="227.0" stroke="#c0392b" stroke-width="2.5" stroke-linecap="round"/><line x1="700.7" y1="290.6" x2="725.1" y2="281.7" stroke="#c0392b" stroke-width="2.5" stroke-linecap="round"/><line x1="715.1" y1="344.4" x2="740.7" y2="339.9" stroke="#c0392b" stroke-width="2.5" stroke-linecap="round"/><rect x="378" y="728" width="44" height="32" fill="#f4f0e8" stroke="#c0392b" stroke-width="2"/><text x="400" y="792" font-family="Georgia,serif" font-size="22" fill="#0d0d0d" text-anchor="middle" opacity="0.5">Pā Tūwatawata</text></svg>