<svg xmlns="http://www.w3.org/2000/svg" width="800" height="800" viewBox="0 0 800 800"><title>Takarangi — The Kiwi Dialectic</title><rect width="800" height="800" fill="#0d0d0d"/><circle cx="400" cy="400" r="319" fill="none" stroke="#f4f0e8" stroke-width="1.5" opacity="0.25"/><polyline points="704.00,400.00 703.21,413.34 701.83,426.62 699.87,439.80 697.34,452.86 694.25,465.77 690.59,478.52 686.38,491.07 681.63,503.40 676.35,515.49 670.56,527.31 664.26,538.85 657.46,550.09 650.20,560.99 642.47,571.55 634.30,581.74 625.70,591.54 616.69,600.94 607.30,609.92 597.54,618.46 587.42,626.55 576.98,634.18 566.23,641.32 555.19,647.97 543.89,654.12 532.35,659.76 520.60,664.87 508.65,669.46 496.53,673.51 484.27,677.01 471.88,679.96 459.40,682.36 446.85,684.21 434.25,685.50 421.62,686.23 409.00,686.41 396.41,686.03 383.86,685.10 371.39,683.62 359.02,681.59 346.77,679.03 334.67,675.93 322.74,672.31 311.00,668.18 299.47,663.54 288.18,658.41 277.14,652.79 266.38,646.71 255.92,640.17 245.78,633.18 235.97,625.77 226.51,617.95 217.42,609.74 208.72,601.15 200.42,592.20 192.53,582.91 185.08,573.29 178.07,563.38 171.52,553.19 165.43,542.73 159.82,532.04 154.69,521.13 150.06,510.03 145.93,498.75 142.30,487.33 139.19,475.77 136.60,464.11 134.52,452.37 132.97,440.58 131.94,428.74 131.43,416.90 131.45,405.06 131.98,393.26 133.03,381.52 134.60,369.86 136.67,358.29 139.25,346.86 142.32,335.56 145.88,324.44 149.92,313.50 154.43,302.77 159.40,292.27 164.81,282.02 170.66,272.04 176.94,262.34 183.62,252.95 190.69,243.87 198.14,235.14 205.96,226.75 214.12,218.74 222.61,211.10 231.42,203.86 240.51,197.03 249.88,190.62 259.50,184.64 269.36,179.10 279.43,174.01 289.70,169.38 300.14,165.21 310.74,161.51 321.47,158.29 332.30,155.56 343.23,153.30 354.22,151.53 365.26,150.26 376.32,149.47 387.38,149.16 398.43,149.35 409.43,150.02 420.37,151.18 431.23,152.81 441.98,154.91 452.61,157.48 463.10,160.51 473.42,163.99 483.55,167.92 493.49,172.28 503.20,177.06 512.68,182.26 521.89,187.85 530.83,193.84 539.49,200.20 547.83,206.92 555.86,213.99 563.55,221.39 570.89,229.11 577.87,237.12 584.48,245.42 590.70,253.98 596.53,262.80 601.95,271.84 606.96,281.09 611.55,290.53 615.70,300.15 619.42,309.92 622.70,319.82 625.54,329.84 627.92,339.95 629.85,350.14 631.33,360.37 632.35,370.65 632.92,380.93 633.04,391.21 632.70,401.46 631.91,411.67 630.68,421.81 629.00,431.86 626.89,441.81 624.35,451.63 621.38,461.31 618.00,470.83 614.21,480.17 610.01,489.32 605.43,498.25 600.48,506.95 595.15,515.41 589.47,523.61 583.45,531.53 577.09,539.16 570.43,546.49 563.46,553.50 556.20,560.18 548.68,566.52 540.90,572.51 532.88,578.14 524.64,583.39 516.19,588.27 507.56,592.76 498.75,596.86 489.80,600.56 480.71,603.85 471.51,606.73 462.20,609.20 452.83,611.24 443.39,612.87 433.91,614.08 424.41,614.87 414.90,615.24 405.41,615.19 395.95,614.72 386.55,613.84 377.21,612.54 367.96,610.84 358.82,608.74 349.80,606.24 340.92,603.36 332.19,600.09 323.64,596.45 315.28,592.45 307.12,588.09 299.18,583.39 291.48,578.35 284.02,572.99 276.82,567.33 269.89,561.36 263.25,555.11 256.91,548.59 250.88,541.81 245.16,534.79 239.78,527.54 234.73,520.08 230.02,512.42 225.67,504.58 221.68,496.58 218.06,488.43 214.80,480.14 211.92,471.74 209.42,463.25 207.31,454.67 205.57,446.03 204.23,437.35 203.27,428.63 202.70,419.90 202.51,411.18 202.71,402.48 203.29,393.82 204.25,385.21 205.58,376.68 207.29,368.23 209.36,359.89 211.79,351.68 214.57,343.59 217.70,335.66 221.17,327.89 224.97,320.31 229.08,312.91 233.51,305.73 238.24,298.76 243.26,292.03 248.55,285.55 254.12,279.32 259.93,273.35 265.99,267.67 272.28,262.27 278.78,257.17 285.49,252.37 292.38,247.88 299.44,243.72 306.66,239.88 314.02,236.37 321.51,233.20 329.11,230.37 336.81,227.88 344.59,225.75 352.44,223.96 360.33,222.53 368.26,221.45 376.21,220.72 384.16,220.34 392.09,220.32 400.00,220.64 407.86,221.31 415.67,222.33 423.40,223.68 431.04,225.37 438.58,227.39 446.00,229.74 453.29,232.40 460.44,235.37 467.43,238.65 474.25,242.22 480.88,246.08 487.32,250.22 493.55,254.62 499.56,259.28 505.35,264.19 510.89,269.33 516.19,274.70 521.24,280.28 526.01,286.06 530.52,292.03 534.74,298.17 538.68,304.48 542.32,310.93 545.66,317.52 548.71,324.23 551.44,331.05 553.86,337.96 555.97,344.95 557.76,352.01 559.24,359.11 560.39,366.26 561.23,373.42 561.75,380.60 561.95,387.77 561.83,394.91 561.40,402.03 560.66,409.09 559.60,416.10 558.25,423.03 556.59,429.87 554.64,436.61 552.40,443.24 549.88,449.74 547.09,456.11 544.02,462.32 540.69,468.38 537.11,474.26 533.28,479.96 529.22,485.47 524.94,490.77 520.44,495.87 515.73,500.74 510.83,505.39 505.74,509.80 500.48,513.97 495.06,517.89 489.49,521.55 483.78,524.96 477.94,528.09 472.00,530.96 465.95,533.55 459.81,535.87 453.60,537.90 447.32,539.65 441.00,541.12 434.64,542.30 428.25,543.20 421.85,543.81 415.45,544.13 409.07,544.18 402.71,543.94 396.39,543.42 390.13,542.62 383.92,541.56 377.79,540.22 371.75,538.62 365.80,536.76 359.96,534.65 354.24,532.28 348.66,529.68 343.21,526.84 337.91,523.78 332.77,520.49 327.80,517.00 323.00,513.30 318.40,509.40 313.98,505.32 309.76,501.07 305.76,496.64 301.96,492.06 298.39,487.34 295.04,482.48 291.92,477.49 289.03,472.39 286.38,467.19 283.98,461.90 281.82,456.52 279.91,451.07 278.25,445.57 276.83,440.02 275.67,434.43 274.77,428.82 274.11,423.20 273.71,417.57 273.55,411.95 273.65,406.36 273.99,400.79 274.57,395.27 275.40,389.80 276.46,384.39 277.76,379.06 279.29,373.81 281.04,368.66 283.01,363.61 285.19,358.67 287.58,353.85 290.17,349.16 292.95,344.61 295.92,340.20 299.08,335.95 302.40,331.86 305.88,327.94 309.53,324.19 313.31,320.62 317.24,317.24 321.30,314.05 325.47,311.05 329.76,308.26 334.14,305.67 338.62,303.28 343.18,301.11 347.81,299.15 352.51,297.41 357.25,295.88 362.04,294.57 366.86,293.48 371.71,292.61 376.56,291.95 381.42,291.52 386.27,291.30 391.10,291.30 395.91,291.51 400.68,291.94 405.40,292.57 410.08,293.41 414.68,294.45 419.22,295.68 423.68,297.12 428.04,298.74 432.32,300.54 436.48,302.53 440.54,304.68 444.47,307.01 448.29,309.49 451.96,312.13 455.51,314.92 458.90,317.85 462.15,320.91 465.24,324.10 468.17,327.40 470.94,330.82 473.54,334.34 475.97,337.95 478.23,341.65 480.31,345.42 482.21,349.27 483.92,353.18 485.45,357.13 486.80,361.14 487.96,365.17 488.94,369.24 489.73,373.32 490.33,377.41 490.74,381.50 490.98,385.59 491.03,389.66 490.90,393.71 490.59,397.72 490.10,401.70 489.44,405.63 488.61,409.50 487.62,413.31 486.46,417.06 485.14,420.72 483.67,424.31 482.05,427.80 480.28,431.20 478.37,434.50 476.33,437.69 474.16,440.77 471.87,443.73 469.47,446.58 466.95,449.29 464.33,451.87 461.61,454.32 458.81,456.63 455.92,458.80 452.95,460.83 449.91,462.71 446.82,464.44 443.66,466.02 440.46,467.45 437.22,468.72 433.94,469.84 430.64,470.81 427.32,471.62 423.99,472.28 420.65,472.79 417.32,473.14 413.99,473.34 410.68,473.39 407.39,473.29 404.14,473.05 400.91,472.66 397.73,472.13 394.60,471.47 391.52,470.67 388.51,469.73 385.55,468.67 382.67,467.49 379.87,466.18 377.14,464.76 374.50,463.23 371.95,461.60 369.50,459.86 367.14,458.03 364.89,456.11 362.74,454.10 360.70,452.01 358.76,449.85 356.95,447.61 355.25,445.32 353.66,442.97 352.20,440.57 350.85,438.12 349.63,435.64 348.53,433.12 347.56,430.57 346.71,428.00 345.98,425.42 345.37,422.83 344.89,420.23 344.53,417.64 344.29,415.05 344.17,412.48 344.16,409.93 344.27,407.40 344.50,404.89 344.83,402.43 345.28,400.00" fill="none" stroke="#f4f0e8" stroke-width="2.5" stroke-linecap="round"/><polyline points="96.00,400.00 96.79,413.34 98.17,426.62 100.13,439.80 102.66,452.86 105.75,465.77 109.41,478.52 113.62,491.07 118.37,503.40 123.65,515.49 129.44,527.31 135.74,538.85 142.54,550.09 149.80,560.99 157.53,571.55 165.70,581.74 174.30,591.54 183.31,600.94 192.70,609.92 202.46,618.46 212.58,626.55 223.02,634.18 233.77,641.32 244.81,647.97 256.11,654.12 267.65,659.76 279.40,664.87 291.35,669.46 303.47,673.51 315.73,677.01 328.12,679.96 340.60,682.36 353.15,684.21 365.75,685.50 378.38,686.23 391.00,686.41 403.59,686.03 416.14,685.10 428.61,683.62 440.98,681.59 453.23,679.03 465.33,675.93 477.26,672.31 489.00,668.18 500.53,663.54 511.82,658.41 522.86,652.79 533.62,646.71 544.08,640.17 554.22,633.18 564.03,625.77 573.49,617.95 582.58,609.74 591.28,601.15 599.58,592.20 607.47,582.91 614.92,573.29 621.93,563.38 628.48,553.19 634.57,542.73 640.18,532.04 645.31,521.13 649.94,510.03 654.07,498.75 657.70,487.33 660.81,475.77 663.40,464.11 665.48,452.37 667.03,440.58 668.06,428.74 668.57,416.90 668.55,405.06 668.02,393.26 666.97,381.52 665.40,369.86 663.33,358.29 660.75,346.86 657.68,335.56 654.12,324.44 650.08,313.50 645.57,302.77 640.60,292.27 635.19,282.02 629.34,272.04 623.06,262.34 616.38,252.95 609.31,243.87 601.86,235.14 594.04,226.75 585.88,218.74 577.39,211.10 568.58,203.86 559.49,197.03 550.12,190.62 540.50,184.64 530.64,179.10 520.57,174.01 510.30,169.38 499.86,165.21 489.26,161.51 478.53,158.29 467.70,155.56 456.77,153.30 445.78,151.53 434.74,150.26 423.68,149.47 412.62,149.16 401.57,149.35 390.57,150.02 379.63,151.18 368.77,152.81 358.02,154.91 347.39,157.48 336.90,160.51 326.58,163.99 316.45,167.92 306.51,172.28 296.80,177.06 287.32,182.26 278.11,187.85 269.17,193.84 260.51,200.20 252.17,206.92 244.14,213.99 236.45,221.39 229.11,229.11 222.13,237.12 215.52,245.42 209.30,253.98 203.47,262.80 198.05,271.84 193.04,281.09 188.45,290.53 184.30,300.15 180.58,309.92 177.30,319.82 174.46,329.84 172.08,339.95 170.15,350.14 168.67,360.37 167.65,370.65 167.08,380.93 166.96,391.21 167.30,401.46 168.09,411.67 169.32,421.81 171.00,431.86 173.11,441.81 175.65,451.63 178.62,461.31 182.00,470.83 185.79,480.17 189.99,489.32 194.57,498.25 199.52,506.95 204.85,515.41 210.53,523.61 216.55,531.53 222.91,539.16 229.57,546.49 236.54,553.50 243.80,560.18 251.32,566.52 259.10,572.51 267.12,578.14 275.36,583.39 283.81,588.27 292.44,592.76 301.25,596.86 310.20,600.56 319.29,603.85 328.49,606.73 337.80,609.20 347.17,611.24 356.61,612.87 366.09,614.08 375.59,614.87 385.10,615.24 394.59,615.19 404.05,614.72 413.45,613.84 422.79,612.54 432.04,610.84 441.18,608.74 450.20,606.24 459.08,603.36 467.81,600.09 476.36,596.45 484.72,592.45 492.88,588.09 500.82,583.39 508.52,578.35 515.98,572.99 523.18,567.33 530.11,561.36 536.75,555.11 543.09,548.59 549.12,541.81 554.84,534.79 560.22,527.54 565.27,520.08 569.98,512.42 574.33,504.58 578.32,496.58 581.94,488.43 585.20,480.14 588.08,471.74 590.58,463.25 592.69,454.67 594.43,446.03 595.77,437.35 596.73,428.63 597.30,419.90 597.49,411.18 597.29,402.48 596.71,393.82 595.75,385.21 594.42,376.68 592.71,368.23 590.64,359.89 588.21,351.68 585.43,343.59 582.30,335.66 578.83,327.89 575.03,320.31 570.92,312.91 566.49,305.73 561.76,298.76 556.74,292.03 551.45,285.55 545.88,279.32 540.07,273.35 534.01,267.67 527.72,262.27 521.22,257.17 514.51,252.37 507.62,247.88 500.56,243.72 493.34,239.88 485.98,236.37 478.49,233.20 470.89,230.37 463.19,227.88 455.41,225.75 447.56,223.96 439.67,222.53 431.74,221.45 423.79,220.72 415.84,220.34 407.91,220.32 400.00,220.64 392.14,221.31 384.33,222.33 376.60,223.68 368.96,225.37 361.42,227.39 354.00,229.74 346.71,232.40 339.56,235.37 332.57,238.65 325.75,242.22 319.12,246.08 312.68,250.22 306.45,254.62 300.44,259.28 294.65,264.19 289.11,269.33 283.81,274.70 278.76,280.28 273.99,286.06 269.48,292.03 265.26,298.17 261.32,304.48 257.68,310.93 254.34,317.52 251.29,324.23 248.56,331.05 246.14,337.96 244.03,344.95 242.24,352.01 240.76,359.11 239.61,366.26 238.77,373.42 238.25,380.60 238.05,387.77 238.17,394.91 238.60,402.03 239.34,409.09 240.40,416.10 241.75,423.03 243.41,429.87 245.36,436.61 247.60,443.24 250.12,449.74 252.91,456.11 255.98,462.32 259.31,468.38 262.89,474.26 266.72,479.96 270.78,485.47 275.06,490.77 279.56,495.87 284.27,500.74 289.17,505.39 294.26,509.80 299.52,513.97 304.94,517.89 310.51,521.55 316.22,524.96 322.06,528.09 328.00,530.96 334.05,533.55 340.19,535.87 346.40,537.90 352.68,539.65 359.00,541.12 365.36,542.30 371.75,543.20 378.15,543.81 384.55,544.13 390.93,544.18 397.29,543.94 403.61,543.42 409.87,542.62 416.08,541.56 422.21,540.22 428.25,538.62 434.20,536.76 440.04,534.65 445.76,532.28 451.34,529.68 456.79,526.84 462.09,523.78 467.23,520.49 472.20,517.00 477.00,513.30 481.60,509.40 486.02,505.32 490.24,501.07 494.24,496.64 498.04,492.06 501.61,487.34 504.96,482.48 508.08,477.49 510.97,472.39 513.62,467.19 516.02,461.90 518.18,456.52 520.09,451.07 521.75,445.57 523.17,440.02 524.33,434.43 525.23,428.82 525.89,423.20 526.29,417.57 526.45,411.95 526.35,406.36 526.01,400.79 525.43,395.27 524.60,389.80 523.54,384.39 522.24,379.06 520.71,373.81 518.96,368.66 516.99,363.61 514.81,358.67 512.42,353.85 509.83,349.16 507.05,344.61 504.08,340.20 500.92,335.95 497.60,331.86 494.12,327.94 490.47,324.19 486.69,320.62 482.76,317.24 478.70,314.05 474.53,311.05 470.24,308.26 465.86,305.67 461.38,303.28 456.82,301.11 452.19,299.15 447.49,297.41 442.75,295.88 437.96,294.57 433.14,293.48 428.29,292.61 423.44,291.95 418.58,291.52 413.73,291.30 408.90,291.30 404.09,291.51 399.32,291.94 394.60,292.57 389.92,293.41 385.32,294.45 380.78,295.68 376.32,297.12 371.96,298.74 367.68,300.54 363.52,302.53 359.46,304.68 355.53,307.01 351.71,309.49 348.04,312.13 344.49,314.92 341.10,317.85 337.85,320.91 334.76,324.10 331.83,327.40 329.06,330.82 326.46,334.34 324.03,337.95 321.77,341.65 319.69,345.42 317.79,349.27 316.08,353.18 314.55,357.13 313.20,361.14 312.04,365.17 311.06,369.24 310.27,373.32 309.67,377.41 309.26,381.50 309.02,385.59 308.97,389.66 309.10,393.71 309.41,397.72 309.90,401.70 310.56,405.63 311.39,409.50 312.38,413.31 313.54,417.06 314.86,420.72 316.33,424.31 317.95,427.80 319.72,431.20 321.63,434.50 323.67,437.69 325.84,440.77 328.13,443.73 330.53,446.58 333.05,449.29 335.67,451.87 338.39,454.32 341.19,456.63 344.08,458.80 347.05,460.83 350.09,462.71 353.18,464.44 356.34,466.02 359.54,467.45 362.78,468.72 366.06,469.84 369.36,470.81 372.68,471.62 376.01,472.28 379.35,472.79 382.68,473.14 386.01,473.34 389.32,473.39 392.61,473.29 395.86,473.05 399.09,472.66 402.27,472.13 405.40,471.47 408.48,470.67 411.49,469.73 414.45,468.67 417.33,467.49 420.13,466.18 422.86,464.76 425.50,463.23 428.05,461.60 430.50,459.86 432.86,458.03 435.11,456.11 437.26,454.10 439.30,452.01 441.24,449.85 443.05,447.61 444.75,445.32 446.34,442.97 447.80,440.57 449.15,438.12 450.37,435.64 451.47,433.12 452.44,430.57 453.29,428.00 454.02,425.42 454.63,422.83 455.11,420.23 455.47,417.64 455.71,415.05 455.83,412.48 455.84,409.93 455.73,407.40 455.50,404.89 455.17,402.43 454.72,400.00" fill="none" stroke="#c0392b" stroke-width="2.5" stroke-linecap="round"/><text x="400" y="792" font-family="Georgia,serif" font-size="22" fill="#f4f0e8" text-anchor="middle" opacity="0.5">Takarangi</text></svg>