<svg xmlns="http://www.w3.org/2000/svg" width="1200" height="675" viewBox="0 0 1200 675"><title>Takarangi — The Kiwi Dialectic</title><rect width="1200" height="675" fill="#f4f0e8"/><circle cx="600" cy="337" r="269" fill="none" stroke="#0d0d0d" stroke-width="1.5" opacity="0.25"/><polyline points="856.50,337.00 855.83,348.26 854.67,359.46 853.02,370.58 850.88,381.60 848.27,392.49 845.18,403.25 841.63,413.84 837.63,424.24 833.17,434.44 828.28,444.42 822.97,454.16 817.24,463.64 811.10,472.84 804.58,481.75 797.69,490.34 790.43,498.61 782.84,506.55 774.91,514.12 766.67,521.33 758.14,528.15 749.33,534.59 740.25,540.61 730.94,546.23 721.41,551.42 711.67,556.17 701.76,560.49 691.67,564.36 681.45,567.77 671.10,570.73 660.65,573.22 650.12,575.24 639.53,576.80 628.90,577.89 618.24,578.51 607.59,578.66 596.97,578.34 586.38,577.55 575.86,576.30 565.42,574.59 555.09,572.43 544.88,569.82 534.81,566.76 524.90,563.28 515.18,559.36 505.65,555.03 496.34,550.29 487.26,545.16 478.43,539.64 469.87,533.75 461.60,527.50 453.62,520.90 445.95,513.97 438.61,506.72 431.60,499.17 424.95,491.33 418.66,483.22 412.75,474.85 407.22,466.25 402.08,457.43 397.34,448.41 393.02,439.21 389.11,429.84 385.63,420.32 382.57,410.68 379.94,400.93 377.75,391.10 376.00,381.19 374.69,371.24 373.82,361.25 373.39,351.26 373.41,341.27 373.86,331.32 374.75,321.41 376.07,311.57 377.82,301.81 379.99,292.16 382.59,282.63 385.59,273.24 389.00,264.02 392.80,254.96 396.99,246.11 401.56,237.46 406.50,229.03 411.79,220.85 417.43,212.92 423.40,205.27 429.68,197.90 436.28,190.82 443.17,184.06 450.33,177.62 457.76,171.51 465.43,165.75 473.34,160.34 481.46,155.29 489.77,150.62 498.27,146.32 506.94,142.41 515.75,138.90 524.69,135.78 533.74,133.06 542.88,130.75 552.10,128.85 561.37,127.36 570.68,126.28 580.02,125.61 589.35,125.36 598.67,125.51 607.96,126.08 617.19,127.05 626.35,128.43 635.42,130.21 644.39,132.37 653.24,134.93 661.95,137.87 670.50,141.18 678.88,144.86 687.08,148.89 695.07,153.28 702.85,158.00 710.39,163.05 717.69,168.42 724.73,174.09 731.51,180.05 738.00,186.30 744.19,192.81 750.08,199.57 755.66,206.57 760.91,213.80 765.82,221.23 770.40,228.86 774.62,236.67 778.49,244.64 782.00,252.75 785.14,260.99 787.90,269.35 790.30,277.80 792.31,286.33 793.94,294.93 795.19,303.57 796.05,312.23 796.53,320.91 796.63,329.58 796.34,338.23 795.68,346.84 794.64,355.40 793.22,363.88 791.44,372.27 789.29,380.56 786.79,388.73 783.94,396.76 780.74,404.65 777.20,412.36 773.34,419.90 769.15,427.24 764.66,434.38 759.86,441.29 754.78,447.98 749.42,454.42 743.80,460.60 737.92,466.51 731.80,472.15 725.45,477.50 718.88,482.55 712.11,487.30 705.16,491.74 698.03,495.86 690.75,499.64 683.32,503.10 675.77,506.22 668.10,509.00 660.33,511.43 652.49,513.51 644.57,515.24 636.61,516.61 628.61,517.63 620.59,518.30 612.57,518.61 604.56,518.57 596.58,518.17 588.65,517.42 580.77,516.33 572.97,514.90 565.25,513.12 557.64,511.02 550.15,508.58 542.79,505.83 535.57,502.76 528.52,499.38 521.63,495.70 514.93,491.73 508.43,487.48 502.14,482.96 496.06,478.18 490.22,473.15 484.62,467.87 479.27,462.37 474.18,456.65 469.36,450.73 464.81,444.61 460.55,438.32 456.58,431.85 452.91,425.24 449.54,418.49 446.48,411.61 443.74,404.62 441.31,397.53 439.20,390.37 437.41,383.13 435.95,375.84 434.82,368.51 434.01,361.16 433.52,353.79 433.37,346.43 433.53,339.09 434.02,331.78 434.83,324.52 435.96,317.32 437.40,310.20 439.15,303.16 441.20,296.23 443.54,289.41 446.19,282.71 449.11,276.16 452.32,269.76 455.79,263.52 459.53,257.46 463.52,251.58 467.75,245.90 472.22,240.43 476.91,235.17 481.82,230.14 486.93,225.34 492.24,220.79 497.72,216.48 503.38,212.44 509.19,208.65 515.15,205.14 521.24,201.90 527.45,198.94 533.77,196.26 540.19,193.87 546.68,191.78 553.25,189.97 559.87,188.47 566.53,187.26 573.22,186.34 579.92,185.73 586.63,185.41 593.33,185.39 600.00,185.66 606.64,186.23 613.22,187.09 619.74,188.23 626.19,189.66 632.55,191.36 638.82,193.34 644.97,195.59 651.00,198.10 656.89,200.86 662.64,203.87 668.24,207.13 673.67,210.62 678.93,214.33 684.01,218.27 688.89,222.41 693.57,226.75 698.04,231.28 702.29,235.98 706.32,240.86 710.12,245.90 713.69,251.08 717.01,256.40 720.08,261.85 722.90,267.41 725.47,273.07 727.78,278.82 729.82,284.65 731.60,290.55 733.11,296.51 734.36,302.50 735.33,308.53 736.04,314.58 736.47,320.63 736.64,326.68 736.54,332.71 736.18,338.71 735.55,344.67 734.67,350.58 733.52,356.43 732.13,362.20 730.48,367.89 728.59,373.48 726.46,378.97 724.10,384.34 721.52,389.58 718.71,394.69 715.69,399.66 712.46,404.47 709.03,409.11 705.42,413.59 701.62,417.89 697.65,422.00 693.51,425.92 689.22,429.65 684.78,433.16 680.21,436.47 675.50,439.56 670.69,442.43 665.77,445.08 660.75,447.50 655.64,449.69 650.47,451.64 645.22,453.35 639.93,454.83 634.59,456.07 629.22,457.07 623.84,457.82 618.44,458.34 613.04,458.61 607.65,458.65 602.29,458.45 596.96,458.01 591.67,457.34 586.43,456.44 581.26,455.31 576.16,453.96 571.14,452.39 566.22,450.61 561.39,448.61 556.68,446.42 552.08,444.02 547.61,441.44 543.27,438.67 539.08,435.71 535.04,432.59 531.15,429.31 527.42,425.86 523.86,422.27 520.48,418.54 517.28,414.68 514.26,410.69 511.44,406.59 508.80,402.39 506.37,398.08 504.14,393.69 502.11,389.23 500.29,384.69 498.67,380.09 497.27,375.45 496.08,370.77 495.10,366.05 494.33,361.32 493.78,356.57 493.44,351.82 493.31,347.09 493.39,342.36 493.68,337.67 494.17,333.01 494.87,328.39 495.77,323.83 496.86,319.33 498.15,314.90 499.62,310.55 501.29,306.29 503.13,302.12 505.14,298.06 507.33,294.10 509.68,290.26 512.19,286.55 514.84,282.96 517.65,279.51 520.59,276.20 523.66,273.04 526.86,270.03 530.17,267.17 533.59,264.48 537.12,261.95 540.73,259.59 544.43,257.41 548.21,255.40 552.06,253.56 555.97,251.91 559.93,250.44 563.93,249.15 567.97,248.04 572.04,247.12 576.13,246.39 580.22,245.84 584.32,245.47 588.41,245.29 592.49,245.28 596.55,245.46 600.57,245.82 604.56,246.35 608.50,247.06 612.39,247.94 616.22,248.98 619.98,250.19 623.66,251.56 627.27,253.08 630.78,254.76 634.20,256.58 637.53,258.54 640.74,260.63 643.85,262.86 646.83,265.21 649.70,267.68 652.44,270.27 655.05,272.96 657.52,275.75 659.86,278.63 662.05,281.60 664.10,284.64 666.01,287.76 667.76,290.95 669.36,294.20 670.81,297.49 672.10,300.83 673.24,304.21 674.22,307.62 675.04,311.04 675.71,314.49 676.21,317.94 676.57,321.39 676.76,324.84 676.81,328.28 676.69,331.69 676.43,335.08 676.02,338.43 675.47,341.75 674.77,345.02 673.93,348.23 672.95,351.39 671.84,354.49 670.59,357.51 669.23,360.46 667.74,363.33 666.13,366.11 664.41,368.80 662.58,371.40 660.64,373.90 658.61,376.30 656.49,378.59 654.28,380.77 651.99,382.83 649.62,384.78 647.18,386.61 644.68,388.32 642.12,389.91 639.50,391.37 636.84,392.70 634.14,393.91 631.40,394.98 628.64,395.93 625.85,396.75 623.05,397.43 620.24,397.99 617.42,398.41 614.61,398.71 611.80,398.88 609.01,398.92 606.24,398.84 603.49,398.64 600.77,398.31 598.09,397.86 595.44,397.30 592.85,396.62 590.30,395.84 587.81,394.94 585.38,393.94 583.01,392.84 580.71,391.64 578.49,390.35 576.34,388.97 574.26,387.51 572.28,385.96 570.37,384.34 568.56,382.64 566.84,380.88 565.21,379.06 563.67,377.17 562.24,375.24 560.90,373.26 559.67,371.23 558.53,369.17 557.50,367.07 556.57,364.94 555.75,362.79 555.03,360.63 554.42,358.45 553.91,356.26 553.50,354.07 553.19,351.88 552.99,349.70 552.89,347.53 552.89,345.38 552.98,343.24 553.17,341.13 553.45,339.05 553.83,337.00" fill="none" stroke="#0d0d0d" stroke-width="2.5" stroke-linecap="round"/><polyline points="343.50,337.00 344.17,348.26 345.33,359.46 346.98,370.58 349.12,381.60 351.73,392.49 354.82,403.25 358.37,413.84 362.37,424.24 366.83,434.44 371.72,444.42 377.03,454.16 382.76,463.64 388.90,472.84 395.42,481.75 402.31,490.34 409.57,498.61 417.16,506.55 425.09,514.12 433.33,521.33 441.86,528.15 450.67,534.59 459.75,540.61 469.06,546.23 478.59,551.42 488.33,556.17 498.24,560.49 508.33,564.36 518.55,567.77 528.90,570.73 539.35,573.22 549.88,575.24 560.47,576.80 571.10,577.89 581.76,578.51 592.41,578.66 603.03,578.34 613.62,577.55 624.14,576.30 634.58,574.59 644.91,572.43 655.12,569.82 665.19,566.76 675.10,563.28 684.82,559.36 694.35,555.03 703.66,550.29 712.74,545.16 721.57,539.64 730.13,533.75 738.40,527.50 746.38,520.90 754.05,513.97 761.39,506.72 768.40,499.17 775.05,491.33 781.34,483.22 787.25,474.85 792.78,466.25 797.92,457.43 802.66,448.41 806.98,439.21 810.89,429.84 814.37,420.32 817.43,410.68 820.06,400.93 822.25,391.10 824.00,381.19 825.31,371.24 826.18,361.25 826.61,351.26 826.59,341.27 826.14,331.32 825.25,321.41 823.93,311.57 822.18,301.81 820.01,292.16 817.41,282.63 814.41,273.24 811.00,264.02 807.20,254.96 803.01,246.11 798.44,237.46 793.50,229.03 788.21,220.85 782.57,212.92 776.60,205.27 770.32,197.90 763.72,190.82 756.83,184.06 749.67,177.62 742.24,171.51 734.57,165.75 726.66,160.34 718.54,155.29 710.23,150.62 701.73,146.32 693.06,142.41 684.25,138.90 675.31,135.78 666.26,133.06 657.12,130.75 647.90,128.85 638.63,127.36 629.32,126.28 619.98,125.61 610.65,125.36 601.33,125.51 592.04,126.08 582.81,127.05 573.65,128.43 564.58,130.21 555.61,132.37 546.76,134.93 538.05,137.87 529.50,141.18 521.12,144.86 512.92,148.89 504.93,153.28 497.15,158.00 489.61,163.05 482.31,168.42 475.27,174.09 468.49,180.05 462.00,186.30 455.81,192.81 449.92,199.57 444.34,206.57 439.09,213.80 434.18,221.23 429.60,228.86 425.38,236.67 421.51,244.64 418.00,252.75 414.86,260.99 412.10,269.35 409.70,277.80 407.69,286.33 406.06,294.93 404.81,303.57 403.95,312.23 403.47,320.91 403.37,329.58 403.66,338.23 404.32,346.84 405.36,355.40 406.78,363.88 408.56,372.27 410.71,380.56 413.21,388.73 416.06,396.76 419.26,404.65 422.80,412.36 426.66,419.90 430.85,427.24 435.34,434.38 440.14,441.29 445.22,447.98 450.58,454.42 456.20,460.60 462.08,466.51 468.20,472.15 474.55,477.50 481.12,482.55 487.89,487.30 494.84,491.74 501.97,495.86 509.25,499.64 516.68,503.10 524.23,506.22 531.90,509.00 539.67,511.43 547.51,513.51 555.43,515.24 563.39,516.61 571.39,517.63 579.41,518.30 587.43,518.61 595.44,518.57 603.42,518.17 611.35,517.42 619.23,516.33 627.03,514.90 634.75,513.12 642.36,511.02 649.85,508.58 657.21,505.83 664.43,502.76 671.48,499.38 678.37,495.70 685.07,491.73 691.57,487.48 697.86,482.96 703.94,478.18 709.78,473.15 715.38,467.87 720.73,462.37 725.82,456.65 730.64,450.73 735.19,444.61 739.45,438.32 743.42,431.85 747.09,425.24 750.46,418.49 753.52,411.61 756.26,404.62 758.69,397.53 760.80,390.37 762.59,383.13 764.05,375.84 765.18,368.51 765.99,361.16 766.48,353.79 766.63,346.43 766.47,339.09 765.98,331.78 765.17,324.52 764.04,317.32 762.60,310.20 760.85,303.16 758.80,296.23 756.46,289.41 753.81,282.71 750.89,276.16 747.68,269.76 744.21,263.52 740.47,257.46 736.48,251.58 732.25,245.90 727.78,240.43 723.09,235.17 718.18,230.14 713.07,225.34 707.76,220.79 702.28,216.48 696.62,212.44 690.81,208.65 684.85,205.14 678.76,201.90 672.55,198.94 666.23,196.26 659.81,193.87 653.32,191.78 646.75,189.97 640.13,188.47 633.47,187.26 626.78,186.34 620.08,185.73 613.37,185.41 606.67,185.39 600.00,185.66 593.36,186.23 586.78,187.09 580.26,188.23 573.81,189.66 567.45,191.36 561.18,193.34 555.03,195.59 549.00,198.10 543.11,200.86 537.36,203.87 531.76,207.13 526.33,210.62 521.07,214.33 515.99,218.27 511.11,222.41 506.43,226.75 501.96,231.28 497.71,235.98 493.68,240.86 489.88,245.90 486.31,251.08 482.99,256.40 479.92,261.85 477.10,267.41 474.53,273.07 472.22,278.82 470.18,284.65 468.40,290.55 466.89,296.51 465.64,302.50 464.67,308.53 463.96,314.58 463.53,320.63 463.36,326.68 463.46,332.71 463.82,338.71 464.45,344.67 465.33,350.58 466.48,356.43 467.87,362.20 469.52,367.89 471.41,373.48 473.54,378.97 475.90,384.34 478.48,389.58 481.29,394.69 484.31,399.66 487.54,404.47 490.97,409.11 494.58,413.59 498.38,417.89 502.35,422.00 506.49,425.92 510.78,429.65 515.22,433.16 519.79,436.47 524.50,439.56 529.31,442.43 534.23,445.08 539.25,447.50 544.36,449.69 549.53,451.64 554.78,453.35 560.07,454.83 565.41,456.07 570.78,457.07 576.16,457.82 581.56,458.34 586.96,458.61 592.35,458.65 597.71,458.45 603.04,458.01 608.33,457.34 613.57,456.44 618.74,455.31 623.84,453.96 628.86,452.39 633.78,450.61 638.61,448.61 643.32,446.42 647.92,444.02 652.39,441.44 656.73,438.67 660.92,435.71 664.96,432.59 668.85,429.31 672.58,425.86 676.14,422.27 679.52,418.54 682.72,414.68 685.74,410.69 688.56,406.59 691.20,402.39 693.63,398.08 695.86,393.69 697.89,389.23 699.71,384.69 701.33,380.09 702.73,375.45 703.92,370.77 704.90,366.05 705.67,361.32 706.22,356.57 706.56,351.82 706.69,347.09 706.61,342.36 706.32,337.67 705.83,333.01 705.13,328.39 704.23,323.83 703.14,319.33 701.85,314.90 700.38,310.55 698.71,306.29 696.87,302.12 694.86,298.06 692.67,294.10 690.32,290.26 687.81,286.55 685.16,282.96 682.35,279.51 679.41,276.20 676.34,273.04 673.14,270.03 669.83,267.17 666.41,264.48 662.88,261.95 659.27,259.59 655.57,257.41 651.79,255.40 647.94,253.56 644.03,251.91 640.07,250.44 636.07,249.15 632.03,248.04 627.96,247.12 623.87,246.39 619.78,245.84 615.68,245.47 611.59,245.29 607.51,245.28 603.45,245.46 599.43,245.82 595.44,246.35 591.50,247.06 587.61,247.94 583.78,248.98 580.02,250.19 576.34,251.56 572.73,253.08 569.22,254.76 565.80,256.58 562.47,258.54 559.26,260.63 556.15,262.86 553.17,265.21 550.30,267.68 547.56,270.27 544.95,272.96 542.48,275.75 540.14,278.63 537.95,281.60 535.90,284.64 533.99,287.76 532.24,290.95 530.64,294.20 529.19,297.49 527.90,300.83 526.76,304.21 525.78,307.62 524.96,311.04 524.29,314.49 523.79,317.94 523.43,321.39 523.24,324.84 523.19,328.28 523.31,331.69 523.57,335.08 523.98,338.43 524.53,341.75 525.23,345.02 526.07,348.23 527.05,351.39 528.16,354.49 529.41,357.51 530.77,360.46 532.26,363.33 533.87,366.11 535.59,368.80 537.42,371.40 539.36,373.90 541.39,376.30 543.51,378.59 545.72,380.77 548.01,382.83 550.38,384.78 552.82,386.61 555.32,388.32 557.88,389.91 560.50,391.37 563.16,392.70 565.86,393.91 568.60,394.98 571.36,395.93 574.15,396.75 576.95,397.43 579.76,397.99 582.58,398.41 585.39,398.71 588.20,398.88 590.99,398.92 593.76,398.84 596.51,398.64 599.23,398.31 601.91,397.86 604.56,397.30 607.15,396.62 609.70,395.84 612.19,394.94 614.62,393.94 616.99,392.84 619.29,391.64 621.51,390.35 623.66,388.97 625.74,387.51 627.72,385.96 629.63,384.34 631.44,382.64 633.16,380.88 634.79,379.06 636.33,377.17 637.76,375.24 639.10,373.26 640.33,371.23 641.47,369.17 642.50,367.07 643.43,364.94 644.25,362.79 644.97,360.63 645.58,358.45 646.09,356.26 646.50,354.07 646.81,351.88 647.01,349.70 647.11,347.53 647.11,345.38 647.02,343.24 646.83,341.13 646.55,339.05 646.17,337.00" fill="none" stroke="#c0392b" stroke-width="2.5" stroke-linecap="round"/><text x="600" y="667" font-family="Georgia,serif" font-size="22" fill="#0d0d0d" text-anchor="middle" opacity="0.5">Takarangi</text></svg>