<svg xmlns="http://www.w3.org/2000/svg" width="1200" height="675" viewBox="0 0 1200 675"><title>Unaunahi — The Kiwi Dialectic</title><rect width="1200" height="675" fill="#f4f0e8"/><path d="M-60.0,-55.0 A33.0,38.5 0 0 1 0.0,-55.0 A33.0,38.5 0 0 1 -60.0,-55.0Z" fill="none" stroke="#c0392b" stroke-width="1.4" opacity="0.85"/><path d="M0.0,-55.0 A33.0,38.5 0 0 1 60.0,-55.0 A33.0,38.5 0 0 1 0.0,-55.0Z" fill="none" stroke="#0d0d0d" stroke-width="1.4" opacity="0.45"/><path d="M60.0,-55.0 A33.0,38.5 0 0 1 120.0,-55.0 A33.0,38.5 0 0 1 60.0,-55.0Z" fill="none" stroke="#0d0d0d" stroke-width="1.4" opacity="0.2"/><path d="M120.0,-55.0 A33.0,38.5 0 0 1 180.0,-55.0 A33.0,38.5 0 0 1 120.0,-55.0Z" fill="none" stroke="#0d0d0d" stroke-width="1.4" opacity="0.85"/><path d="M180.0,-55.0 A33.0,38.5 0 0 1 240.0,-55.0 A33.0,38.5 0 0 1 180.0,-55.0Z" fill="none" stroke="#0d0d0d" stroke-width="1.4" opacity="0.45"/><path d="M240.0,-55.0 A33.0,38.5 0 0 1 300.0,-55.0 A33.0,38.5 0 0 1 240.0,-55.0Z" fill="none" stroke="#c0392b" stroke-width="1.4" opacity="0.2"/><path d="M300.0,-55.0 A33.0,38.5 0 0 1 360.0,-55.0 A33.0,38.5 0 0 1 300.0,-55.0Z" fill="none" stroke="#0d0d0d" stroke-width="1.4" opacity="0.85"/><path d="M360.0,-55.0 A33.0,38.5 0 0 1 420.0,-55.0 A33.0,38.5 0 0 1 360.0,-55.0Z" fill="none" stroke="#0d0d0d" stroke-width="1.4" opacity="0.45"/><path d="M420.0,-55.0 A33.0,38.5 0 0 1 480.0,-55.0 A33.0,38.5 0 0 1 420.0,-55.0Z" fill="none" stroke="#0d0d0d" stroke-width="1.4" opacity="0.2"/><path d="M480.0,-55.0 A33.0,38.5 0 0 1 540.0,-55.0 A33.0,38.5 0 0 1 480.0,-55.0Z" fill="none" stroke="#0d0d0d" stroke-width="1.4" opacity="0.85"/><path d="M540.0,-55.0 A33.0,38.5 0 0 1 600.0,-55.0 A33.0,38.5 0 0 1 540.0,-55.0Z" fill="none" stroke="#c0392b" stroke-width="1.4" opacity="0.45"/><path d="M600.0,-55.0 A33.0,38.5 0 0 1 660.0,-55.0 A33.0,38.5 0 0 1 600.0,-55.0Z" fill="none" stroke="#0d0d0d" stroke-width="1.4" opacity="0.2"/><path d="M660.0,-55.0 A33.0,38.5 0 0 1 720.0,-55.0 A33.0,38.5 0 0 1 660.0,-55.0Z" fill="none" stroke="#0d0d0d" stroke-width="1.4" opacity="0.85"/><path d="M720.0,-55.0 A33.0,38.5 0 0 1 780.0,-55.0 A33.0,38.5 0 0 1 720.0,-55.0Z" fill="none" stroke="#0d0d0d" stroke-width="1.4" opacity="0.45"/><path d="M780.0,-55.0 A33.0,38.5 0 0 1 840.0,-55.0 A33.0,38.5 0 0 1 780.0,-55.0Z" fill="none" stroke="#0d0d0d" stroke-width="1.4" opacity="0.2"/><path d="M840.0,-55.0 A33.0,38.5 0 0 1 900.0,-55.0 A33.0,38.5 0 0 1 840.0,-55.0Z" fill="none" stroke="#c0392b" stroke-width="1.4" opacity="0.85"/><path d="M900.0,-55.0 A33.0,38.5 0 0 1 960.0,-55.0 A33.0,38.5 0 0 1 900.0,-55.0Z" fill="none" stroke="#0d0d0d" stroke-width="1.4" opacity="0.45"/><path d="M960.0,-55.0 A33.0,38.5 0 0 1 1020.0,-55.0 A33.0,38.5 0 0 1 960.0,-55.0Z" fill="none" stroke="#0d0d0d" stroke-width="1.4" opacity="0.2"/><path d="M1020.0,-55.0 A33.0,38.5 0 0 1 1080.0,-55.0 A33.0,38.5 0 0 1 1020.0,-55.0Z" fill="none" stroke="#0d0d0d" stroke-width="1.4" opacity="0.85"/><path d="M1080.0,-55.0 A33.0,38.5 0 0 1 1140.0,-55.0 A33.0,38.5 0 0 1 1080.0,-55.0Z" fill="none" stroke="#0d0d0d" stroke-width="1.4" opacity="0.45"/><path d="M1140.0,-55.0 A33.0,38.5 0 0 1 1200.0,-55.0 A33.0,38.5 0 0 1 1140.0,-55.0Z" fill="none" stroke="#c0392b" stroke-width="1.4" opacity="0.2"/><path d="M1200.0,-55.0 A33.0,38.5 0 0 1 1260.0,-55.0 A33.0,38.5 0 0 1 1200.0,-55.0Z" fill="none" stroke="#0d0d0d" stroke-width="1.4" opacity="0.85"/><path d="M1260.0,-55.0 A33.0,38.5 0 0 1 1320.0,-55.0 A33.0,38.5 0 0 1 1260.0,-55.0Z" fill="none" stroke="#0d0d0d" stroke-width="1.4" opacity="0.45"/><path d="M-30.0,-20.0 A33.0,38.5 0 0 1 30.0,-20.0 A33.0,38.5 0 0 1 -30.0,-20.0Z" fill="none" stroke="#0d0d0d" stroke-width="1.4" opacity="0.45"/><path d="M30.0,-20.0 A33.0,38.5 0 0 1 90.0,-20.0 A33.0,38.5 0 0 1 30.0,-20.0Z" fill="none" stroke="#0d0d0d" stroke-width="1.4" opacity="0.2"/><path d="M90.0,-20.0 A33.0,38.5 0 0 1 150.0,-20.0 A33.0,38.5 0 0 1 90.0,-20.0Z" fill="none" stroke="#0d0d0d" stroke-width="1.4" opacity="0.85"/><path d="M150.0,-20.0 A33.0,38.5 0 0 1 210.0,-20.0 A33.0,38.5 0 0 1 150.0,-20.0Z" fill="none" stroke="#0d0d0d" stroke-width="1.4" opacity="0.45"/><path d="M210.0,-20.0 A33.0,38.5 0 0 1 270.0,-20.0 A33.0,38.5 0 0 1 210.0,-20.0Z" fill="none" stroke="#c0392b" stroke-width="1.4" opacity="0.2"/><path d="M270.0,-20.0 A33.0,38.5 0 0 1 330.0,-20.0 A33.0,38.5 0 0 1 270.0,-20.0Z" fill="none" stroke="#0d0d0d" stroke-width="1.4" opacity="0.85"/><path d="M330.0,-20.0 A33.0,38.5 0 0 1 390.0,-20.0 A33.0,38.5 0 0 1 330.0,-20.0Z" fill="none" stroke="#0d0d0d" stroke-width="1.4" opacity="0.45"/><path d="M390.0,-20.0 A33.0,38.5 0 0 1 450.0,-20.0 A33.0,38.5 0 0 1 390.0,-20.0Z" fill="none" stroke="#0d0d0d" stroke-width="1.4" opacity="0.2"/><path d="M450.0,-20.0 A33.0,38.5 0 0 1 510.0,-20.0 A33.0,38.5 0 0 1 450.0,-20.0Z" fill="none" stroke="#0d0d0d" stroke-width="1.4" opacity="0.85"/><path d="M510.0,-20.0 A33.0,38.5 0 0 1 570.0,-20.0 A33.0,38.5 0 0 1 510.0,-20.0Z" fill="none" stroke="#c0392b" stroke-width="1.4" opacity="0.45"/><path d="M570.0,-20.0 A33.0,38.5 0 0 1 630.0,-20.0 A33.0,38.5 0 0 1 570.0,-20.0Z" fill="none" stroke="#0d0d0d" stroke-width="1.4" opacity="0.2"/><path d="M630.0,-20.0 A33.0,38.5 0 0 1 690.0,-20.0 A33.0,38.5 0 0 1 630.0,-20.0Z" fill="none" stroke="#0d0d0d" stroke-width="1.4" opacity="0.85"/><path d="M690.0,-20.0 A33.0,38.5 0 0 1 750.0,-20.0 A33.0,38.5 0 0 1 690.0,-20.0Z" fill="none" stroke="#0d0d0d" stroke-width="1.4" opacity="0.45"/><path d="M750.0,-20.0 A33.0,38.5 0 0 1 810.0,-20.0 A33.0,38.5 0 0 1 750.0,-20.0Z" fill="none" stroke="#0d0d0d" stroke-width="1.4" opacity="0.2"/><path d="M810.0,-20.0 A33.0,38.5 0 0 1 870.0,-20.0 A33.0,38.5 0 0 1 810.0,-20.0Z" fill="none" stroke="#c0392b" stroke-width="1.4" opacity="0.85"/><path d="M870.0,-20.0 A33.0,38.5 0 0 1 930.0,-20.0 A33.0,38.5 0 0 1 870.0,-20.0Z" fill="none" stroke="#0d0d0d" stroke-width="1.4" opacity="0.45"/><path d="M930.0,-20.0 A33.0,38.5 0 0 1 990.0,-20.0 A33.0,38.5 0 0 1 930.0,-20.0Z" fill="none" stroke="#0d0d0d" stroke-width="1.4" opacity="0.2"/><path d="M990.0,-20.0 A33.0,38.5 0 0 1 1050.0,-20.0 A33.0,38.5 0 0 1 990.0,-20.0Z" fill="none" stroke="#0d0d0d" stroke-width="1.4" opacity="0.85"/><path d="M1050.0,-20.0 A33.0,38.5 0 0 1 1110.0,-20.0 A33.0,38.5 0 0 1 1050.0,-20.0Z" fill="none" stroke="#0d0d0d" stroke-width="1.4" opacity="0.45"/><path d="M1110.0,-20.0 A33.0,38.5 0 0 1 1170.0,-20.0 A33.0,38.5 0 0 1 1110.0,-20.0Z" fill="none" stroke="#c0392b" stroke-width="1.4" opacity="0.2"/><path d="M1170.0,-20.0 A33.0,38.5 0 0 1 1230.0,-20.0 A33.0,38.5 0 0 1 1170.0,-20.0Z" fill="none" stroke="#0d0d0d" stroke-width="1.4" opacity="0.85"/><path d="M1230.0,-20.0 A33.0,38.5 0 0 1 1290.0,-20.0 A33.0,38.5 0 0 1 1230.0,-20.0Z" fill="none" stroke="#0d0d0d" stroke-width="1.4" opacity="0.45"/><path d="M1290.0,-20.0 A33.0,38.5 0 0 1 1350.0,-20.0 A33.0,38.5 0 0 1 1290.0,-20.0Z" fill="none" stroke="#0d0d0d" stroke-width="1.4" opacity="0.2"/><path d="M-60.0,15.0 A33.0,38.5 0 0 1 0.0,15.0 A33.0,38.5 0 0 1 -60.0,15.0Z" fill="none" stroke="#0d0d0d" stroke-width="1.4" opacity="0.2"/><path d="M0.0,15.0 A33.0,38.5 0 0 1 60.0,15.0 A33.0,38.5 0 0 1 0.0,15.0Z" fill="none" stroke="#0d0d0d" stroke-width="1.4" opacity="0.85"/><path d="M60.0,15.0 A33.0,38.5 0 0 1 120.0,15.0 A33.0,38.5 0 0 1 60.0,15.0Z" fill="none" stroke="#0d0d0d" stroke-width="1.4" opacity="0.45"/><path d="M120.0,15.0 A33.0,38.5 0 0 1 180.0,15.0 A33.0,38.5 0 0 1 120.0,15.0Z" fill="none" stroke="#c0392b" stroke-width="1.4" opacity="0.2"/><path d="M180.0,15.0 A33.0,38.5 0 0 1 240.0,15.0 A33.0,38.5 0 0 1 180.0,15.0Z" fill="none" stroke="#0d0d0d" stroke-width="1.4" opacity="0.85"/><path d="M240.0,15.0 A33.0,38.5 0 0 1 300.0,15.0 A33.0,38.5 0 0 1 240.0,15.0Z" fill="none" stroke="#0d0d0d" stroke-width="1.4" opacity="0.45"/><path d="M300.0,15.0 A33.0,38.5 0 0 1 360.0,15.0 A33.0,38.5 0 0 1 300.0,15.0Z" fill="none" stroke="#0d0d0d" stroke-width="1.4" opacity="0.2"/><path d="M360.0,15.0 A33.0,38.5 0 0 1 420.0,15.0 A33.0,38.5 0 0 1 360.0,15.0Z" fill="none" stroke="#0d0d0d" stroke-width="1.4" opacity="0.85"/><path d="M420.0,15.0 A33.0,38.5 0 0 1 480.0,15.0 A33.0,38.5 0 0 1 420.0,15.0Z" fill="none" stroke="#c0392b" stroke-width="1.4" opacity="0.45"/><path d="M480.0,15.0 A33.0,38.5 0 0 1 540.0,15.0 A33.0,38.5 0 0 1 480.0,15.0Z" fill="none" stroke="#0d0d0d" stroke-width="1.4" opacity="0.2"/><path d="M540.0,15.0 A33.0,38.5 0 0 1 600.0,15.0 A33.0,38.5 0 0 1 540.0,15.0Z" fill="none" stroke="#0d0d0d" stroke-width="1.4" opacity="0.85"/><path d="M600.0,15.0 A33.0,38.5 0 0 1 660.0,15.0 A33.0,38.5 0 0 1 600.0,15.0Z" fill="none" stroke="#0d0d0d" stroke-width="1.4" opacity="0.45"/><path d="M660.0,15.0 A33.0,38.5 0 0 1 720.0,15.0 A33.0,38.5 0 0 1 660.0,15.0Z" fill="none" stroke="#0d0d0d" stroke-width="1.4" opacity="0.2"/><path d="M720.0,15.0 A33.0,38.5 0 0 1 780.0,15.0 A33.0,38.5 0 0 1 720.0,15.0Z" fill="none" stroke="#c0392b" stroke-width="1.4" opacity="0.85"/><path d="M780.0,15.0 A33.0,38.5 0 0 1 840.0,15.0 A33.0,38.5 0 0 1 780.0,15.0Z" fill="none" stroke="#0d0d0d" stroke-width="1.4" opacity="0.45"/><path d="M840.0,15.0 A33.0,38.5 0 0 1 900.0,15.0 A33.0,38.5 0 0 1 840.0,15.0Z" fill="none" stroke="#0d0d0d" stroke-width="1.4" opacity="0.2"/><path d="M900.0,15.0 A33.0,38.5 0 0 1 960.0,15.0 A33.0,38.5 0 0 1 900.0,15.0Z" fill="none" stroke="#0d0d0d" stroke-width="1.4" opacity="0.85"/><path d="M960.0,15.0 A33.0,38.5 0 0 1 1020.0,15.0 A33.0,38.5 0 0 1 960.0,15.0Z" fill="none" stroke="#0d0d0d" stroke-width="1.4" opacity="0.45"/><path d="M1020.0,15.0 A33.0,38.5 0 0 1 1080.0,15.0 A33.0,38.5 0 0 1 1020.0,15.0Z" fill="none" stroke="#c0392b" stroke-width="1.4" opacity="0.2"/><path d="M1080.0,15.0 A33.0,38.5 0 0 1 1140.0,15.0 A33.0,38.5 0 0 1 1080.0,15.0Z" fill="none" stroke="#0d0d0d" stroke-width="1.4" opacity="0.85"/><path d="M1140.0,15.0 A33.0,38.5 0 0 1 1200.0,15.0 A33.0,38.5 0 0 1 1140.0,15.0Z" fill="none" stroke="#0d0d0d" stroke-width="1.4" opacity="0.45"/><path d="M1200.0,15.0 A33.0,38.5 0 0 1 1260.0,15.0 A33.0,38.5 0 0 1 1200.0,15.0Z" fill="none" stroke="#0d0d0d" stroke-width="1.4" opacity="0.2"/><path d="M1260.0,15.0 A33.0,38.5 0 0 1 1320.0,15.0 A33.0,38.5 0 0 1 1260.0,15.0Z" fill="none" stroke="#0d0d0d" stroke-width="1.4" opacity="0.85"/><path d="M-30.0,50.0 A33.0,38.5 0 0 1 30.0,50.0 A33.0,38.5 0 0 1 -30.0,50.0Z" fill="none" stroke="#0d0d0d" stroke-width="1.4" opacity="0.85"/><path d="M30.0,50.0 A33.0,38.5 0 0 1 90.0,50.0 A33.0,38.5 0 0 1 30.0,50.0Z" fill="none" stroke="#0d0d0d" stroke-width="1.4" opacity="0.45"/><path d="M90.0,50.0 A33.0,38.5 0 0 1 150.0,50.0 A33.0,38.5 0 0 1 90.0,50.0Z" fill="none" stroke="#c0392b" stroke-width="1.4" opacity="0.2"/><path d="M150.0,50.0 A33.0,38.5 0 0 1 210.0,50.0 A33.0,38.5 0 0 1 150.0,50.0Z" fill="none" stroke="#0d0d0d" stroke-width="1.4" opacity="0.85"/><path d="M210.0,50.0 A33.0,38.5 0 0 1 270.0,50.0 A33.0,38.5 0 0 1 210.0,50.0Z" fill="none" stroke="#0d0d0d" stroke-width="1.4" opacity="0.45"/><path d="M270.0,50.0 A33.0,38.5 0 0 1 330.0,50.0 A33.0,38.5 0 0 1 270.0,50.0Z" fill="none" stroke="#0d0d0d" stroke-width="1.4" opacity="0.2"/><path d="M330.0,50.0 A33.0,38.5 0 0 1 390.0,50.0 A33.0,38.5 0 0 1 330.0,50.0Z" fill="none" stroke="#0d0d0d" stroke-width="1.4" opacity="0.85"/><path d="M390.0,50.0 A33.0,38.5 0 0 1 450.0,50.0 A33.0,38.5 0 0 1 390.0,50.0Z" fill="none" stroke="#c0392b" stroke-width="1.4" opacity="0.45"/><path d="M450.0,50.0 A33.0,38.5 0 0 1 510.0,50.0 A33.0,38.5 0 0 1 450.0,50.0Z" fill="none" stroke="#0d0d0d" stroke-width="1.4" opacity="0.2"/><path d="M510.0,50.0 A33.0,38.5 0 0 1 570.0,50.0 A33.0,38.5 0 0 1 510.0,50.0Z" fill="none" stroke="#0d0d0d" stroke-width="1.4" opacity="0.85"/><path d="M570.0,50.0 A33.0,38.5 0 0 1 630.0,50.0 A33.0,38.5 0 0 1 570.0,50.0Z" fill="none" stroke="#0d0d0d" stroke-width="1.4" opacity="0.45"/><path d="M630.0,50.0 A33.0,38.5 0 0 1 690.0,50.0 A33.0,38.5 0 0 1 630.0,50.0Z" fill="none" stroke="#0d0d0d" stroke-width="1.4" opacity="0.2"/><path d="M690.0,50.0 A33.0,38.5 0 0 1 750.0,50.0 A33.0,38.5 0 0 1 690.0,50.0Z" fill="none" stroke="#c0392b" stroke-width="1.4" opacity="0.85"/><path d="M750.0,50.0 A33.0,38.5 0 0 1 810.0,50.0 A33.0,38.5 0 0 1 750.0,50.0Z" fill="none" stroke="#0d0d0d" stroke-width="1.4" opacity="0.45"/><path d="M810.0,50.0 A33.0,38.5 0 0 1 870.0,50.0 A33.0,38.5 0 0 1 810.0,50.0Z" fill="none" stroke="#0d0d0d" stroke-width="1.4" opacity="0.2"/><path d="M870.0,50.0 A33.0,38.5 0 0 1 930.0,50.0 A33.0,38.5 0 0 1 870.0,50.0Z" fill="none" stroke="#0d0d0d" stroke-width="1.4" opacity="0.85"/><path d="M930.0,50.0 A33.0,38.5 0 0 1 990.0,50.0 A33.0,38.5 0 0 1 930.0,50.0Z" fill="none" stroke="#0d0d0d" stroke-width="1.4" opacity="0.45"/><path d="M990.0,50.0 A33.0,38.5 0 0 1 1050.0,50.0 A33.0,38.5 0 0 1 990.0,50.0Z" fill="none" stroke="#c0392b" stroke-width="1.4" opacity="0.2"/><path d="M1050.0,50.0 A33.0,38.5 0 0 1 1110.0,50.0 A33.0,38.5 0 0 1 1050.0,50.0Z" fill="none" stroke="#0d0d0d" stroke-width="1.4" opacity="0.85"/><path d="M1110.0,50.0 A33.0,38.5 0 0 1 1170.0,50.0 A33.0,38.5 0 0 1 1110.0,50.0Z" fill="none" stroke="#0d0d0d" stroke-width="1.4" opacity="0.45"/><path d="M1170.0,50.0 A33.0,38.5 0 0 1 1230.0,50.0 A33.0,38.5 0 0 1 1170.0,50.0Z" fill="none" stroke="#0d0d0d" stroke-width="1.4" opacity="0.2"/><path d="M1230.0,50.0 A33.0,38.5 0 0 1 1290.0,50.0 A33.0,38.5 0 0 1 1230.0,50.0Z" fill="none" stroke="#0d0d0d" stroke-width="1.4" opacity="0.85"/><path d="M1290.0,50.0 A33.0,38.5 0 0 1 1350.0,50.0 A33.0,38.5 0 0 1 1290.0,50.0Z" fill="none" stroke="#c0392b" stroke-width="1.4" opacity="0.45"/><path d="M-60.0,85.0 A33.0,38.5 0 0 1 0.0,85.0 A33.0,38.5 0 0 1 -60.0,85.0Z" fill="none" stroke="#0d0d0d" stroke-width="1.4" opacity="0.45"/><path d="M0.0,85.0 A33.0,38.5 0 0 1 60.0,85.0 A33.0,38.5 0 0 1 0.0,85.0Z" fill="none" stroke="#c0392b" stroke-width="1.4" opacity="0.2"/><path d="M60.0,85.0 A33.0,38.5 0 0 1 120.0,85.0 A33.0,38.5 0 0 1 60.0,85.0Z" fill="none" stroke="#0d0d0d" stroke-width="1.4" opacity="0.85"/><path d="M120.0,85.0 A33.0,38.5 0 0 1 180.0,85.0 A33.0,38.5 0 0 1 120.0,85.0Z" fill="none" stroke="#0d0d0d" stroke-width="1.4" opacity="0.45"/><path d="M180.0,85.0 A33.0,38.5 0 0 1 240.0,85.0 A33.0,38.5 0 0 1 180.0,85.0Z" fill="none" stroke="#0d0d0d" stroke-width="1.4" opacity="0.2"/><path d="M240.0,85.0 A33.0,38.5 0 0 1 300.0,85.0 A33.0,38.5 0 0 1 240.0,85.0Z" fill="none" stroke="#0d0d0d" stroke-width="1.4" opacity="0.85"/><path d="M300.0,85.0 A33.0,38.5 0 0 1 360.0,85.0 A33.0,38.5 0 0 1 300.0,85.0Z" fill="none" stroke="#c0392b" stroke-width="1.4" opacity="0.45"/><path d="M360.0,85.0 A33.0,38.5 0 0 1 420.0,85.0 A33.0,38.5 0 0 1 360.0,85.0Z" fill="none" stroke="#0d0d0d" stroke-width="1.4" opacity="0.2"/><path d="M420.0,85.0 A33.0,38.5 0 0 1 480.0,85.0 A33.0,38.5 0 0 1 420.0,85.0Z" fill="none" stroke="#0d0d0d" stroke-width="1.4" opacity="0.85"/><path d="M480.0,85.0 A33.0,38.5 0 0 1 540.0,85.0 A33.0,38.5 0 0 1 480.0,85.0Z" fill="none" stroke="#0d0d0d" stroke-width="1.4" opacity="0.45"/><path d="M540.0,85.0 A33.0,38.5 0 0 1 600.0,85.0 A33.0,38.5 0 0 1 540.0,85.0Z" fill="none" stroke="#0d0d0d" stroke-width="1.4" opacity="0.2"/><path d="M600.0,85.0 A33.0,38.5 0 0 1 660.0,85.0 A33.0,38.5 0 0 1 600.0,85.0Z" fill="none" stroke="#c0392b" stroke-width="1.4" opacity="0.85"/><path d="M660.0,85.0 A33.0,38.5 0 0 1 720.0,85.0 A33.0,38.5 0 0 1 660.0,85.0Z" fill="none" stroke="#0d0d0d" stroke-width="1.4" opacity="0.45"/><path d="M720.0,85.0 A33.0,38.5 0 0 1 780.0,85.0 A33.0,38.5 0 0 1 720.0,85.0Z" fill="none" stroke="#0d0d0d" stroke-width="1.4" opacity="0.2"/><path d="M780.0,85.0 A33.0,38.5 0 0 1 840.0,85.0 A33.0,38.5 0 0 1 780.0,85.0Z" fill="none" stroke="#0d0d0d" stroke-width="1.4" opacity="0.85"/><path d="M840.0,85.0 A33.0,38.5 0 0 1 900.0,85.0 A33.0,38.5 0 0 1 840.0,85.0Z" fill="none" stroke="#0d0d0d" stroke-width="1.4" opacity="0.45"/><path d="M900.0,85.0 A33.0,38.5 0 0 1 960.0,85.0 A33.0,38.5 0 0 1 900.0,85.0Z" fill="none" stroke="#c0392b" stroke-width="1.4" opacity="0.2"/><path d="M960.0,85.0 A33.0,38.5 0 0 1 1020.0,85.0 A33.0,38.5 0 0 1 960.0,85.0Z" fill="none" stroke="#0d0d0d" stroke-width="1.4" opacity="0.85"/><path d="M1020.0,85.0 A33.0,38.5 0 0 1 1080.0,85.0 A33.0,38.5 0 0 1 1020.0,85.0Z" fill="none" stroke="#0d0d0d" stroke-width="1.4" opacity="0.45"/><path d="M1080.0,85.0 A33.0,38.5 0 0 1 1140.0,85.0 A33.0,38.5 0 0 1 1080.0,85.0Z" fill="none" stroke="#0d0d0d" stroke-width="1.4" opacity="0.2"/><path d="M1140.0,85.0 A33.0,38.5 0 0 1 1200.0,85.0 A33.0,38.5 0 0 1 1140.0,85.0Z" fill="none" stroke="#0d0d0d" stroke-width="1.4" opacity="0.85"/><path d="M1200.0,85.0 A33.0,38.5 0 0 1 1260.0,85.0 A33.0,38.5 0 0 1 1200.0,85.0Z" fill="none" stroke="#c0392b" stroke-width="1.4" opacity="0.45"/><path d="M1260.0,85.0 A33.0,38.5 0 0 1 1320.0,85.0 A33.0,38.5 0 0 1 1260.0,85.0Z" fill="none" stroke="#0d0d0d" stroke-width="1.4" opacity="0.2"/><path d="M-30.0,120.0 A33.0,38.5 0 0 1 30.0,120.0 A33.0,38.5 0 0 1 -30.0,120.0Z" fill="none" stroke="#c0392b" stroke-width="1.4" opacity="0.2"/><path d="M30.0,120.0 A33.0,38.5 0 0 1 90.0,120.0 A33.0,38.5 0 0 1 30.0,120.0Z" fill="none" stroke="#0d0d0d" stroke-width="1.4" opacity="0.85"/><path d="M90.0,120.0 A33.0,38.5 0 0 1 150.0,120.0 A33.0,38.5 0 0 1 90.0,120.0Z" fill="none" stroke="#0d0d0d" stroke-width="1.4" opacity="0.45"/><path d="M150.0,120.0 A33.0,38.5 0 0 1 210.0,120.0 A33.0,38.5 0 0 1 150.0,120.0Z" fill="none" stroke="#0d0d0d" stroke-width="1.4" opacity="0.2"/><path d="M210.0,120.0 A33.0,38.5 0 0 1 270.0,120.0 A33.0,38.5 0 0 1 210.0,120.0Z" fill="none" stroke="#0d0d0d" stroke-width="1.4" opacity="0.85"/><path d="M270.0,120.0 A33.0,38.5 0 0 1 330.0,120.0 A33.0,38.5 0 0 1 270.0,120.0Z" fill="none" stroke="#c0392b" stroke-width="1.4" opacity="0.45"/><path d="M330.0,120.0 A33.0,38.5 0 0 1 390.0,120.0 A33.0,38.5 0 0 1 330.0,120.0Z" fill="none" stroke="#0d0d0d" stroke-width="1.4" opacity="0.2"/><path d="M390.0,120.0 A33.0,38.5 0 0 1 450.0,120.0 A33.0,38.5 0 0 1 390.0,120.0Z" fill="none" stroke="#0d0d0d" stroke-width="1.4" opacity="0.85"/><path d="M450.0,120.0 A33.0,38.5 0 0 1 510.0,120.0 A33.0,38.5 0 0 1 450.0,120.0Z" fill="none" stroke="#0d0d0d" stroke-width="1.4" opacity="0.45"/><path d="M510.0,120.0 A33.0,38.5 0 0 1 570.0,120.0 A33.0,38.5 0 0 1 510.0,120.0Z" fill="none" stroke="#0d0d0d" stroke-width="1.4" opacity="0.2"/><path d="M570.0,120.0 A33.0,38.5 0 0 1 630.0,120.0 A33.0,38.5 0 0 1 570.0,120.0Z" fill="none" stroke="#c0392b" stroke-width="1.4" opacity="0.85"/><path d="M630.0,120.0 A33.0,38.5 0 0 1 690.0,120.0 A33.0,38.5 0 0 1 630.0,120.0Z" fill="none" stroke="#0d0d0d" stroke-width="1.4" opacity="0.45"/><path d="M690.0,120.0 A33.0,38.5 0 0 1 750.0,120.0 A33.0,38.5 0 0 1 690.0,120.0Z" fill="none" stroke="#0d0d0d" stroke-width="1.4" opacity="0.2"/><path d="M750.0,120.0 A33.0,38.5 0 0 1 810.0,120.0 A33.0,38.5 0 0 1 750.0,120.0Z" fill="none" stroke="#0d0d0d" stroke-width="1.4" opacity="0.85"/><path d="M810.0,120.0 A33.0,38.5 0 0 1 870.0,120.0 A33.0,38.5 0 0 1 810.0,120.0Z" fill="none" stroke="#0d0d0d" stroke-width="1.4" opacity="0.45"/><path d="M870.0,120.0 A33.0,38.5 0 0 1 930.0,120.0 A33.0,38.5 0 0 1 870.0,120.0Z" fill="none" stroke="#c0392b" stroke-width="1.4" opacity="0.2"/><path d="M930.0,120.0 A33.0,38.5 0 0 1 990.0,120.0 A33.0,38.5 0 0 1 930.0,120.0Z" fill="none" stroke="#0d0d0d" stroke-width="1.4" opacity="0.85"/><path d="M990.0,120.0 A33.0,38.5 0 0 1 1050.0,120.0 A33.0,38.5 0 0 1 990.0,120.0Z" fill="none" stroke="#0d0d0d" stroke-width="1.4" opacity="0.45"/><path d="M1050.0,120.0 A33.0,38.5 0 0 1 1110.0,120.0 A33.0,38.5 0 0 1 1050.0,120.0Z" fill="none" stroke="#0d0d0d" stroke-width="1.4" opacity="0.2"/><path d="M1110.0,120.0 A33.0,38.5 0 0 1 1170.0,120.0 A33.0,38.5 0 0 1 1110.0,120.0Z" fill="none" stroke="#0d0d0d" stroke-width="1.4" opacity="0.85"/><path d="M1170.0,120.0 A33.0,38.5 0 0 1 1230.0,120.0 A33.0,38.5 0 0 1 1170.0,120.0Z" fill="none" stroke="#c0392b" stroke-width="1.4" opacity="0.45"/><path d="M1230.0,120.0 A33.0,38.5 0 0 1 1290.0,120.0 A33.0,38.5 0 0 1 1230.0,120.0Z" fill="none" stroke="#0d0d0d" stroke-width="1.4" opacity="0.2"/><path d="M1290.0,120.0 A33.0,38.5 0 0 1 1350.0,120.0 A33.0,38.5 0 0 1 1290.0,120.0Z" fill="none" stroke="#0d0d0d" stroke-width="1.4" opacity="0.85"/><path d="M-60.0,155.0 A33.0,38.5 0 0 1 0.0,155.0 A33.0,38.5 0 0 1 -60.0,155.0Z" fill="none" stroke="#0d0d0d" stroke-width="1.4" opacity="0.85"/><path d="M0.0,155.0 A33.0,38.5 0 0 1 60.0,155.0 A33.0,38.5 0 0 1 0.0,155.0Z" fill="none" stroke="#0d0d0d" stroke-width="1.4" opacity="0.45"/><path d="M60.0,155.0 A33.0,38.5 0 0 1 120.0,155.0 A33.0,38.5 0 0 1 60.0,155.0Z" fill="none" stroke="#0d0d0d" stroke-width="1.4" opacity="0.2"/><path d="M120.0,155.0 A33.0,38.5 0 0 1 180.0,155.0 A33.0,38.5 0 0 1 120.0,155.0Z" fill="none" stroke="#0d0d0d" stroke-width="1.4" opacity="0.85"/><path d="M180.0,155.0 A33.0,38.5 0 0 1 240.0,155.0 A33.0,38.5 0 0 1 180.0,155.0Z" fill="none" stroke="#c0392b" stroke-width="1.4" opacity="0.45"/><path d="M240.0,155.0 A33.0,38.5 0 0 1 300.0,155.0 A33.0,38.5 0 0 1 240.0,155.0Z" fill="none" stroke="#0d0d0d" stroke-width="1.4" opacity="0.2"/><path d="M300.0,155.0 A33.0,38.5 0 0 1 360.0,155.0 A33.0,38.5 0 0 1 300.0,155.0Z" fill="none" stroke="#0d0d0d" stroke-width="1.4" opacity="0.85"/><path d="M360.0,155.0 A33.0,38.5 0 0 1 420.0,155.0 A33.0,38.5 0 0 1 360.0,155.0Z" fill="none" stroke="#0d0d0d" stroke-width="1.4" opacity="0.45"/><path d="M420.0,155.0 A33.0,38.5 0 0 1 480.0,155.0 A33.0,38.5 0 0 1 420.0,155.0Z" fill="none" stroke="#0d0d0d" stroke-width="1.4" opacity="0.2"/><path d="M480.0,155.0 A33.0,38.5 0 0 1 540.0,155.0 A33.0,38.5 0 0 1 480.0,155.0Z" fill="none" stroke="#c0392b" stroke-width="1.4" opacity="0.85"/><path d="M540.0,155.0 A33.0,38.5 0 0 1 600.0,155.0 A33.0,38.5 0 0 1 540.0,155.0Z" fill="none" stroke="#0d0d0d" stroke-width="1.4" opacity="0.45"/><path d="M600.0,155.0 A33.0,38.5 0 0 1 660.0,155.0 A33.0,38.5 0 0 1 600.0,155.0Z" fill="none" stroke="#0d0d0d" stroke-width="1.4" opacity="0.2"/><path d="M660.0,155.0 A33.0,38.5 0 0 1 720.0,155.0 A33.0,38.5 0 0 1 660.0,155.0Z" fill="none" stroke="#0d0d0d" stroke-width="1.4" opacity="0.85"/><path d="M720.0,155.0 A33.0,38.5 0 0 1 780.0,155.0 A33.0,38.5 0 0 1 720.0,155.0Z" fill="none" stroke="#0d0d0d" stroke-width="1.4" opacity="0.45"/><path d="M780.0,155.0 A33.0,38.5 0 0 1 840.0,155.0 A33.0,38.5 0 0 1 780.0,155.0Z" fill="none" stroke="#c0392b" stroke-width="1.4" opacity="0.2"/><path d="M840.0,155.0 A33.0,38.5 0 0 1 900.0,155.0 A33.0,38.5 0 0 1 840.0,155.0Z" fill="none" stroke="#0d0d0d" stroke-width="1.4" opacity="0.85"/><path d="M900.0,155.0 A33.0,38.5 0 0 1 960.0,155.0 A33.0,38.5 0 0 1 900.0,155.0Z" fill="none" stroke="#0d0d0d" stroke-width="1.4" opacity="0.45"/><path d="M960.0,155.0 A33.0,38.5 0 0 1 1020.0,155.0 A33.0,38.5 0 0 1 960.0,155.0Z" fill="none" stroke="#0d0d0d" stroke-width="1.4" opacity="0.2"/><path d="M1020.0,155.0 A33.0,38.5 0 0 1 1080.0,155.0 A33.0,38.5 0 0 1 1020.0,155.0Z" fill="none" stroke="#0d0d0d" stroke-width="1.4" opacity="0.85"/><path d="M1080.0,155.0 A33.0,38.5 0 0 1 1140.0,155.0 A33.0,38.5 0 0 1 1080.0,155.0Z" fill="none" stroke="#c0392b" stroke-width="1.4" opacity="0.45"/><path d="M1140.0,155.0 A33.0,38.5 0 0 1 1200.0,155.0 A33.0,38.5 0 0 1 1140.0,155.0Z" fill="none" stroke="#0d0d0d" stroke-width="1.4" opacity="0.2"/><path d="M1200.0,155.0 A33.0,38.5 0 0 1 1260.0,155.0 A33.0,38.5 0 0 1 1200.0,155.0Z" fill="none" stroke="#0d0d0d" stroke-width="1.4" opacity="0.85"/><path d="M1260.0,155.0 A33.0,38.5 0 0 1 1320.0,155.0 A33.0,38.5 0 0 1 1260.0,155.0Z" fill="none" stroke="#0d0d0d" stroke-width="1.4" opacity="0.45"/><path d="M-30.0,190.0 A33.0,38.5 0 0 1 30.0,190.0 A33.0,38.5 0 0 1 -30.0,190.0Z" fill="none" stroke="#0d0d0d" stroke-width="1.4" opacity="0.45"/><path d="M30.0,190.0 A33.0,38.5 0 0 1 90.0,190.0 A33.0,38.5 0 0 1 30.0,190.0Z" fill="none" stroke="#0d0d0d" stroke-width="1.4" opacity="0.2"/><path d="M90.0,190.0 A33.0,38.5 0 0 1 150.0,190.0 A33.0,38.5 0 0 1 90.0,190.0Z" fill="none" stroke="#0d0d0d" stroke-width="1.4" opacity="0.85"/><path d="M150.0,190.0 A33.0,38.5 0 0 1 210.0,190.0 A33.0,38.5 0 0 1 150.0,190.0Z" fill="none" stroke="#c0392b" stroke-width="1.4" opacity="0.45"/><path d="M210.0,190.0 A33.0,38.5 0 0 1 270.0,190.0 A33.0,38.5 0 0 1 210.0,190.0Z" fill="none" stroke="#0d0d0d" stroke-width="1.4" opacity="0.2"/><path d="M270.0,190.0 A33.0,38.5 0 0 1 330.0,190.0 A33.0,38.5 0 0 1 270.0,190.0Z" fill="none" stroke="#0d0d0d" stroke-width="1.4" opacity="0.85"/><path d="M330.0,190.0 A33.0,38.5 0 0 1 390.0,190.0 A33.0,38.5 0 0 1 330.0,190.0Z" fill="none" stroke="#0d0d0d" stroke-width="1.4" opacity="0.45"/><path d="M390.0,190.0 A33.0,38.5 0 0 1 450.0,190.0 A33.0,38.5 0 0 1 390.0,190.0Z" fill="none" stroke="#0d0d0d" stroke-width="1.4" opacity="0.2"/><path d="M450.0,190.0 A33.0,38.5 0 0 1 510.0,190.0 A33.0,38.5 0 0 1 450.0,190.0Z" fill="none" stroke="#c0392b" stroke-width="1.4" opacity="0.85"/><path d="M510.0,190.0 A33.0,38.5 0 0 1 570.0,190.0 A33.0,38.5 0 0 1 510.0,190.0Z" fill="none" stroke="#0d0d0d" stroke-width="1.4" opacity="0.45"/><path d="M570.0,190.0 A33.0,38.5 0 0 1 630.0,190.0 A33.0,38.5 0 0 1 570.0,190.0Z" fill="none" stroke="#0d0d0d" stroke-width="1.4" opacity="0.2"/><path d="M630.0,190.0 A33.0,38.5 0 0 1 690.0,190.0 A33.0,38.5 0 0 1 630.0,190.0Z" fill="none" stroke="#0d0d0d" stroke-width="1.4" opacity="0.85"/><path d="M690.0,190.0 A33.0,38.5 0 0 1 750.0,190.0 A33.0,38.5 0 0 1 690.0,190.0Z" fill="none" stroke="#0d0d0d" stroke-width="1.4" opacity="0.45"/><path d="M750.0,190.0 A33.0,38.5 0 0 1 810.0,190.0 A33.0,38.5 0 0 1 750.0,190.0Z" fill="none" stroke="#c0392b" stroke-width="1.4" opacity="0.2"/><path d="M810.0,190.0 A33.0,38.5 0 0 1 870.0,190.0 A33.0,38.5 0 0 1 810.0,190.0Z" fill="none" stroke="#0d0d0d" stroke-width="1.4" opacity="0.85"/><path d="M870.0,190.0 A33.0,38.5 0 0 1 930.0,190.0 A33.0,38.5 0 0 1 870.0,190.0Z" fill="none" stroke="#0d0d0d" stroke-width="1.4" opacity="0.45"/><path d="M930.0,190.0 A33.0,38.5 0 0 1 990.0,190.0 A33.0,38.5 0 0 1 930.0,190.0Z" fill="none" stroke="#0d0d0d" stroke-width="1.4" opacity="0.2"/><path d="M990.0,190.0 A33.0,38.5 0 0 1 1050.0,190.0 A33.0,38.5 0 0 1 990.0,190.0Z" fill="none" stroke="#0d0d0d" stroke-width="1.4" opacity="0.85"/><path d="M1050.0,190.0 A33.0,38.5 0 0 1 1110.0,190.0 A33.0,38.5 0 0 1 1050.0,190.0Z" fill="none" stroke="#c0392b" stroke-width="1.4" opacity="0.45"/><path d="M1110.0,190.0 A33.0,38.5 0 0 1 1170.0,190.0 A33.0,38.5 0 0 1 1110.0,190.0Z" fill="none" stroke="#0d0d0d" stroke-width="1.4" opacity="0.2"/><path d="M1170.0,190.0 A33.0,38.5 0 0 1 1230.0,190.0 A33.0,38.5 0 0 1 1170.0,190.0Z" fill="none" stroke="#0d0d0d" stroke-width="1.4" opacity="0.85"/><path d="M1230.0,190.0 A33.0,38.5 0 0 1 1290.0,190.0 A33.0,38.5 0 0 1 1230.0,190.0Z" fill="none" stroke="#0d0d0d" stroke-width="1.4" opacity="0.45"/><path d="M1290.0,190.0 A33.0,38.5 0 0 1 1350.0,190.0 A33.0,38.5 0 0 1 1290.0,190.0Z" fill="none" stroke="#0d0d0d" stroke-width="1.4" opacity="0.2"/><path d="M-60.0,225.0 A33.0,38.5 0 0 1 0.0,225.0 A33.0,38.5 0 0 1 -60.0,225.0Z" fill="none" stroke="#0d0d0d" stroke-width="1.4" opacity="0.2"/><path d="M0.0,225.0 A33.0,38.5 0 0 1 60.0,225.0 A33.0,38.5 0 0 1 0.0,225.0Z" fill="none" stroke="#0d0d0d" stroke-width="1.4" opacity="0.85"/><path d="M60.0,225.0 A33.0,38.5 0 0 1 120.0,225.0 A33.0,38.5 0 0 1 60.0,225.0Z" fill="none" stroke="#c0392b" stroke-width="1.4" opacity="0.45"/><path d="M120.0,225.0 A33.0,38.5 0 0 1 180.0,225.0 A33.0,38.5 0 0 1 120.0,225.0Z" fill="none" stroke="#0d0d0d" stroke-width="1.4" opacity="0.2"/><path d="M180.0,225.0 A33.0,38.5 0 0 1 240.0,225.0 A33.0,38.5 0 0 1 180.0,225.0Z" fill="none" stroke="#0d0d0d" stroke-width="1.4" opacity="0.85"/><path d="M240.0,225.0 A33.0,38.5 0 0 1 300.0,225.0 A33.0,38.5 0 0 1 240.0,225.0Z" fill="none" stroke="#0d0d0d" stroke-width="1.4" opacity="0.45"/><path d="M300.0,225.0 A33.0,38.5 0 0 1 360.0,225.0 A33.0,38.5 0 0 1 300.0,225.0Z" fill="none" stroke="#0d0d0d" stroke-width="1.4" opacity="0.2"/><path d="M360.0,225.0 A33.0,38.5 0 0 1 420.0,225.0 A33.0,38.5 0 0 1 360.0,225.0Z" fill="none" stroke="#c0392b" stroke-width="1.4" opacity="0.85"/><path d="M420.0,225.0 A33.0,38.5 0 0 1 480.0,225.0 A33.0,38.5 0 0 1 420.0,225.0Z" fill="none" stroke="#0d0d0d" stroke-width="1.4" opacity="0.45"/><path d="M480.0,225.0 A33.0,38.5 0 0 1 540.0,225.0 A33.0,38.5 0 0 1 480.0,225.0Z" fill="none" stroke="#0d0d0d" stroke-width="1.4" opacity="0.2"/><path d="M540.0,225.0 A33.0,38.5 0 0 1 600.0,225.0 A33.0,38.5 0 0 1 540.0,225.0Z" fill="none" stroke="#0d0d0d" stroke-width="1.4" opacity="0.85"/><path d="M600.0,225.0 A33.0,38.5 0 0 1 660.0,225.0 A33.0,38.5 0 0 1 600.0,225.0Z" fill="none" stroke="#0d0d0d" stroke-width="1.4" opacity="0.45"/><path d="M660.0,225.0 A33.0,38.5 0 0 1 720.0,225.0 A33.0,38.5 0 0 1 660.0,225.0Z" fill="none" stroke="#c0392b" stroke-width="1.4" opacity="0.2"/><path d="M720.0,225.0 A33.0,38.5 0 0 1 780.0,225.0 A33.0,38.5 0 0 1 720.0,225.0Z" fill="none" stroke="#0d0d0d" stroke-width="1.4" opacity="0.85"/><path d="M780.0,225.0 A33.0,38.5 0 0 1 840.0,225.0 A33.0,38.5 0 0 1 780.0,225.0Z" fill="none" stroke="#0d0d0d" stroke-width="1.4" opacity="0.45"/><path d="M840.0,225.0 A33.0,38.5 0 0 1 900.0,225.0 A33.0,38.5 0 0 1 840.0,225.0Z" fill="none" stroke="#0d0d0d" stroke-width="1.4" opacity="0.2"/><path d="M900.0,225.0 A33.0,38.5 0 0 1 960.0,225.0 A33.0,38.5 0 0 1 900.0,225.0Z" fill="none" stroke="#0d0d0d" stroke-width="1.4" opacity="0.85"/><path d="M960.0,225.0 A33.0,38.5 0 0 1 1020.0,225.0 A33.0,38.5 0 0 1 960.0,225.0Z" fill="none" stroke="#c0392b" stroke-width="1.4" opacity="0.45"/><path d="M1020.0,225.0 A33.0,38.5 0 0 1 1080.0,225.0 A33.0,38.5 0 0 1 1020.0,225.0Z" fill="none" stroke="#0d0d0d" stroke-width="1.4" opacity="0.2"/><path d="M1080.0,225.0 A33.0,38.5 0 0 1 1140.0,225.0 A33.0,38.5 0 0 1 1080.0,225.0Z" fill="none" stroke="#0d0d0d" stroke-width="1.4" opacity="0.85"/><path d="M1140.0,225.0 A33.0,38.5 0 0 1 1200.0,225.0 A33.0,38.5 0 0 1 1140.0,225.0Z" fill="none" stroke="#0d0d0d" stroke-width="1.4" opacity="0.45"/><path d="M1200.0,225.0 A33.0,38.5 0 0 1 1260.0,225.0 A33.0,38.5 0 0 1 1200.0,225.0Z" fill="none" stroke="#0d0d0d" stroke-width="1.4" opacity="0.2"/><path d="M1260.0,225.0 A33.0,38.5 0 0 1 1320.0,225.0 A33.0,38.5 0 0 1 1260.0,225.0Z" fill="none" stroke="#c0392b" stroke-width="1.4" opacity="0.85"/><path d="M-30.0,260.0 A33.0,38.5 0 0 1 30.0,260.0 A33.0,38.5 0 0 1 -30.0,260.0Z" fill="none" stroke="#0d0d0d" stroke-width="1.4" opacity="0.85"/><path d="M30.0,260.0 A33.0,38.5 0 0 1 90.0,260.0 A33.0,38.5 0 0 1 30.0,260.0Z" fill="none" stroke="#c0392b" stroke-width="1.4" opacity="0.45"/><path d="M90.0,260.0 A33.0,38.5 0 0 1 150.0,260.0 A33.0,38.5 0 0 1 90.0,260.0Z" fill="none" stroke="#0d0d0d" stroke-width="1.4" opacity="0.2"/><path d="M150.0,260.0 A33.0,38.5 0 0 1 210.0,260.0 A33.0,38.5 0 0 1 150.0,260.0Z" fill="none" stroke="#0d0d0d" stroke-width="1.4" opacity="0.85"/><path d="M210.0,260.0 A33.0,38.5 0 0 1 270.0,260.0 A33.0,38.5 0 0 1 210.0,260.0Z" fill="none" stroke="#0d0d0d" stroke-width="1.4" opacity="0.45"/><path d="M270.0,260.0 A33.0,38.5 0 0 1 330.0,260.0 A33.0,38.5 0 0 1 270.0,260.0Z" fill="none" stroke="#0d0d0d" stroke-width="1.4" opacity="0.2"/><path d="M330.0,260.0 A33.0,38.5 0 0 1 390.0,260.0 A33.0,38.5 0 0 1 330.0,260.0Z" fill="none" stroke="#c0392b" stroke-width="1.4" opacity="0.85"/><path d="M390.0,260.0 A33.0,38.5 0 0 1 450.0,260.0 A33.0,38.5 0 0 1 390.0,260.0Z" fill="none" stroke="#0d0d0d" stroke-width="1.4" opacity="0.45"/><path d="M450.0,260.0 A33.0,38.5 0 0 1 510.0,260.0 A33.0,38.5 0 0 1 450.0,260.0Z" fill="none" stroke="#0d0d0d" stroke-width="1.4" opacity="0.2"/><path d="M510.0,260.0 A33.0,38.5 0 0 1 570.0,260.0 A33.0,38.5 0 0 1 510.0,260.0Z" fill="none" stroke="#0d0d0d" stroke-width="1.4" opacity="0.85"/><path d="M570.0,260.0 A33.0,38.5 0 0 1 630.0,260.0 A33.0,38.5 0 0 1 570.0,260.0Z" fill="none" stroke="#0d0d0d" stroke-width="1.4" opacity="0.45"/><path d="M630.0,260.0 A33.0,38.5 0 0 1 690.0,260.0 A33.0,38.5 0 0 1 630.0,260.0Z" fill="none" stroke="#c0392b" stroke-width="1.4" opacity="0.2"/><path d="M690.0,260.0 A33.0,38.5 0 0 1 750.0,260.0 A33.0,38.5 0 0 1 690.0,260.0Z" fill="none" stroke="#0d0d0d" stroke-width="1.4" opacity="0.85"/><path d="M750.0,260.0 A33.0,38.5 0 0 1 810.0,260.0 A33.0,38.5 0 0 1 750.0,260.0Z" fill="none" stroke="#0d0d0d" stroke-width="1.4" opacity="0.45"/><path d="M810.0,260.0 A33.0,38.5 0 0 1 870.0,260.0 A33.0,38.5 0 0 1 810.0,260.0Z" fill="none" stroke="#0d0d0d" stroke-width="1.4" opacity="0.2"/><path d="M870.0,260.0 A33.0,38.5 0 0 1 930.0,260.0 A33.0,38.5 0 0 1 870.0,260.0Z" fill="none" stroke="#0d0d0d" stroke-width="1.4" opacity="0.85"/><path d="M930.0,260.0 A33.0,38.5 0 0 1 990.0,260.0 A33.0,38.5 0 0 1 930.0,260.0Z" fill="none" stroke="#c0392b" stroke-width="1.4" opacity="0.45"/><path d="M990.0,260.0 A33.0,38.5 0 0 1 1050.0,260.0 A33.0,38.5 0 0 1 990.0,260.0Z" fill="none" stroke="#0d0d0d" stroke-width="1.4" opacity="0.2"/><path d="M1050.0,260.0 A33.0,38.5 0 0 1 1110.0,260.0 A33.0,38.5 0 0 1 1050.0,260.0Z" fill="none" stroke="#0d0d0d" stroke-width="1.4" opacity="0.85"/><path d="M1110.0,260.0 A33.0,38.5 0 0 1 1170.0,260.0 A33.0,38.5 0 0 1 1110.0,260.0Z" fill="none" stroke="#0d0d0d" stroke-width="1.4" opacity="0.45"/><path d="M1170.0,260.0 A33.0,38.5 0 0 1 1230.0,260.0 A33.0,38.5 0 0 1 1170.0,260.0Z" fill="none" stroke="#0d0d0d" stroke-width="1.4" opacity="0.2"/><path d="M1230.0,260.0 A33.0,38.5 0 0 1 1290.0,260.0 A33.0,38.5 0 0 1 1230.0,260.0Z" fill="none" stroke="#c0392b" stroke-width="1.4" opacity="0.85"/><path d="M1290.0,260.0 A33.0,38.5 0 0 1 1350.0,260.0 A33.0,38.5 0 0 1 1290.0,260.0Z" fill="none" stroke="#0d0d0d" stroke-width="1.4" opacity="0.45"/><path d="M-60.0,295.0 A33.0,38.5 0 0 1 0.0,295.0 A33.0,38.5 0 0 1 -60.0,295.0Z" fill="none" stroke="#c0392b" stroke-width="1.4" opacity="0.45"/><path d="M0.0,295.0 A33.0,38.5 0 0 1 60.0,295.0 A33.0,38.5 0 0 1 0.0,295.0Z" fill="none" stroke="#0d0d0d" stroke-width="1.4" opacity="0.2"/><path d="M60.0,295.0 A33.0,38.5 0 0 1 120.0,295.0 A33.0,38.5 0 0 1 60.0,295.0Z" fill="none" stroke="#0d0d0d" stroke-width="1.4" opacity="0.85"/><path d="M120.0,295.0 A33.0,38.5 0 0 1 180.0,295.0 A33.0,38.5 0 0 1 120.0,295.0Z" fill="none" stroke="#0d0d0d" stroke-width="1.4" opacity="0.45"/><path d="M180.0,295.0 A33.0,38.5 0 0 1 240.0,295.0 A33.0,38.5 0 0 1 180.0,295.0Z" fill="none" stroke="#0d0d0d" stroke-width="1.4" opacity="0.2"/><path d="M240.0,295.0 A33.0,38.5 0 0 1 300.0,295.0 A33.0,38.5 0 0 1 240.0,295.0Z" fill="none" stroke="#c0392b" stroke-width="1.4" opacity="0.85"/><path d="M300.0,295.0 A33.0,38.5 0 0 1 360.0,295.0 A33.0,38.5 0 0 1 300.0,295.0Z" fill="none" stroke="#0d0d0d" stroke-width="1.4" opacity="0.45"/><path d="M360.0,295.0 A33.0,38.5 0 0 1 420.0,295.0 A33.0,38.5 0 0 1 360.0,295.0Z" fill="none" stroke="#0d0d0d" stroke-width="1.4" opacity="0.2"/><path d="M420.0,295.0 A33.0,38.5 0 0 1 480.0,295.0 A33.0,38.5 0 0 1 420.0,295.0Z" fill="none" stroke="#0d0d0d" stroke-width="1.4" opacity="0.85"/><path d="M480.0,295.0 A33.0,38.5 0 0 1 540.0,295.0 A33.0,38.5 0 0 1 480.0,295.0Z" fill="none" stroke="#0d0d0d" stroke-width="1.4" opacity="0.45"/><path d="M540.0,295.0 A33.0,38.5 0 0 1 600.0,295.0 A33.0,38.5 0 0 1 540.0,295.0Z" fill="none" stroke="#c0392b" stroke-width="1.4" opacity="0.2"/><path d="M600.0,295.0 A33.0,38.5 0 0 1 660.0,295.0 A33.0,38.5 0 0 1 600.0,295.0Z" fill="none" stroke="#0d0d0d" stroke-width="1.4" opacity="0.85"/><path d="M660.0,295.0 A33.0,38.5 0 0 1 720.0,295.0 A33.0,38.5 0 0 1 660.0,295.0Z" fill="none" stroke="#0d0d0d" stroke-width="1.4" opacity="0.45"/><path d="M720.0,295.0 A33.0,38.5 0 0 1 780.0,295.0 A33.0,38.5 0 0 1 720.0,295.0Z" fill="none" stroke="#0d0d0d" stroke-width="1.4" opacity="0.2"/><path d="M780.0,295.0 A33.0,38.5 0 0 1 840.0,295.0 A33.0,38.5 0 0 1 780.0,295.0Z" fill="none" stroke="#0d0d0d" stroke-width="1.4" opacity="0.85"/><path d="M840.0,295.0 A33.0,38.5 0 0 1 900.0,295.0 A33.0,38.5 0 0 1 840.0,295.0Z" fill="none" stroke="#c0392b" stroke-width="1.4" opacity="0.45"/><path d="M900.0,295.0 A33.0,38.5 0 0 1 960.0,295.0 A33.0,38.5 0 0 1 900.0,295.0Z" fill="none" stroke="#0d0d0d" stroke-width="1.4" opacity="0.2"/><path d="M960.0,295.0 A33.0,38.5 0 0 1 1020.0,295.0 A33.0,38.5 0 0 1 960.0,295.0Z" fill="none" stroke="#0d0d0d" stroke-width="1.4" opacity="0.85"/><path d="M1020.0,295.0 A33.0,38.5 0 0 1 1080.0,295.0 A33.0,38.5 0 0 1 1020.0,295.0Z" fill="none" stroke="#0d0d0d" stroke-width="1.4" opacity="0.45"/><path d="M1080.0,295.0 A33.0,38.5 0 0 1 1140.0,295.0 A33.0,38.5 0 0 1 1080.0,295.0Z" fill="none" stroke="#0d0d0d" stroke-width="1.4" opacity="0.2"/><path d="M1140.0,295.0 A33.0,38.5 0 0 1 1200.0,295.0 A33.0,38.5 0 0 1 1140.0,295.0Z" fill="none" stroke="#c0392b" stroke-width="1.4" opacity="0.85"/><path d="M1200.0,295.0 A33.0,38.5 0 0 1 1260.0,295.0 A33.0,38.5 0 0 1 1200.0,295.0Z" fill="none" stroke="#0d0d0d" stroke-width="1.4" opacity="0.45"/><path d="M1260.0,295.0 A33.0,38.5 0 0 1 1320.0,295.0 A33.0,38.5 0 0 1 1260.0,295.0Z" fill="none" stroke="#0d0d0d" stroke-width="1.4" opacity="0.2"/><path d="M-30.0,330.0 A33.0,38.5 0 0 1 30.0,330.0 A33.0,38.5 0 0 1 -30.0,330.0Z" fill="none" stroke="#0d0d0d" stroke-width="1.4" opacity="0.2"/><path d="M30.0,330.0 A33.0,38.5 0 0 1 90.0,330.0 A33.0,38.5 0 0 1 30.0,330.0Z" fill="none" stroke="#0d0d0d" stroke-width="1.4" opacity="0.85"/><path d="M90.0,330.0 A33.0,38.5 0 0 1 150.0,330.0 A33.0,38.5 0 0 1 90.0,330.0Z" fill="none" stroke="#0d0d0d" stroke-width="1.4" opacity="0.45"/><path d="M150.0,330.0 A33.0,38.5 0 0 1 210.0,330.0 A33.0,38.5 0 0 1 150.0,330.0Z" fill="none" stroke="#0d0d0d" stroke-width="1.4" opacity="0.2"/><path d="M210.0,330.0 A33.0,38.5 0 0 1 270.0,330.0 A33.0,38.5 0 0 1 210.0,330.0Z" fill="none" stroke="#c0392b" stroke-width="1.4" opacity="0.85"/><path d="M270.0,330.0 A33.0,38.5 0 0 1 330.0,330.0 A33.0,38.5 0 0 1 270.0,330.0Z" fill="none" stroke="#0d0d0d" stroke-width="1.4" opacity="0.45"/><path d="M330.0,330.0 A33.0,38.5 0 0 1 390.0,330.0 A33.0,38.5 0 0 1 330.0,330.0Z" fill="none" stroke="#0d0d0d" stroke-width="1.4" opacity="0.2"/><path d="M390.0,330.0 A33.0,38.5 0 0 1 450.0,330.0 A33.0,38.5 0 0 1 390.0,330.0Z" fill="none" stroke="#0d0d0d" stroke-width="1.4" opacity="0.85"/><path d="M450.0,330.0 A33.0,38.5 0 0 1 510.0,330.0 A33.0,38.5 0 0 1 450.0,330.0Z" fill="none" stroke="#0d0d0d" stroke-width="1.4" opacity="0.45"/><path d="M510.0,330.0 A33.0,38.5 0 0 1 570.0,330.0 A33.0,38.5 0 0 1 510.0,330.0Z" fill="none" stroke="#c0392b" stroke-width="1.4" opacity="0.2"/><path d="M570.0,330.0 A33.0,38.5 0 0 1 630.0,330.0 A33.0,38.5 0 0 1 570.0,330.0Z" fill="none" stroke="#0d0d0d" stroke-width="1.4" opacity="0.85"/><path d="M630.0,330.0 A33.0,38.5 0 0 1 690.0,330.0 A33.0,38.5 0 0 1 630.0,330.0Z" fill="none" stroke="#0d0d0d" stroke-width="1.4" opacity="0.45"/><path d="M690.0,330.0 A33.0,38.5 0 0 1 750.0,330.0 A33.0,38.5 0 0 1 690.0,330.0Z" fill="none" stroke="#0d0d0d" stroke-width="1.4" opacity="0.2"/><path d="M750.0,330.0 A33.0,38.5 0 0 1 810.0,330.0 A33.0,38.5 0 0 1 750.0,330.0Z" fill="none" stroke="#0d0d0d" stroke-width="1.4" opacity="0.85"/><path d="M810.0,330.0 A33.0,38.5 0 0 1 870.0,330.0 A33.0,38.5 0 0 1 810.0,330.0Z" fill="none" stroke="#c0392b" stroke-width="1.4" opacity="0.45"/><path d="M870.0,330.0 A33.0,38.5 0 0 1 930.0,330.0 A33.0,38.5 0 0 1 870.0,330.0Z" fill="none" stroke="#0d0d0d" stroke-width="1.4" opacity="0.2"/><path d="M930.0,330.0 A33.0,38.5 0 0 1 990.0,330.0 A33.0,38.5 0 0 1 930.0,330.0Z" fill="none" stroke="#0d0d0d" stroke-width="1.4" opacity="0.85"/><path d="M990.0,330.0 A33.0,38.5 0 0 1 1050.0,330.0 A33.0,38.5 0 0 1 990.0,330.0Z" fill="none" stroke="#0d0d0d" stroke-width="1.4" opacity="0.45"/><path d="M1050.0,330.0 A33.0,38.5 0 0 1 1110.0,330.0 A33.0,38.5 0 0 1 1050.0,330.0Z" fill="none" stroke="#0d0d0d" stroke-width="1.4" opacity="0.2"/><path d="M1110.0,330.0 A33.0,38.5 0 0 1 1170.0,330.0 A33.0,38.5 0 0 1 1110.0,330.0Z" fill="none" stroke="#c0392b" stroke-width="1.4" opacity="0.85"/><path d="M1170.0,330.0 A33.0,38.5 0 0 1 1230.0,330.0 A33.0,38.5 0 0 1 1170.0,330.0Z" fill="none" stroke="#0d0d0d" stroke-width="1.4" opacity="0.45"/><path d="M1230.0,330.0 A33.0,38.5 0 0 1 1290.0,330.0 A33.0,38.5 0 0 1 1230.0,330.0Z" fill="none" stroke="#0d0d0d" stroke-width="1.4" opacity="0.2"/><path d="M1290.0,330.0 A33.0,38.5 0 0 1 1350.0,330.0 A33.0,38.5 0 0 1 1290.0,330.0Z" fill="none" stroke="#0d0d0d" stroke-width="1.4" opacity="0.85"/><path d="M-60.0,365.0 A33.0,38.5 0 0 1 0.0,365.0 A33.0,38.5 0 0 1 -60.0,365.0Z" fill="none" stroke="#0d0d0d" stroke-width="1.4" opacity="0.85"/><path d="M0.0,365.0 A33.0,38.5 0 0 1 60.0,365.0 A33.0,38.5 0 0 1 0.0,365.0Z" fill="none" stroke="#0d0d0d" stroke-width="1.4" opacity="0.45"/><path d="M60.0,365.0 A33.0,38.5 0 0 1 120.0,365.0 A33.0,38.5 0 0 1 60.0,365.0Z" fill="none" stroke="#0d0d0d" stroke-width="1.4" opacity="0.2"/><path d="M120.0,365.0 A33.0,38.5 0 0 1 180.0,365.0 A33.0,38.5 0 0 1 120.0,365.0Z" fill="none" stroke="#c0392b" stroke-width="1.4" opacity="0.85"/><path d="M180.0,365.0 A33.0,38.5 0 0 1 240.0,365.0 A33.0,38.5 0 0 1 180.0,365.0Z" fill="none" stroke="#0d0d0d" stroke-width="1.4" opacity="0.45"/><path d="M240.0,365.0 A33.0,38.5 0 0 1 300.0,365.0 A33.0,38.5 0 0 1 240.0,365.0Z" fill="none" stroke="#0d0d0d" stroke-width="1.4" opacity="0.2"/><path d="M300.0,365.0 A33.0,38.5 0 0 1 360.0,365.0 A33.0,38.5 0 0 1 300.0,365.0Z" fill="none" stroke="#0d0d0d" stroke-width="1.4" opacity="0.85"/><path d="M360.0,365.0 A33.0,38.5 0 0 1 420.0,365.0 A33.0,38.5 0 0 1 360.0,365.0Z" fill="none" stroke="#0d0d0d" stroke-width="1.4" opacity="0.45"/><path d="M420.0,365.0 A33.0,38.5 0 0 1 480.0,365.0 A33.0,38.5 0 0 1 420.0,365.0Z" fill="none" stroke="#c0392b" stroke-width="1.4" opacity="0.2"/><path d="M480.0,365.0 A33.0,38.5 0 0 1 540.0,365.0 A33.0,38.5 0 0 1 480.0,365.0Z" fill="none" stroke="#0d0d0d" stroke-width="1.4" opacity="0.85"/><path d="M540.0,365.0 A33.0,38.5 0 0 1 600.0,365.0 A33.0,38.5 0 0 1 540.0,365.0Z" fill="none" stroke="#0d0d0d" stroke-width="1.4" opacity="0.45"/><path d="M600.0,365.0 A33.0,38.5 0 0 1 660.0,365.0 A33.0,38.5 0 0 1 600.0,365.0Z" fill="none" stroke="#0d0d0d" stroke-width="1.4" opacity="0.2"/><path d="M660.0,365.0 A33.0,38.5 0 0 1 720.0,365.0 A33.0,38.5 0 0 1 660.0,365.0Z" fill="none" stroke="#0d0d0d" stroke-width="1.4" opacity="0.85"/><path d="M720.0,365.0 A33.0,38.5 0 0 1 780.0,365.0 A33.0,38.5 0 0 1 720.0,365.0Z" fill="none" stroke="#c0392b" stroke-width="1.4" opacity="0.45"/><path d="M780.0,365.0 A33.0,38.5 0 0 1 840.0,365.0 A33.0,38.5 0 0 1 780.0,365.0Z" fill="none" stroke="#0d0d0d" stroke-width="1.4" opacity="0.2"/><path d="M840.0,365.0 A33.0,38.5 0 0 1 900.0,365.0 A33.0,38.5 0 0 1 840.0,365.0Z" fill="none" stroke="#0d0d0d" stroke-width="1.4" opacity="0.85"/><path d="M900.0,365.0 A33.0,38.5 0 0 1 960.0,365.0 A33.0,38.5 0 0 1 900.0,365.0Z" fill="none" stroke="#0d0d0d" stroke-width="1.4" opacity="0.45"/><path d="M960.0,365.0 A33.0,38.5 0 0 1 1020.0,365.0 A33.0,38.5 0 0 1 960.0,365.0Z" fill="none" stroke="#0d0d0d" stroke-width="1.4" opacity="0.2"/><path d="M1020.0,365.0 A33.0,38.5 0 0 1 1080.0,365.0 A33.0,38.5 0 0 1 1020.0,365.0Z" fill="none" stroke="#c0392b" stroke-width="1.4" opacity="0.85"/><path d="M1080.0,365.0 A33.0,38.5 0 0 1 1140.0,365.0 A33.0,38.5 0 0 1 1080.0,365.0Z" fill="none" stroke="#0d0d0d" stroke-width="1.4" opacity="0.45"/><path d="M1140.0,365.0 A33.0,38.5 0 0 1 1200.0,365.0 A33.0,38.5 0 0 1 1140.0,365.0Z" fill="none" stroke="#0d0d0d" stroke-width="1.4" opacity="0.2"/><path d="M1200.0,365.0 A33.0,38.5 0 0 1 1260.0,365.0 A33.0,38.5 0 0 1 1200.0,365.0Z" fill="none" stroke="#0d0d0d" stroke-width="1.4" opacity="0.85"/><path d="M1260.0,365.0 A33.0,38.5 0 0 1 1320.0,365.0 A33.0,38.5 0 0 1 1260.0,365.0Z" fill="none" stroke="#0d0d0d" stroke-width="1.4" opacity="0.45"/><path d="M-30.0,400.0 A33.0,38.5 0 0 1 30.0,400.0 A33.0,38.5 0 0 1 -30.0,400.0Z" fill="none" stroke="#0d0d0d" stroke-width="1.4" opacity="0.45"/><path d="M30.0,400.0 A33.0,38.5 0 0 1 90.0,400.0 A33.0,38.5 0 0 1 30.0,400.0Z" fill="none" stroke="#0d0d0d" stroke-width="1.4" opacity="0.2"/><path d="M90.0,400.0 A33.0,38.5 0 0 1 150.0,400.0 A33.0,38.5 0 0 1 90.0,400.0Z" fill="none" stroke="#c0392b" stroke-width="1.4" opacity="0.85"/><path d="M150.0,400.0 A33.0,38.5 0 0 1 210.0,400.0 A33.0,38.5 0 0 1 150.0,400.0Z" fill="none" stroke="#0d0d0d" stroke-width="1.4" opacity="0.45"/><path d="M210.0,400.0 A33.0,38.5 0 0 1 270.0,400.0 A33.0,38.5 0 0 1 210.0,400.0Z" fill="none" stroke="#0d0d0d" stroke-width="1.4" opacity="0.2"/><path d="M270.0,400.0 A33.0,38.5 0 0 1 330.0,400.0 A33.0,38.5 0 0 1 270.0,400.0Z" fill="none" stroke="#0d0d0d" stroke-width="1.4" opacity="0.85"/><path d="M330.0,400.0 A33.0,38.5 0 0 1 390.0,400.0 A33.0,38.5 0 0 1 330.0,400.0Z" fill="none" stroke="#0d0d0d" stroke-width="1.4" opacity="0.45"/><path d="M390.0,400.0 A33.0,38.5 0 0 1 450.0,400.0 A33.0,38.5 0 0 1 390.0,400.0Z" fill="none" stroke="#c0392b" stroke-width="1.4" opacity="0.2"/><path d="M450.0,400.0 A33.0,38.5 0 0 1 510.0,400.0 A33.0,38.5 0 0 1 450.0,400.0Z" fill="none" stroke="#0d0d0d" stroke-width="1.4" opacity="0.85"/><path d="M510.0,400.0 A33.0,38.5 0 0 1 570.0,400.0 A33.0,38.5 0 0 1 510.0,400.0Z" fill="none" stroke="#0d0d0d" stroke-width="1.4" opacity="0.45"/><path d="M570.0,400.0 A33.0,38.5 0 0 1 630.0,400.0 A33.0,38.5 0 0 1 570.0,400.0Z" fill="none" stroke="#0d0d0d" stroke-width="1.4" opacity="0.2"/><path d="M630.0,400.0 A33.0,38.5 0 0 1 690.0,400.0 A33.0,38.5 0 0 1 630.0,400.0Z" fill="none" stroke="#0d0d0d" stroke-width="1.4" opacity="0.85"/><path d="M690.0,400.0 A33.0,38.5 0 0 1 750.0,400.0 A33.0,38.5 0 0 1 690.0,400.0Z" fill="none" stroke="#c0392b" stroke-width="1.4" opacity="0.45"/><path d="M750.0,400.0 A33.0,38.5 0 0 1 810.0,400.0 A33.0,38.5 0 0 1 750.0,400.0Z" fill="none" stroke="#0d0d0d" stroke-width="1.4" opacity="0.2"/><path d="M810.0,400.0 A33.0,38.5 0 0 1 870.0,400.0 A33.0,38.5 0 0 1 810.0,400.0Z" fill="none" stroke="#0d0d0d" stroke-width="1.4" opacity="0.85"/><path d="M870.0,400.0 A33.0,38.5 0 0 1 930.0,400.0 A33.0,38.5 0 0 1 870.0,400.0Z" fill="none" stroke="#0d0d0d" stroke-width="1.4" opacity="0.45"/><path d="M930.0,400.0 A33.0,38.5 0 0 1 990.0,400.0 A33.0,38.5 0 0 1 930.0,400.0Z" fill="none" stroke="#0d0d0d" stroke-width="1.4" opacity="0.2"/><path d="M990.0,400.0 A33.0,38.5 0 0 1 1050.0,400.0 A33.0,38.5 0 0 1 990.0,400.0Z" fill="none" stroke="#c0392b" stroke-width="1.4" opacity="0.85"/><path d="M1050.0,400.0 A33.0,38.5 0 0 1 1110.0,400.0 A33.0,38.5 0 0 1 1050.0,400.0Z" fill="none" stroke="#0d0d0d" stroke-width="1.4" opacity="0.45"/><path d="M1110.0,400.0 A33.0,38.5 0 0 1 1170.0,400.0 A33.0,38.5 0 0 1 1110.0,400.0Z" fill="none" stroke="#0d0d0d" stroke-width="1.4" opacity="0.2"/><path d="M1170.0,400.0 A33.0,38.5 0 0 1 1230.0,400.0 A33.0,38.5 0 0 1 1170.0,400.0Z" fill="none" stroke="#0d0d0d" stroke-width="1.4" opacity="0.85"/><path d="M1230.0,400.0 A33.0,38.5 0 0 1 1290.0,400.0 A33.0,38.5 0 0 1 1230.0,400.0Z" fill="none" stroke="#0d0d0d" stroke-width="1.4" opacity="0.45"/><path d="M1290.0,400.0 A33.0,38.5 0 0 1 1350.0,400.0 A33.0,38.5 0 0 1 1290.0,400.0Z" fill="none" stroke="#c0392b" stroke-width="1.4" opacity="0.2"/><path d="M-60.0,435.0 A33.0,38.5 0 0 1 0.0,435.0 A33.0,38.5 0 0 1 -60.0,435.0Z" fill="none" stroke="#0d0d0d" stroke-width="1.4" opacity="0.2"/><path d="M0.0,435.0 A33.0,38.5 0 0 1 60.0,435.0 A33.0,38.5 0 0 1 0.0,435.0Z" fill="none" stroke="#c0392b" stroke-width="1.4" opacity="0.85"/><path d="M60.0,435.0 A33.0,38.5 0 0 1 120.0,435.0 A33.0,38.5 0 0 1 60.0,435.0Z" fill="none" stroke="#0d0d0d" stroke-width="1.4" opacity="0.45"/><path d="M120.0,435.0 A33.0,38.5 0 0 1 180.0,435.0 A33.0,38.5 0 0 1 120.0,435.0Z" fill="none" stroke="#0d0d0d" stroke-width="1.4" opacity="0.2"/><path d="M180.0,435.0 A33.0,38.5 0 0 1 240.0,435.0 A33.0,38.5 0 0 1 180.0,435.0Z" fill="none" stroke="#0d0d0d" stroke-width="1.4" opacity="0.85"/><path d="M240.0,435.0 A33.0,38.5 0 0 1 300.0,435.0 A33.0,38.5 0 0 1 240.0,435.0Z" fill="none" stroke="#0d0d0d" stroke-width="1.4" opacity="0.45"/><path d="M300.0,435.0 A33.0,38.5 0 0 1 360.0,435.0 A33.0,38.5 0 0 1 300.0,435.0Z" fill="none" stroke="#c0392b" stroke-width="1.4" opacity="0.2"/><path d="M360.0,435.0 A33.0,38.5 0 0 1 420.0,435.0 A33.0,38.5 0 0 1 360.0,435.0Z" fill="none" stroke="#0d0d0d" stroke-width="1.4" opacity="0.85"/><path d="M420.0,435.0 A33.0,38.5 0 0 1 480.0,435.0 A33.0,38.5 0 0 1 420.0,435.0Z" fill="none" stroke="#0d0d0d" stroke-width="1.4" opacity="0.45"/><path d="M480.0,435.0 A33.0,38.5 0 0 1 540.0,435.0 A33.0,38.5 0 0 1 480.0,435.0Z" fill="none" stroke="#0d0d0d" stroke-width="1.4" opacity="0.2"/><path d="M540.0,435.0 A33.0,38.5 0 0 1 600.0,435.0 A33.0,38.5 0 0 1 540.0,435.0Z" fill="none" stroke="#0d0d0d" stroke-width="1.4" opacity="0.85"/><path d="M600.0,435.0 A33.0,38.5 0 0 1 660.0,435.0 A33.0,38.5 0 0 1 600.0,435.0Z" fill="none" stroke="#c0392b" stroke-width="1.4" opacity="0.45"/><path d="M660.0,435.0 A33.0,38.5 0 0 1 720.0,435.0 A33.0,38.5 0 0 1 660.0,435.0Z" fill="none" stroke="#0d0d0d" stroke-width="1.4" opacity="0.2"/><path d="M720.0,435.0 A33.0,38.5 0 0 1 780.0,435.0 A33.0,38.5 0 0 1 720.0,435.0Z" fill="none" stroke="#0d0d0d" stroke-width="1.4" opacity="0.85"/><path d="M780.0,435.0 A33.0,38.5 0 0 1 840.0,435.0 A33.0,38.5 0 0 1 780.0,435.0Z" fill="none" stroke="#0d0d0d" stroke-width="1.4" opacity="0.45"/><path d="M840.0,435.0 A33.0,38.5 0 0 1 900.0,435.0 A33.0,38.5 0 0 1 840.0,435.0Z" fill="none" stroke="#0d0d0d" stroke-width="1.4" opacity="0.2"/><path d="M900.0,435.0 A33.0,38.5 0 0 1 960.0,435.0 A33.0,38.5 0 0 1 900.0,435.0Z" fill="none" stroke="#c0392b" stroke-width="1.4" opacity="0.85"/><path d="M960.0,435.0 A33.0,38.5 0 0 1 1020.0,435.0 A33.0,38.5 0 0 1 960.0,435.0Z" fill="none" stroke="#0d0d0d" stroke-width="1.4" opacity="0.45"/><path d="M1020.0,435.0 A33.0,38.5 0 0 1 1080.0,435.0 A33.0,38.5 0 0 1 1020.0,435.0Z" fill="none" stroke="#0d0d0d" stroke-width="1.4" opacity="0.2"/><path d="M1080.0,435.0 A33.0,38.5 0 0 1 1140.0,435.0 A33.0,38.5 0 0 1 1080.0,435.0Z" fill="none" stroke="#0d0d0d" stroke-width="1.4" opacity="0.85"/><path d="M1140.0,435.0 A33.0,38.5 0 0 1 1200.0,435.0 A33.0,38.5 0 0 1 1140.0,435.0Z" fill="none" stroke="#0d0d0d" stroke-width="1.4" opacity="0.45"/><path d="M1200.0,435.0 A33.0,38.5 0 0 1 1260.0,435.0 A33.0,38.5 0 0 1 1200.0,435.0Z" fill="none" stroke="#c0392b" stroke-width="1.4" opacity="0.2"/><path d="M1260.0,435.0 A33.0,38.5 0 0 1 1320.0,435.0 A33.0,38.5 0 0 1 1260.0,435.0Z" fill="none" stroke="#0d0d0d" stroke-width="1.4" opacity="0.85"/><path d="M-30.0,470.0 A33.0,38.5 0 0 1 30.0,470.0 A33.0,38.5 0 0 1 -30.0,470.0Z" fill="none" stroke="#c0392b" stroke-width="1.4" opacity="0.85"/><path d="M30.0,470.0 A33.0,38.5 0 0 1 90.0,470.0 A33.0,38.5 0 0 1 30.0,470.0Z" fill="none" stroke="#0d0d0d" stroke-width="1.4" opacity="0.45"/><path d="M90.0,470.0 A33.0,38.5 0 0 1 150.0,470.0 A33.0,38.5 0 0 1 90.0,470.0Z" fill="none" stroke="#0d0d0d" stroke-width="1.4" opacity="0.2"/><path d="M150.0,470.0 A33.0,38.5 0 0 1 210.0,470.0 A33.0,38.5 0 0 1 150.0,470.0Z" fill="none" stroke="#0d0d0d" stroke-width="1.4" opacity="0.85"/><path d="M210.0,470.0 A33.0,38.5 0 0 1 270.0,470.0 A33.0,38.5 0 0 1 210.0,470.0Z" fill="none" stroke="#0d0d0d" stroke-width="1.4" opacity="0.45"/><path d="M270.0,470.0 A33.0,38.5 0 0 1 330.0,470.0 A33.0,38.5 0 0 1 270.0,470.0Z" fill="none" stroke="#c0392b" stroke-width="1.4" opacity="0.2"/><path d="M330.0,470.0 A33.0,38.5 0 0 1 390.0,470.0 A33.0,38.5 0 0 1 330.0,470.0Z" fill="none" stroke="#0d0d0d" stroke-width="1.4" opacity="0.85"/><path d="M390.0,470.0 A33.0,38.5 0 0 1 450.0,470.0 A33.0,38.5 0 0 1 390.0,470.0Z" fill="none" stroke="#0d0d0d" stroke-width="1.4" opacity="0.45"/><path d="M450.0,470.0 A33.0,38.5 0 0 1 510.0,470.0 A33.0,38.5 0 0 1 450.0,470.0Z" fill="none" stroke="#0d0d0d" stroke-width="1.4" opacity="0.2"/><path d="M510.0,470.0 A33.0,38.5 0 0 1 570.0,470.0 A33.0,38.5 0 0 1 510.0,470.0Z" fill="none" stroke="#0d0d0d" stroke-width="1.4" opacity="0.85"/><path d="M570.0,470.0 A33.0,38.5 0 0 1 630.0,470.0 A33.0,38.5 0 0 1 570.0,470.0Z" fill="none" stroke="#c0392b" stroke-width="1.4" opacity="0.45"/><path d="M630.0,470.0 A33.0,38.5 0 0 1 690.0,470.0 A33.0,38.5 0 0 1 630.0,470.0Z" fill="none" stroke="#0d0d0d" stroke-width="1.4" opacity="0.2"/><path d="M690.0,470.0 A33.0,38.5 0 0 1 750.0,470.0 A33.0,38.5 0 0 1 690.0,470.0Z" fill="none" stroke="#0d0d0d" stroke-width="1.4" opacity="0.85"/><path d="M750.0,470.0 A33.0,38.5 0 0 1 810.0,470.0 A33.0,38.5 0 0 1 750.0,470.0Z" fill="none" stroke="#0d0d0d" stroke-width="1.4" opacity="0.45"/><path d="M810.0,470.0 A33.0,38.5 0 0 1 870.0,470.0 A33.0,38.5 0 0 1 810.0,470.0Z" fill="none" stroke="#0d0d0d" stroke-width="1.4" opacity="0.2"/><path d="M870.0,470.0 A33.0,38.5 0 0 1 930.0,470.0 A33.0,38.5 0 0 1 870.0,470.0Z" fill="none" stroke="#c0392b" stroke-width="1.4" opacity="0.85"/><path d="M930.0,470.0 A33.0,38.5 0 0 1 990.0,470.0 A33.0,38.5 0 0 1 930.0,470.0Z" fill="none" stroke="#0d0d0d" stroke-width="1.4" opacity="0.45"/><path d="M990.0,470.0 A33.0,38.5 0 0 1 1050.0,470.0 A33.0,38.5 0 0 1 990.0,470.0Z" fill="none" stroke="#0d0d0d" stroke-width="1.4" opacity="0.2"/><path d="M1050.0,470.0 A33.0,38.5 0 0 1 1110.0,470.0 A33.0,38.5 0 0 1 1050.0,470.0Z" fill="none" stroke="#0d0d0d" stroke-width="1.4" opacity="0.85"/><path d="M1110.0,470.0 A33.0,38.5 0 0 1 1170.0,470.0 A33.0,38.5 0 0 1 1110.0,470.0Z" fill="none" stroke="#0d0d0d" stroke-width="1.4" opacity="0.45"/><path d="M1170.0,470.0 A33.0,38.5 0 0 1 1230.0,470.0 A33.0,38.5 0 0 1 1170.0,470.0Z" fill="none" stroke="#c0392b" stroke-width="1.4" opacity="0.2"/><path d="M1230.0,470.0 A33.0,38.5 0 0 1 1290.0,470.0 A33.0,38.5 0 0 1 1230.0,470.0Z" fill="none" stroke="#0d0d0d" stroke-width="1.4" opacity="0.85"/><path d="M1290.0,470.0 A33.0,38.5 0 0 1 1350.0,470.0 A33.0,38.5 0 0 1 1290.0,470.0Z" fill="none" stroke="#0d0d0d" stroke-width="1.4" opacity="0.45"/><path d="M-60.0,505.0 A33.0,38.5 0 0 1 0.0,505.0 A33.0,38.5 0 0 1 -60.0,505.0Z" fill="none" stroke="#0d0d0d" stroke-width="1.4" opacity="0.45"/><path d="M0.0,505.0 A33.0,38.5 0 0 1 60.0,505.0 A33.0,38.5 0 0 1 0.0,505.0Z" fill="none" stroke="#0d0d0d" stroke-width="1.4" opacity="0.2"/><path d="M60.0,505.0 A33.0,38.5 0 0 1 120.0,505.0 A33.0,38.5 0 0 1 60.0,505.0Z" fill="none" stroke="#0d0d0d" stroke-width="1.4" opacity="0.85"/><path d="M120.0,505.0 A33.0,38.5 0 0 1 180.0,505.0 A33.0,38.5 0 0 1 120.0,505.0Z" fill="none" stroke="#0d0d0d" stroke-width="1.4" opacity="0.45"/><path d="M180.0,505.0 A33.0,38.5 0 0 1 240.0,505.0 A33.0,38.5 0 0 1 180.0,505.0Z" fill="none" stroke="#c0392b" stroke-width="1.4" opacity="0.2"/><path d="M240.0,505.0 A33.0,38.5 0 0 1 300.0,505.0 A33.0,38.5 0 0 1 240.0,505.0Z" fill="none" stroke="#0d0d0d" stroke-width="1.4" opacity="0.85"/><path d="M300.0,505.0 A33.0,38.5 0 0 1 360.0,505.0 A33.0,38.5 0 0 1 300.0,505.0Z" fill="none" stroke="#0d0d0d" stroke-width="1.4" opacity="0.45"/><path d="M360.0,505.0 A33.0,38.5 0 0 1 420.0,505.0 A33.0,38.5 0 0 1 360.0,505.0Z" fill="none" stroke="#0d0d0d" stroke-width="1.4" opacity="0.2"/><path d="M420.0,505.0 A33.0,38.5 0 0 1 480.0,505.0 A33.0,38.5 0 0 1 420.0,505.0Z" fill="none" stroke="#0d0d0d" stroke-width="1.4" opacity="0.85"/><path d="M480.0,505.0 A33.0,38.5 0 0 1 540.0,505.0 A33.0,38.5 0 0 1 480.0,505.0Z" fill="none" stroke="#c0392b" stroke-width="1.4" opacity="0.45"/><path d="M540.0,505.0 A33.0,38.5 0 0 1 600.0,505.0 A33.0,38.5 0 0 1 540.0,505.0Z" fill="none" stroke="#0d0d0d" stroke-width="1.4" opacity="0.2"/><path d="M600.0,505.0 A33.0,38.5 0 0 1 660.0,505.0 A33.0,38.5 0 0 1 600.0,505.0Z" fill="none" stroke="#0d0d0d" stroke-width="1.4" opacity="0.85"/><path d="M660.0,505.0 A33.0,38.5 0 0 1 720.0,505.0 A33.0,38.5 0 0 1 660.0,505.0Z" fill="none" stroke="#0d0d0d" stroke-width="1.4" opacity="0.45"/><path d="M720.0,505.0 A33.0,38.5 0 0 1 780.0,505.0 A33.0,38.5 0 0 1 720.0,505.0Z" fill="none" stroke="#0d0d0d" stroke-width="1.4" opacity="0.2"/><path d="M780.0,505.0 A33.0,38.5 0 0 1 840.0,505.0 A33.0,38.5 0 0 1 780.0,505.0Z" fill="none" stroke="#c0392b" stroke-width="1.4" opacity="0.85"/><path d="M840.0,505.0 A33.0,38.5 0 0 1 900.0,505.0 A33.0,38.5 0 0 1 840.0,505.0Z" fill="none" stroke="#0d0d0d" stroke-width="1.4" opacity="0.45"/><path d="M900.0,505.0 A33.0,38.5 0 0 1 960.0,505.0 A33.0,38.5 0 0 1 900.0,505.0Z" fill="none" stroke="#0d0d0d" stroke-width="1.4" opacity="0.2"/><path d="M960.0,505.0 A33.0,38.5 0 0 1 1020.0,505.0 A33.0,38.5 0 0 1 960.0,505.0Z" fill="none" stroke="#0d0d0d" stroke-width="1.4" opacity="0.85"/><path d="M1020.0,505.0 A33.0,38.5 0 0 1 1080.0,505.0 A33.0,38.5 0 0 1 1020.0,505.0Z" fill="none" stroke="#0d0d0d" stroke-width="1.4" opacity="0.45"/><path d="M1080.0,505.0 A33.0,38.5 0 0 1 1140.0,505.0 A33.0,38.5 0 0 1 1080.0,505.0Z" fill="none" stroke="#c0392b" stroke-width="1.4" opacity="0.2"/><path d="M1140.0,505.0 A33.0,38.5 0 0 1 1200.0,505.0 A33.0,38.5 0 0 1 1140.0,505.0Z" fill="none" stroke="#0d0d0d" stroke-width="1.4" opacity="0.85"/><path d="M1200.0,505.0 A33.0,38.5 0 0 1 1260.0,505.0 A33.0,38.5 0 0 1 1200.0,505.0Z" fill="none" stroke="#0d0d0d" stroke-width="1.4" opacity="0.45"/><path d="M1260.0,505.0 A33.0,38.5 0 0 1 1320.0,505.0 A33.0,38.5 0 0 1 1260.0,505.0Z" fill="none" stroke="#0d0d0d" stroke-width="1.4" opacity="0.2"/><path d="M-30.0,540.0 A33.0,38.5 0 0 1 30.0,540.0 A33.0,38.5 0 0 1 -30.0,540.0Z" fill="none" stroke="#0d0d0d" stroke-width="1.4" opacity="0.2"/><path d="M30.0,540.0 A33.0,38.5 0 0 1 90.0,540.0 A33.0,38.5 0 0 1 30.0,540.0Z" fill="none" stroke="#0d0d0d" stroke-width="1.4" opacity="0.85"/><path d="M90.0,540.0 A33.0,38.5 0 0 1 150.0,540.0 A33.0,38.5 0 0 1 90.0,540.0Z" fill="none" stroke="#0d0d0d" stroke-width="1.4" opacity="0.45"/><path d="M150.0,540.0 A33.0,38.5 0 0 1 210.0,540.0 A33.0,38.5 0 0 1 150.0,540.0Z" fill="none" stroke="#c0392b" stroke-width="1.4" opacity="0.2"/><path d="M210.0,540.0 A33.0,38.5 0 0 1 270.0,540.0 A33.0,38.5 0 0 1 210.0,540.0Z" fill="none" stroke="#0d0d0d" stroke-width="1.4" opacity="0.85"/><path d="M270.0,540.0 A33.0,38.5 0 0 1 330.0,540.0 A33.0,38.5 0 0 1 270.0,540.0Z" fill="none" stroke="#0d0d0d" stroke-width="1.4" opacity="0.45"/><path d="M330.0,540.0 A33.0,38.5 0 0 1 390.0,540.0 A33.0,38.5 0 0 1 330.0,540.0Z" fill="none" stroke="#0d0d0d" stroke-width="1.4" opacity="0.2"/><path d="M390.0,540.0 A33.0,38.5 0 0 1 450.0,540.0 A33.0,38.5 0 0 1 390.0,540.0Z" fill="none" stroke="#0d0d0d" stroke-width="1.4" opacity="0.85"/><path d="M450.0,540.0 A33.0,38.5 0 0 1 510.0,540.0 A33.0,38.5 0 0 1 450.0,540.0Z" fill="none" stroke="#c0392b" stroke-width="1.4" opacity="0.45"/><path d="M510.0,540.0 A33.0,38.5 0 0 1 570.0,540.0 A33.0,38.5 0 0 1 510.0,540.0Z" fill="none" stroke="#0d0d0d" stroke-width="1.4" opacity="0.2"/><path d="M570.0,540.0 A33.0,38.5 0 0 1 630.0,540.0 A33.0,38.5 0 0 1 570.0,540.0Z" fill="none" stroke="#0d0d0d" stroke-width="1.4" opacity="0.85"/><path d="M630.0,540.0 A33.0,38.5 0 0 1 690.0,540.0 A33.0,38.5 0 0 1 630.0,540.0Z" fill="none" stroke="#0d0d0d" stroke-width="1.4" opacity="0.45"/><path d="M690.0,540.0 A33.0,38.5 0 0 1 750.0,540.0 A33.0,38.5 0 0 1 690.0,540.0Z" fill="none" stroke="#0d0d0d" stroke-width="1.4" opacity="0.2"/><path d="M750.0,540.0 A33.0,38.5 0 0 1 810.0,540.0 A33.0,38.5 0 0 1 750.0,540.0Z" fill="none" stroke="#c0392b" stroke-width="1.4" opacity="0.85"/><path d="M810.0,540.0 A33.0,38.5 0 0 1 870.0,540.0 A33.0,38.5 0 0 1 810.0,540.0Z" fill="none" stroke="#0d0d0d" stroke-width="1.4" opacity="0.45"/><path d="M870.0,540.0 A33.0,38.5 0 0 1 930.0,540.0 A33.0,38.5 0 0 1 870.0,540.0Z" fill="none" stroke="#0d0d0d" stroke-width="1.4" opacity="0.2"/><path d="M930.0,540.0 A33.0,38.5 0 0 1 990.0,540.0 A33.0,38.5 0 0 1 930.0,540.0Z" fill="none" stroke="#0d0d0d" stroke-width="1.4" opacity="0.85"/><path d="M990.0,540.0 A33.0,38.5 0 0 1 1050.0,540.0 A33.0,38.5 0 0 1 990.0,540.0Z" fill="none" stroke="#0d0d0d" stroke-width="1.4" opacity="0.45"/><path d="M1050.0,540.0 A33.0,38.5 0 0 1 1110.0,540.0 A33.0,38.5 0 0 1 1050.0,540.0Z" fill="none" stroke="#c0392b" stroke-width="1.4" opacity="0.2"/><path d="M1110.0,540.0 A33.0,38.5 0 0 1 1170.0,540.0 A33.0,38.5 0 0 1 1110.0,540.0Z" fill="none" stroke="#0d0d0d" stroke-width="1.4" opacity="0.85"/><path d="M1170.0,540.0 A33.0,38.5 0 0 1 1230.0,540.0 A33.0,38.5 0 0 1 1170.0,540.0Z" fill="none" stroke="#0d0d0d" stroke-width="1.4" opacity="0.45"/><path d="M1230.0,540.0 A33.0,38.5 0 0 1 1290.0,540.0 A33.0,38.5 0 0 1 1230.0,540.0Z" fill="none" stroke="#0d0d0d" stroke-width="1.4" opacity="0.2"/><path d="M1290.0,540.0 A33.0,38.5 0 0 1 1350.0,540.0 A33.0,38.5 0 0 1 1290.0,540.0Z" fill="none" stroke="#0d0d0d" stroke-width="1.4" opacity="0.85"/><path d="M-60.0,575.0 A33.0,38.5 0 0 1 0.0,575.0 A33.0,38.5 0 0 1 -60.0,575.0Z" fill="none" stroke="#0d0d0d" stroke-width="1.4" opacity="0.85"/><path d="M0.0,575.0 A33.0,38.5 0 0 1 60.0,575.0 A33.0,38.5 0 0 1 0.0,575.0Z" fill="none" stroke="#0d0d0d" stroke-width="1.4" opacity="0.45"/><path d="M60.0,575.0 A33.0,38.5 0 0 1 120.0,575.0 A33.0,38.5 0 0 1 60.0,575.0Z" fill="none" stroke="#c0392b" stroke-width="1.4" opacity="0.2"/><path d="M120.0,575.0 A33.0,38.5 0 0 1 180.0,575.0 A33.0,38.5 0 0 1 120.0,575.0Z" fill="none" stroke="#0d0d0d" stroke-width="1.4" opacity="0.85"/><path d="M180.0,575.0 A33.0,38.5 0 0 1 240.0,575.0 A33.0,38.5 0 0 1 180.0,575.0Z" fill="none" stroke="#0d0d0d" stroke-width="1.4" opacity="0.45"/><path d="M240.0,575.0 A33.0,38.5 0 0 1 300.0,575.0 A33.0,38.5 0 0 1 240.0,575.0Z" fill="none" stroke="#0d0d0d" stroke-width="1.4" opacity="0.2"/><path d="M300.0,575.0 A33.0,38.5 0 0 1 360.0,575.0 A33.0,38.5 0 0 1 300.0,575.0Z" fill="none" stroke="#0d0d0d" stroke-width="1.4" opacity="0.85"/><path d="M360.0,575.0 A33.0,38.5 0 0 1 420.0,575.0 A33.0,38.5 0 0 1 360.0,575.0Z" fill="none" stroke="#c0392b" stroke-width="1.4" opacity="0.45"/><path d="M420.0,575.0 A33.0,38.5 0 0 1 480.0,575.0 A33.0,38.5 0 0 1 420.0,575.0Z" fill="none" stroke="#0d0d0d" stroke-width="1.4" opacity="0.2"/><path d="M480.0,575.0 A33.0,38.5 0 0 1 540.0,575.0 A33.0,38.5 0 0 1 480.0,575.0Z" fill="none" stroke="#0d0d0d" stroke-width="1.4" opacity="0.85"/><path d="M540.0,575.0 A33.0,38.5 0 0 1 600.0,575.0 A33.0,38.5 0 0 1 540.0,575.0Z" fill="none" stroke="#0d0d0d" stroke-width="1.4" opacity="0.45"/><path d="M600.0,575.0 A33.0,38.5 0 0 1 660.0,575.0 A33.0,38.5 0 0 1 600.0,575.0Z" fill="none" stroke="#0d0d0d" stroke-width="1.4" opacity="0.2"/><path d="M660.0,575.0 A33.0,38.5 0 0 1 720.0,575.0 A33.0,38.5 0 0 1 660.0,575.0Z" fill="none" stroke="#c0392b" stroke-width="1.4" opacity="0.85"/><path d="M720.0,575.0 A33.0,38.5 0 0 1 780.0,575.0 A33.0,38.5 0 0 1 720.0,575.0Z" fill="none" stroke="#0d0d0d" stroke-width="1.4" opacity="0.45"/><path d="M780.0,575.0 A33.0,38.5 0 0 1 840.0,575.0 A33.0,38.5 0 0 1 780.0,575.0Z" fill="none" stroke="#0d0d0d" stroke-width="1.4" opacity="0.2"/><path d="M840.0,575.0 A33.0,38.5 0 0 1 900.0,575.0 A33.0,38.5 0 0 1 840.0,575.0Z" fill="none" stroke="#0d0d0d" stroke-width="1.4" opacity="0.85"/><path d="M900.0,575.0 A33.0,38.5 0 0 1 960.0,575.0 A33.0,38.5 0 0 1 900.0,575.0Z" fill="none" stroke="#0d0d0d" stroke-width="1.4" opacity="0.45"/><path d="M960.0,575.0 A33.0,38.5 0 0 1 1020.0,575.0 A33.0,38.5 0 0 1 960.0,575.0Z" fill="none" stroke="#c0392b" stroke-width="1.4" opacity="0.2"/><path d="M1020.0,575.0 A33.0,38.5 0 0 1 1080.0,575.0 A33.0,38.5 0 0 1 1020.0,575.0Z" fill="none" stroke="#0d0d0d" stroke-width="1.4" opacity="0.85"/><path d="M1080.0,575.0 A33.0,38.5 0 0 1 1140.0,575.0 A33.0,38.5 0 0 1 1080.0,575.0Z" fill="none" stroke="#0d0d0d" stroke-width="1.4" opacity="0.45"/><path d="M1140.0,575.0 A33.0,38.5 0 0 1 1200.0,575.0 A33.0,38.5 0 0 1 1140.0,575.0Z" fill="none" stroke="#0d0d0d" stroke-width="1.4" opacity="0.2"/><path d="M1200.0,575.0 A33.0,38.5 0 0 1 1260.0,575.0 A33.0,38.5 0 0 1 1200.0,575.0Z" fill="none" stroke="#0d0d0d" stroke-width="1.4" opacity="0.85"/><path d="M1260.0,575.0 A33.0,38.5 0 0 1 1320.0,575.0 A33.0,38.5 0 0 1 1260.0,575.0Z" fill="none" stroke="#c0392b" stroke-width="1.4" opacity="0.45"/><path d="M-30.0,610.0 A33.0,38.5 0 0 1 30.0,610.0 A33.0,38.5 0 0 1 -30.0,610.0Z" fill="none" stroke="#0d0d0d" stroke-width="1.4" opacity="0.45"/><path d="M30.0,610.0 A33.0,38.5 0 0 1 90.0,610.0 A33.0,38.5 0 0 1 30.0,610.0Z" fill="none" stroke="#c0392b" stroke-width="1.4" opacity="0.2"/><path d="M90.0,610.0 A33.0,38.5 0 0 1 150.0,610.0 A33.0,38.5 0 0 1 90.0,610.0Z" fill="none" stroke="#0d0d0d" stroke-width="1.4" opacity="0.85"/><path d="M150.0,610.0 A33.0,38.5 0 0 1 210.0,610.0 A33.0,38.5 0 0 1 150.0,610.0Z" fill="none" stroke="#0d0d0d" stroke-width="1.4" opacity="0.45"/><path d="M210.0,610.0 A33.0,38.5 0 0 1 270.0,610.0 A33.0,38.5 0 0 1 210.0,610.0Z" fill="none" stroke="#0d0d0d" stroke-width="1.4" opacity="0.2"/><path d="M270.0,610.0 A33.0,38.5 0 0 1 330.0,610.0 A33.0,38.5 0 0 1 270.0,610.0Z" fill="none" stroke="#0d0d0d" stroke-width="1.4" opacity="0.85"/><path d="M330.0,610.0 A33.0,38.5 0 0 1 390.0,610.0 A33.0,38.5 0 0 1 330.0,610.0Z" fill="none" stroke="#c0392b" stroke-width="1.4" opacity="0.45"/><path d="M390.0,610.0 A33.0,38.5 0 0 1 450.0,610.0 A33.0,38.5 0 0 1 390.0,610.0Z" fill="none" stroke="#0d0d0d" stroke-width="1.4" opacity="0.2"/><path d="M450.0,610.0 A33.0,38.5 0 0 1 510.0,610.0 A33.0,38.5 0 0 1 450.0,610.0Z" fill="none" stroke="#0d0d0d" stroke-width="1.4" opacity="0.85"/><path d="M510.0,610.0 A33.0,38.5 0 0 1 570.0,610.0 A33.0,38.5 0 0 1 510.0,610.0Z" fill="none" stroke="#0d0d0d" stroke-width="1.4" opacity="0.45"/><path d="M570.0,610.0 A33.0,38.5 0 0 1 630.0,610.0 A33.0,38.5 0 0 1 570.0,610.0Z" fill="none" stroke="#0d0d0d" stroke-width="1.4" opacity="0.2"/><path d="M630.0,610.0 A33.0,38.5 0 0 1 690.0,610.0 A33.0,38.5 0 0 1 630.0,610.0Z" fill="none" stroke="#c0392b" stroke-width="1.4" opacity="0.85"/><path d="M690.0,610.0 A33.0,38.5 0 0 1 750.0,610.0 A33.0,38.5 0 0 1 690.0,610.0Z" fill="none" stroke="#0d0d0d" stroke-width="1.4" opacity="0.45"/><path d="M750.0,610.0 A33.0,38.5 0 0 1 810.0,610.0 A33.0,38.5 0 0 1 750.0,610.0Z" fill="none" stroke="#0d0d0d" stroke-width="1.4" opacity="0.2"/><path d="M810.0,610.0 A33.0,38.5 0 0 1 870.0,610.0 A33.0,38.5 0 0 1 810.0,610.0Z" fill="none" stroke="#0d0d0d" stroke-width="1.4" opacity="0.85"/><path d="M870.0,610.0 A33.0,38.5 0 0 1 930.0,610.0 A33.0,38.5 0 0 1 870.0,610.0Z" fill="none" stroke="#0d0d0d" stroke-width="1.4" opacity="0.45"/><path d="M930.0,610.0 A33.0,38.5 0 0 1 990.0,610.0 A33.0,38.5 0 0 1 930.0,610.0Z" fill="none" stroke="#c0392b" stroke-width="1.4" opacity="0.2"/><path d="M990.0,610.0 A33.0,38.5 0 0 1 1050.0,610.0 A33.0,38.5 0 0 1 990.0,610.0Z" fill="none" stroke="#0d0d0d" stroke-width="1.4" opacity="0.85"/><path d="M1050.0,610.0 A33.0,38.5 0 0 1 1110.0,610.0 A33.0,38.5 0 0 1 1050.0,610.0Z" fill="none" stroke="#0d0d0d" stroke-width="1.4" opacity="0.45"/><path d="M1110.0,610.0 A33.0,38.5 0 0 1 1170.0,610.0 A33.0,38.5 0 0 1 1110.0,610.0Z" fill="none" stroke="#0d0d0d" stroke-width="1.4" opacity="0.2"/><path d="M1170.0,610.0 A33.0,38.5 0 0 1 1230.0,610.0 A33.0,38.5 0 0 1 1170.0,610.0Z" fill="none" stroke="#0d0d0d" stroke-width="1.4" opacity="0.85"/><path d="M1230.0,610.0 A33.0,38.5 0 0 1 1290.0,610.0 A33.0,38.5 0 0 1 1230.0,610.0Z" fill="none" stroke="#c0392b" stroke-width="1.4" opacity="0.45"/><path d="M1290.0,610.0 A33.0,38.5 0 0 1 1350.0,610.0 A33.0,38.5 0 0 1 1290.0,610.0Z" fill="none" stroke="#0d0d0d" stroke-width="1.4" opacity="0.2"/><path d="M-60.0,645.0 A33.0,38.5 0 0 1 0.0,645.0 A33.0,38.5 0 0 1 -60.0,645.0Z" fill="none" stroke="#c0392b" stroke-width="1.4" opacity="0.2"/><path d="M0.0,645.0 A33.0,38.5 0 0 1 60.0,645.0 A33.0,38.5 0 0 1 0.0,645.0Z" fill="none" stroke="#0d0d0d" stroke-width="1.4" opacity="0.85"/><path d="M60.0,645.0 A33.0,38.5 0 0 1 120.0,645.0 A33.0,38.5 0 0 1 60.0,645.0Z" fill="none" stroke="#0d0d0d" stroke-width="1.4" opacity="0.45"/><path d="M120.0,645.0 A33.0,38.5 0 0 1 180.0,645.0 A33.0,38.5 0 0 1 120.0,645.0Z" fill="none" stroke="#0d0d0d" stroke-width="1.4" opacity="0.2"/><path d="M180.0,645.0 A33.0,38.5 0 0 1 240.0,645.0 A33.0,38.5 0 0 1 180.0,645.0Z" fill="none" stroke="#0d0d0d" stroke-width="1.4" opacity="0.85"/><path d="M240.0,645.0 A33.0,38.5 0 0 1 300.0,645.0 A33.0,38.5 0 0 1 240.0,645.0Z" fill="none" stroke="#c0392b" stroke-width="1.4" opacity="0.45"/><path d="M300.0,645.0 A33.0,38.5 0 0 1 360.0,645.0 A33.0,38.5 0 0 1 300.0,645.0Z" fill="none" stroke="#0d0d0d" stroke-width="1.4" opacity="0.2"/><path d="M360.0,645.0 A33.0,38.5 0 0 1 420.0,645.0 A33.0,38.5 0 0 1 360.0,645.0Z" fill="none" stroke="#0d0d0d" stroke-width="1.4" opacity="0.85"/><path d="M420.0,645.0 A33.0,38.5 0 0 1 480.0,645.0 A33.0,38.5 0 0 1 420.0,645.0Z" fill="none" stroke="#0d0d0d" stroke-width="1.4" opacity="0.45"/><path d="M480.0,645.0 A33.0,38.5 0 0 1 540.0,645.0 A33.0,38.5 0 0 1 480.0,645.0Z" fill="none" stroke="#0d0d0d" stroke-width="1.4" opacity="0.2"/><path d="M540.0,645.0 A33.0,38.5 0 0 1 600.0,645.0 A33.0,38.5 0 0 1 540.0,645.0Z" fill="none" stroke="#c0392b" stroke-width="1.4" opacity="0.85"/><path d="M600.0,645.0 A33.0,38.5 0 0 1 660.0,645.0 A33.0,38.5 0 0 1 600.0,645.0Z" fill="none" stroke="#0d0d0d" stroke-width="1.4" opacity="0.45"/><path d="M660.0,645.0 A33.0,38.5 0 0 1 720.0,645.0 A33.0,38.5 0 0 1 660.0,645.0Z" fill="none" stroke="#0d0d0d" stroke-width="1.4" opacity="0.2"/><path d="M720.0,645.0 A33.0,38.5 0 0 1 780.0,645.0 A33.0,38.5 0 0 1 720.0,645.0Z" fill="none" stroke="#0d0d0d" stroke-width="1.4" opacity="0.85"/><path d="M780.0,645.0 A33.0,38.5 0 0 1 840.0,645.0 A33.0,38.5 0 0 1 780.0,645.0Z" fill="none" stroke="#0d0d0d" stroke-width="1.4" opacity="0.45"/><path d="M840.0,645.0 A33.0,38.5 0 0 1 900.0,645.0 A33.0,38.5 0 0 1 840.0,645.0Z" fill="none" stroke="#c0392b" stroke-width="1.4" opacity="0.2"/><path d="M900.0,645.0 A33.0,38.5 0 0 1 960.0,645.0 A33.0,38.5 0 0 1 900.0,645.0Z" fill="none" stroke="#0d0d0d" stroke-width="1.4" opacity="0.85"/><path d="M960.0,645.0 A33.0,38.5 0 0 1 1020.0,645.0 A33.0,38.5 0 0 1 960.0,645.0Z" fill="none" stroke="#0d0d0d" stroke-width="1.4" opacity="0.45"/><path d="M1020.0,645.0 A33.0,38.5 0 0 1 1080.0,645.0 A33.0,38.5 0 0 1 1020.0,645.0Z" fill="none" stroke="#0d0d0d" stroke-width="1.4" opacity="0.2"/><path d="M1080.0,645.0 A33.0,38.5 0 0 1 1140.0,645.0 A33.0,38.5 0 0 1 1080.0,645.0Z" fill="none" stroke="#0d0d0d" stroke-width="1.4" opacity="0.85"/><path d="M1140.0,645.0 A33.0,38.5 0 0 1 1200.0,645.0 A33.0,38.5 0 0 1 1140.0,645.0Z" fill="none" stroke="#c0392b" stroke-width="1.4" opacity="0.45"/><path d="M1200.0,645.0 A33.0,38.5 0 0 1 1260.0,645.0 A33.0,38.5 0 0 1 1200.0,645.0Z" fill="none" stroke="#0d0d0d" stroke-width="1.4" opacity="0.2"/><path d="M1260.0,645.0 A33.0,38.5 0 0 1 1320.0,645.0 A33.0,38.5 0 0 1 1260.0,645.0Z" fill="none" stroke="#0d0d0d" stroke-width="1.4" opacity="0.85"/><path d="M-30.0,680.0 A33.0,38.5 0 0 1 30.0,680.0 A33.0,38.5 0 0 1 -30.0,680.0Z" fill="none" stroke="#0d0d0d" stroke-width="1.4" opacity="0.85"/><path d="M30.0,680.0 A33.0,38.5 0 0 1 90.0,680.0 A33.0,38.5 0 0 1 30.0,680.0Z" fill="none" stroke="#0d0d0d" stroke-width="1.4" opacity="0.45"/><path d="M90.0,680.0 A33.0,38.5 0 0 1 150.0,680.0 A33.0,38.5 0 0 1 90.0,680.0Z" fill="none" stroke="#0d0d0d" stroke-width="1.4" opacity="0.2"/><path d="M150.0,680.0 A33.0,38.5 0 0 1 210.0,680.0 A33.0,38.5 0 0 1 150.0,680.0Z" fill="none" stroke="#0d0d0d" stroke-width="1.4" opacity="0.85"/><path d="M210.0,680.0 A33.0,38.5 0 0 1 270.0,680.0 A33.0,38.5 0 0 1 210.0,680.0Z" fill="none" stroke="#c0392b" stroke-width="1.4" opacity="0.45"/><path d="M270.0,680.0 A33.0,38.5 0 0 1 330.0,680.0 A33.0,38.5 0 0 1 270.0,680.0Z" fill="none" stroke="#0d0d0d" stroke-width="1.4" opacity="0.2"/><path d="M330.0,680.0 A33.0,38.5 0 0 1 390.0,680.0 A33.0,38.5 0 0 1 330.0,680.0Z" fill="none" stroke="#0d0d0d" stroke-width="1.4" opacity="0.85"/><path d="M390.0,680.0 A33.0,38.5 0 0 1 450.0,680.0 A33.0,38.5 0 0 1 390.0,680.0Z" fill="none" stroke="#0d0d0d" stroke-width="1.4" opacity="0.45"/><path d="M450.0,680.0 A33.0,38.5 0 0 1 510.0,680.0 A33.0,38.5 0 0 1 450.0,680.0Z" fill="none" stroke="#0d0d0d" stroke-width="1.4" opacity="0.2"/><path d="M510.0,680.0 A33.0,38.5 0 0 1 570.0,680.0 A33.0,38.5 0 0 1 510.0,680.0Z" fill="none" stroke="#c0392b" stroke-width="1.4" opacity="0.85"/><path d="M570.0,680.0 A33.0,38.5 0 0 1 630.0,680.0 A33.0,38.5 0 0 1 570.0,680.0Z" fill="none" stroke="#0d0d0d" stroke-width="1.4" opacity="0.45"/><path d="M630.0,680.0 A33.0,38.5 0 0 1 690.0,680.0 A33.0,38.5 0 0 1 630.0,680.0Z" fill="none" stroke="#0d0d0d" stroke-width="1.4" opacity="0.2"/><path d="M690.0,680.0 A33.0,38.5 0 0 1 750.0,680.0 A33.0,38.5 0 0 1 690.0,680.0Z" fill="none" stroke="#0d0d0d" stroke-width="1.4" opacity="0.85"/><path d="M750.0,680.0 A33.0,38.5 0 0 1 810.0,680.0 A33.0,38.5 0 0 1 750.0,680.0Z" fill="none" stroke="#0d0d0d" stroke-width="1.4" opacity="0.45"/><path d="M810.0,680.0 A33.0,38.5 0 0 1 870.0,680.0 A33.0,38.5 0 0 1 810.0,680.0Z" fill="none" stroke="#c0392b" stroke-width="1.4" opacity="0.2"/><path d="M870.0,680.0 A33.0,38.5 0 0 1 930.0,680.0 A33.0,38.5 0 0 1 870.0,680.0Z" fill="none" stroke="#0d0d0d" stroke-width="1.4" opacity="0.85"/><path d="M930.0,680.0 A33.0,38.5 0 0 1 990.0,680.0 A33.0,38.5 0 0 1 930.0,680.0Z" fill="none" stroke="#0d0d0d" stroke-width="1.4" opacity="0.45"/><path d="M990.0,680.0 A33.0,38.5 0 0 1 1050.0,680.0 A33.0,38.5 0 0 1 990.0,680.0Z" fill="none" stroke="#0d0d0d" stroke-width="1.4" opacity="0.2"/><path d="M1050.0,680.0 A33.0,38.5 0 0 1 1110.0,680.0 A33.0,38.5 0 0 1 1050.0,680.0Z" fill="none" stroke="#0d0d0d" stroke-width="1.4" opacity="0.85"/><path d="M1110.0,680.0 A33.0,38.5 0 0 1 1170.0,680.0 A33.0,38.5 0 0 1 1110.0,680.0Z" fill="none" stroke="#c0392b" stroke-width="1.4" opacity="0.45"/><path d="M1170.0,680.0 A33.0,38.5 0 0 1 1230.0,680.0 A33.0,38.5 0 0 1 1170.0,680.0Z" fill="none" stroke="#0d0d0d" stroke-width="1.4" opacity="0.2"/><path d="M1230.0,680.0 A33.0,38.5 0 0 1 1290.0,680.0 A33.0,38.5 0 0 1 1230.0,680.0Z" fill="none" stroke="#0d0d0d" stroke-width="1.4" opacity="0.85"/><path d="M1290.0,680.0 A33.0,38.5 0 0 1 1350.0,680.0 A33.0,38.5 0 0 1 1290.0,680.0Z" fill="none" stroke="#0d0d0d" stroke-width="1.4" opacity="0.45"/><text x="600" y="667" font-family="Georgia,serif" font-size="22" fill="#0d0d0d" text-anchor="middle" opacity="0.5">Unaunahi</text></svg>