<svg xmlns="http://www.w3.org/2000/svg" width="1200" height="675" viewBox="0 0 1200 675">
<title>Unaunahi — The Kiwi Dialectic</title>

<rect width="1200" height="675" fill="#0d0d0d"/>
<path d="M -30.0 225.0 A 34.1 43.4 0 0 1 32.0 225.0 A 34.1 43.4 0 0 1 -30.0 225.0 Z" fill="none" stroke="#f4f0e8" stroke-width="0.9" opacity="0.18"/>
<path d="M 32.0 225.0 A 34.1 43.4 0 0 1 94.0 225.0 A 34.1 43.4 0 0 1 32.0 225.0 Z" fill="none" stroke="#f4f0e8" stroke-width="0.9" opacity="0.18"/>
<path d="M 94.0 225.0 A 34.1 43.4 0 0 1 156.0 225.0 A 34.1 43.4 0 0 1 94.0 225.0 Z" fill="none" stroke="#f4f0e8" stroke-width="0.9" opacity="0.18"/>
<path d="M 156.0 225.0 A 34.1 43.4 0 0 1 218.0 225.0 A 34.1 43.4 0 0 1 156.0 225.0 Z" fill="none" stroke="#f4f0e8" stroke-width="0.9" opacity="0.18"/>
<path d="M 218.0 225.0 A 34.1 43.4 0 0 1 280.0 225.0 A 34.1 43.4 0 0 1 218.0 225.0 Z" fill="none" stroke="#f4f0e8" stroke-width="0.9" opacity="0.18"/>
<path d="M 280.0 225.0 A 34.1 43.4 0 0 1 342.0 225.0 A 34.1 43.4 0 0 1 280.0 225.0 Z" fill="none" stroke="#f4f0e8" stroke-width="0.9" opacity="0.18"/>
<path d="M 342.0 225.0 A 34.1 43.4 0 0 1 404.0 225.0 A 34.1 43.4 0 0 1 342.0 225.0 Z" fill="none" stroke="#f4f0e8" stroke-width="0.9" opacity="0.18"/>
<path d="M 404.0 225.0 A 34.1 43.4 0 0 1 466.0 225.0 A 34.1 43.4 0 0 1 404.0 225.0 Z" fill="none" stroke="#f4f0e8" stroke-width="0.9" opacity="0.18"/>
<path d="M 466.0 225.0 A 34.1 43.4 0 0 1 528.0 225.0 A 34.1 43.4 0 0 1 466.0 225.0 Z" fill="none" stroke="#f4f0e8" stroke-width="0.9" opacity="0.18"/>
<path d="M 528.0 225.0 A 34.1 43.4 0 0 1 590.0 225.0 A 34.1 43.4 0 0 1 528.0 225.0 Z" fill="none" stroke="#f4f0e8" stroke-width="0.9" opacity="0.18"/>
<path d="M 590.0 225.0 A 34.1 43.4 0 0 1 652.0 225.0 A 34.1 43.4 0 0 1 590.0 225.0 Z" fill="none" stroke="#f4f0e8" stroke-width="0.9" opacity="0.18"/>
<path d="M 652.0 225.0 A 34.1 43.4 0 0 1 714.0 225.0 A 34.1 43.4 0 0 1 652.0 225.0 Z" fill="none" stroke="#f4f0e8" stroke-width="0.9" opacity="0.18"/>
<path d="M 714.0 225.0 A 34.1 43.4 0 0 1 776.0 225.0 A 34.1 43.4 0 0 1 714.0 225.0 Z" fill="none" stroke="#f4f0e8" stroke-width="0.9" opacity="0.18"/>
<path d="M 776.0 225.0 A 34.1 43.4 0 0 1 838.0 225.0 A 34.1 43.4 0 0 1 776.0 225.0 Z" fill="none" stroke="#f4f0e8" stroke-width="0.9" opacity="0.18"/>
<path d="M 838.0 225.0 A 34.1 43.4 0 0 1 900.0 225.0 A 34.1 43.4 0 0 1 838.0 225.0 Z" fill="none" stroke="#f4f0e8" stroke-width="0.9" opacity="0.18"/>
<path d="M 900.0 225.0 A 34.1 43.4 0 0 1 962.0 225.0 A 34.1 43.4 0 0 1 900.0 225.0 Z" fill="none" stroke="#f4f0e8" stroke-width="0.9" opacity="0.18"/>
<path d="M 962.0 225.0 A 34.1 43.4 0 0 1 1024.0 225.0 A 34.1 43.4 0 0 1 962.0 225.0 Z" fill="none" stroke="#f4f0e8" stroke-width="0.9" opacity="0.18"/>
<path d="M 1024.0 225.0 A 34.1 43.4 0 0 1 1086.0 225.0 A 34.1 43.4 0 0 1 1024.0 225.0 Z" fill="none" stroke="#f4f0e8" stroke-width="0.9" opacity="0.18"/>
<path d="M 1.0 265.3 A 34.1 43.4 0 0 1 63.0 265.3 A 34.1 43.4 0 0 1 1.0 265.3 Z" fill="none" stroke="#f4f0e8" stroke-width="0.9" opacity="0.18"/>
<path d="M 63.0 265.3 A 34.1 43.4 0 0 1 125.0 265.3 A 34.1 43.4 0 0 1 63.0 265.3 Z" fill="none" stroke="#f4f0e8" stroke-width="0.9" opacity="0.18"/>
<path d="M 125.0 265.3 A 34.1 43.4 0 0 1 187.0 265.3 A 34.1 43.4 0 0 1 125.0 265.3 Z" fill="none" stroke="#f4f0e8" stroke-width="0.9" opacity="0.18"/>
<path d="M 187.0 265.3 A 34.1 43.4 0 0 1 249.0 265.3 A 34.1 43.4 0 0 1 187.0 265.3 Z" fill="none" stroke="#f4f0e8" stroke-width="0.9" opacity="0.18"/>
<path d="M 249.0 265.3 A 34.1 43.4 0 0 1 311.0 265.3 A 34.1 43.4 0 0 1 249.0 265.3 Z" fill="none" stroke="#f4f0e8" stroke-width="0.9" opacity="0.18"/>
<path d="M 311.0 265.3 A 34.1 43.4 0 0 1 373.0 265.3 A 34.1 43.4 0 0 1 311.0 265.3 Z" fill="none" stroke="#f4f0e8" stroke-width="0.9" opacity="0.18"/>
<path d="M 373.0 265.3 A 34.1 43.4 0 0 1 435.0 265.3 A 34.1 43.4 0 0 1 373.0 265.3 Z" fill="none" stroke="#f4f0e8" stroke-width="0.9" opacity="0.18"/>
<path d="M 435.0 265.3 A 34.1 43.4 0 0 1 497.0 265.3 A 34.1 43.4 0 0 1 435.0 265.3 Z" fill="none" stroke="#f4f0e8" stroke-width="0.9" opacity="0.18"/>
<path d="M 497.0 265.3 A 34.1 43.4 0 0 1 559.0 265.3 A 34.1 43.4 0 0 1 497.0 265.3 Z" fill="none" stroke="#f4f0e8" stroke-width="0.9" opacity="0.18"/>
<path d="M 559.0 265.3 A 34.1 43.4 0 0 1 621.0 265.3 A 34.1 43.4 0 0 1 559.0 265.3 Z" fill="none" stroke="#f4f0e8" stroke-width="0.9" opacity="0.18"/>
<path d="M 621.0 265.3 A 34.1 43.4 0 0 1 683.0 265.3 A 34.1 43.4 0 0 1 621.0 265.3 Z" fill="none" stroke="#f4f0e8" stroke-width="0.9" opacity="0.18"/>
<path d="M 683.0 265.3 A 34.1 43.4 0 0 1 745.0 265.3 A 34.1 43.4 0 0 1 683.0 265.3 Z" fill="none" stroke="#f4f0e8" stroke-width="0.9" opacity="0.18"/>
<path d="M 745.0 265.3 A 34.1 43.4 0 0 1 807.0 265.3 A 34.1 43.4 0 0 1 745.0 265.3 Z" fill="none" stroke="#f4f0e8" stroke-width="0.9" opacity="0.18"/>
<path d="M 807.0 265.3 A 34.1 43.4 0 0 1 869.0 265.3 A 34.1 43.4 0 0 1 807.0 265.3 Z" fill="none" stroke="#f4f0e8" stroke-width="0.9" opacity="0.18"/>
<path d="M 869.0 265.3 A 34.1 43.4 0 0 1 931.0 265.3 A 34.1 43.4 0 0 1 869.0 265.3 Z" fill="none" stroke="#f4f0e8" stroke-width="0.9" opacity="0.18"/>
<path d="M 931.0 265.3 A 34.1 43.4 0 0 1 993.0 265.3 A 34.1 43.4 0 0 1 931.0 265.3 Z" fill="none" stroke="#f4f0e8" stroke-width="0.9" opacity="0.18"/>
<path d="M 993.0 265.3 A 34.1 43.4 0 0 1 1055.0 265.3 A 34.1 43.4 0 0 1 993.0 265.3 Z" fill="none" stroke="#f4f0e8" stroke-width="0.9" opacity="0.18"/>
<path d="M 1055.0 265.3 A 34.1 43.4 0 0 1 1117.0 265.3 A 34.1 43.4 0 0 1 1055.0 265.3 Z" fill="none" stroke="#f4f0e8" stroke-width="0.9" opacity="0.18"/>
<path d="M -30.0 305.6 A 34.1 43.4 0 0 1 32.0 305.6 A 34.1 43.4 0 0 1 -30.0 305.6 Z" fill="none" stroke="#f4f0e8" stroke-width="0.9" opacity="0.18"/>
<path d="M 32.0 305.6 A 34.1 43.4 0 0 1 94.0 305.6 A 34.1 43.4 0 0 1 32.0 305.6 Z" fill="none" stroke="#f4f0e8" stroke-width="0.9" opacity="0.18"/>
<path d="M 94.0 305.6 A 34.1 43.4 0 0 1 156.0 305.6 A 34.1 43.4 0 0 1 94.0 305.6 Z" fill="none" stroke="#f4f0e8" stroke-width="0.9" opacity="0.18"/>
<path d="M 156.0 305.6 A 34.1 43.4 0 0 1 218.0 305.6 A 34.1 43.4 0 0 1 156.0 305.6 Z" fill="none" stroke="#f4f0e8" stroke-width="0.9" opacity="0.18"/>
<path d="M 218.0 305.6 A 34.1 43.4 0 0 1 280.0 305.6 A 34.1 43.4 0 0 1 218.0 305.6 Z" fill="none" stroke="#f4f0e8" stroke-width="0.9" opacity="0.18"/>
<path d="M 280.0 305.6 A 34.1 43.4 0 0 1 342.0 305.6 A 34.1 43.4 0 0 1 280.0 305.6 Z" fill="none" stroke="#f4f0e8" stroke-width="0.9" opacity="0.18"/>
<path d="M 342.0 305.6 A 34.1 43.4 0 0 1 404.0 305.6 A 34.1 43.4 0 0 1 342.0 305.6 Z" fill="none" stroke="#f4f0e8" stroke-width="0.9" opacity="0.18"/>
<path d="M 404.0 305.6 A 34.1 43.4 0 0 1 466.0 305.6 A 34.1 43.4 0 0 1 404.0 305.6 Z" fill="none" stroke="#f4f0e8" stroke-width="0.9" opacity="0.18"/>
<path d="M 466.0 305.6 A 34.1 43.4 0 0 1 528.0 305.6 A 34.1 43.4 0 0 1 466.0 305.6 Z" fill="none" stroke="#f4f0e8" stroke-width="0.9" opacity="0.18"/>
<path d="M 528.0 305.6 A 34.1 43.4 0 0 1 590.0 305.6 A 34.1 43.4 0 0 1 528.0 305.6 Z" fill="none" stroke="#f4f0e8" stroke-width="0.9" opacity="0.18"/>
<path d="M 590.0 305.6 A 34.1 43.4 0 0 1 652.0 305.6 A 34.1 43.4 0 0 1 590.0 305.6 Z" fill="none" stroke="#f4f0e8" stroke-width="0.9" opacity="0.18"/>
<path d="M 652.0 305.6 A 34.1 43.4 0 0 1 714.0 305.6 A 34.1 43.4 0 0 1 652.0 305.6 Z" fill="none" stroke="#f4f0e8" stroke-width="0.9" opacity="0.18"/>
<path d="M 714.0 305.6 A 34.1 43.4 0 0 1 776.0 305.6 A 34.1 43.4 0 0 1 714.0 305.6 Z" fill="none" stroke="#f4f0e8" stroke-width="0.9" opacity="0.18"/>
<path d="M 776.0 305.6 A 34.1 43.4 0 0 1 838.0 305.6 A 34.1 43.4 0 0 1 776.0 305.6 Z" fill="none" stroke="#f4f0e8" stroke-width="0.9" opacity="0.18"/>
<path d="M 838.0 305.6 A 34.1 43.4 0 0 1 900.0 305.6 A 34.1 43.4 0 0 1 838.0 305.6 Z" fill="none" stroke="#f4f0e8" stroke-width="0.9" opacity="0.18"/>
<path d="M 900.0 305.6 A 34.1 43.4 0 0 1 962.0 305.6 A 34.1 43.4 0 0 1 900.0 305.6 Z" fill="none" stroke="#f4f0e8" stroke-width="0.9" opacity="0.18"/>
<path d="M 962.0 305.6 A 34.1 43.4 0 0 1 1024.0 305.6 A 34.1 43.4 0 0 1 962.0 305.6 Z" fill="none" stroke="#f4f0e8" stroke-width="0.9" opacity="0.18"/>
<path d="M 1024.0 305.6 A 34.1 43.4 0 0 1 1086.0 305.6 A 34.1 43.4 0 0 1 1024.0 305.6 Z" fill="none" stroke="#f4f0e8" stroke-width="0.9" opacity="0.18"/>
<path d="M 1.0 345.9 A 34.1 43.4 0 0 1 63.0 345.9 A 34.1 43.4 0 0 1 1.0 345.9 Z" fill="none" stroke="#f4f0e8" stroke-width="0.9" opacity="0.18"/>
<path d="M 63.0 345.9 A 34.1 43.4 0 0 1 125.0 345.9 A 34.1 43.4 0 0 1 63.0 345.9 Z" fill="none" stroke="#f4f0e8" stroke-width="0.9" opacity="0.18"/>
<path d="M 125.0 345.9 A 34.1 43.4 0 0 1 187.0 345.9 A 34.1 43.4 0 0 1 125.0 345.9 Z" fill="none" stroke="#f4f0e8" stroke-width="0.9" opacity="0.18"/>
<path d="M 187.0 345.9 A 34.1 43.4 0 0 1 249.0 345.9 A 34.1 43.4 0 0 1 187.0 345.9 Z" fill="none" stroke="#f4f0e8" stroke-width="0.9" opacity="0.18"/>
<path d="M 249.0 345.9 A 34.1 43.4 0 0 1 311.0 345.9 A 34.1 43.4 0 0 1 249.0 345.9 Z" fill="none" stroke="#f4f0e8" stroke-width="0.9" opacity="0.18"/>
<path d="M 311.0 345.9 A 34.1 43.4 0 0 1 373.0 345.9 A 34.1 43.4 0 0 1 311.0 345.9 Z" fill="none" stroke="#f4f0e8" stroke-width="0.9" opacity="0.18"/>
<path d="M 373.0 345.9 A 34.1 43.4 0 0 1 435.0 345.9 A 34.1 43.4 0 0 1 373.0 345.9 Z" fill="none" stroke="#f4f0e8" stroke-width="0.9" opacity="0.18"/>
<path d="M 435.0 345.9 A 34.1 43.4 0 0 1 497.0 345.9 A 34.1 43.4 0 0 1 435.0 345.9 Z" fill="none" stroke="#f4f0e8" stroke-width="0.9" opacity="0.18"/>
<path d="M 497.0 345.9 A 34.1 43.4 0 0 1 559.0 345.9 A 34.1 43.4 0 0 1 497.0 345.9 Z" fill="none" stroke="#f4f0e8" stroke-width="0.9" opacity="0.18"/>
<path d="M 559.0 345.9 A 34.1 43.4 0 0 1 621.0 345.9 A 34.1 43.4 0 0 1 559.0 345.9 Z" fill="none" stroke="#f4f0e8" stroke-width="0.9" opacity="0.18"/>
<path d="M 621.0 345.9 A 34.1 43.4 0 0 1 683.0 345.9 A 34.1 43.4 0 0 1 621.0 345.9 Z" fill="none" stroke="#f4f0e8" stroke-width="0.9" opacity="0.18"/>
<path d="M 683.0 345.9 A 34.1 43.4 0 0 1 745.0 345.9 A 34.1 43.4 0 0 1 683.0 345.9 Z" fill="none" stroke="#f4f0e8" stroke-width="0.9" opacity="0.18"/>
<path d="M 745.0 345.9 A 34.1 43.4 0 0 1 807.0 345.9 A 34.1 43.4 0 0 1 745.0 345.9 Z" fill="none" stroke="#f4f0e8" stroke-width="0.9" opacity="0.18"/>
<path d="M 807.0 345.9 A 34.1 43.4 0 0 1 869.0 345.9 A 34.1 43.4 0 0 1 807.0 345.9 Z" fill="none" stroke="#f4f0e8" stroke-width="0.9" opacity="0.18"/>
<path d="M 869.0 345.9 A 34.1 43.4 0 0 1 931.0 345.9 A 34.1 43.4 0 0 1 869.0 345.9 Z" fill="none" stroke="#f4f0e8" stroke-width="0.9" opacity="0.18"/>
<path d="M 931.0 345.9 A 34.1 43.4 0 0 1 993.0 345.9 A 34.1 43.4 0 0 1 931.0 345.9 Z" fill="none" stroke="#f4f0e8" stroke-width="0.9" opacity="0.18"/>
<path d="M 993.0 345.9 A 34.1 43.4 0 0 1 1055.0 345.9 A 34.1 43.4 0 0 1 993.0 345.9 Z" fill="none" stroke="#f4f0e8" stroke-width="0.9" opacity="0.18"/>
<path d="M 1055.0 345.9 A 34.1 43.4 0 0 1 1117.0 345.9 A 34.1 43.4 0 0 1 1055.0 345.9 Z" fill="none" stroke="#f4f0e8" stroke-width="0.9" opacity="0.18"/>
<path d="M -30.0 386.2 A 34.1 43.4 0 0 1 32.0 386.2 A 34.1 43.4 0 0 1 -30.0 386.2 Z" fill="none" stroke="#f4f0e8" stroke-width="0.9" opacity="0.18"/>
<path d="M 32.0 386.2 A 34.1 43.4 0 0 1 94.0 386.2 A 34.1 43.4 0 0 1 32.0 386.2 Z" fill="none" stroke="#f4f0e8" stroke-width="0.9" opacity="0.18"/>
<path d="M 94.0 386.2 A 34.1 43.4 0 0 1 156.0 386.2 A 34.1 43.4 0 0 1 94.0 386.2 Z" fill="none" stroke="#f4f0e8" stroke-width="0.9" opacity="0.18"/>
<path d="M 156.0 386.2 A 34.1 43.4 0 0 1 218.0 386.2 A 34.1 43.4 0 0 1 156.0 386.2 Z" fill="none" stroke="#f4f0e8" stroke-width="0.9" opacity="0.18"/>
<path d="M 218.0 386.2 A 34.1 43.4 0 0 1 280.0 386.2 A 34.1 43.4 0 0 1 218.0 386.2 Z" fill="none" stroke="#f4f0e8" stroke-width="0.9" opacity="0.18"/>
<path d="M 280.0 386.2 A 34.1 43.4 0 0 1 342.0 386.2 A 34.1 43.4 0 0 1 280.0 386.2 Z" fill="none" stroke="#f4f0e8" stroke-width="0.9" opacity="0.18"/>
<path d="M 342.0 386.2 A 34.1 43.4 0 0 1 404.0 386.2 A 34.1 43.4 0 0 1 342.0 386.2 Z" fill="none" stroke="#f4f0e8" stroke-width="0.9" opacity="0.18"/>
<path d="M 404.0 386.2 A 34.1 43.4 0 0 1 466.0 386.2 A 34.1 43.4 0 0 1 404.0 386.2 Z" fill="none" stroke="#f4f0e8" stroke-width="0.9" opacity="0.18"/>
<path d="M 466.0 386.2 A 34.1 43.4 0 0 1 528.0 386.2 A 34.1 43.4 0 0 1 466.0 386.2 Z" fill="none" stroke="#f4f0e8" stroke-width="0.9" opacity="0.18"/>
<path d="M 528.0 386.2 A 34.1 43.4 0 0 1 590.0 386.2 A 34.1 43.4 0 0 1 528.0 386.2 Z" fill="none" stroke="#f4f0e8" stroke-width="0.9" opacity="0.18"/>
<path d="M 590.0 386.2 A 34.1 43.4 0 0 1 652.0 386.2 A 34.1 43.4 0 0 1 590.0 386.2 Z" fill="none" stroke="#f4f0e8" stroke-width="0.9" opacity="0.18"/>
<path d="M 652.0 386.2 A 34.1 43.4 0 0 1 714.0 386.2 A 34.1 43.4 0 0 1 652.0 386.2 Z" fill="none" stroke="#f4f0e8" stroke-width="0.9" opacity="0.18"/>
<path d="M 714.0 386.2 A 34.1 43.4 0 0 1 776.0 386.2 A 34.1 43.4 0 0 1 714.0 386.2 Z" fill="none" stroke="#f4f0e8" stroke-width="0.9" opacity="0.18"/>
<path d="M 776.0 386.2 A 34.1 43.4 0 0 1 838.0 386.2 A 34.1 43.4 0 0 1 776.0 386.2 Z" fill="none" stroke="#f4f0e8" stroke-width="0.9" opacity="0.18"/>
<path d="M 838.0 386.2 A 34.1 43.4 0 0 1 900.0 386.2 A 34.1 43.4 0 0 1 838.0 386.2 Z" fill="none" stroke="#f4f0e8" stroke-width="0.9" opacity="0.18"/>
<path d="M 900.0 386.2 A 34.1 43.4 0 0 1 962.0 386.2 A 34.1 43.4 0 0 1 900.0 386.2 Z" fill="none" stroke="#f4f0e8" stroke-width="0.9" opacity="0.18"/>
<path d="M 962.0 386.2 A 34.1 43.4 0 0 1 1024.0 386.2 A 34.1 43.4 0 0 1 962.0 386.2 Z" fill="none" stroke="#f4f0e8" stroke-width="0.9" opacity="0.18"/>
<path d="M 1024.0 386.2 A 34.1 43.4 0 0 1 1086.0 386.2 A 34.1 43.4 0 0 1 1024.0 386.2 Z" fill="none" stroke="#f4f0e8" stroke-width="0.9" opacity="0.18"/>
<path d="M 1.0 426.5 A 34.1 43.4 0 0 1 63.0 426.5 A 34.1 43.4 0 0 1 1.0 426.5 Z" fill="none" stroke="#f4f0e8" stroke-width="0.9" opacity="0.18"/>
<path d="M 63.0 426.5 A 34.1 43.4 0 0 1 125.0 426.5 A 34.1 43.4 0 0 1 63.0 426.5 Z" fill="none" stroke="#f4f0e8" stroke-width="0.9" opacity="0.18"/>
<path d="M 125.0 426.5 A 34.1 43.4 0 0 1 187.0 426.5 A 34.1 43.4 0 0 1 125.0 426.5 Z" fill="none" stroke="#f4f0e8" stroke-width="0.9" opacity="0.18"/>
<path d="M 187.0 426.5 A 34.1 43.4 0 0 1 249.0 426.5 A 34.1 43.4 0 0 1 187.0 426.5 Z" fill="none" stroke="#f4f0e8" stroke-width="0.9" opacity="0.18"/>
<path d="M 249.0 426.5 A 34.1 43.4 0 0 1 311.0 426.5 A 34.1 43.4 0 0 1 249.0 426.5 Z" fill="none" stroke="#f4f0e8" stroke-width="0.9" opacity="0.18"/>
<path d="M 311.0 426.5 A 34.1 43.4 0 0 1 373.0 426.5 A 34.1 43.4 0 0 1 311.0 426.5 Z" fill="none" stroke="#f4f0e8" stroke-width="0.9" opacity="0.18"/>
<path d="M 373.0 426.5 A 34.1 43.4 0 0 1 435.0 426.5 A 34.1 43.4 0 0 1 373.0 426.5 Z" fill="none" stroke="#f4f0e8" stroke-width="0.9" opacity="0.18"/>
<path d="M 435.0 426.5 A 34.1 43.4 0 0 1 497.0 426.5 A 34.1 43.4 0 0 1 435.0 426.5 Z" fill="none" stroke="#f4f0e8" stroke-width="0.9" opacity="0.18"/>
<path d="M 497.0 426.5 A 34.1 43.4 0 0 1 559.0 426.5 A 34.1 43.4 0 0 1 497.0 426.5 Z" fill="none" stroke="#f4f0e8" stroke-width="0.9" opacity="0.18"/>
<path d="M 559.0 426.5 A 34.1 43.4 0 0 1 621.0 426.5 A 34.1 43.4 0 0 1 559.0 426.5 Z" fill="none" stroke="#f4f0e8" stroke-width="0.9" opacity="0.18"/>
<path d="M 621.0 426.5 A 34.1 43.4 0 0 1 683.0 426.5 A 34.1 43.4 0 0 1 621.0 426.5 Z" fill="none" stroke="#f4f0e8" stroke-width="0.9" opacity="0.18"/>
<path d="M 683.0 426.5 A 34.1 43.4 0 0 1 745.0 426.5 A 34.1 43.4 0 0 1 683.0 426.5 Z" fill="none" stroke="#f4f0e8" stroke-width="0.9" opacity="0.18"/>
<path d="M 745.0 426.5 A 34.1 43.4 0 0 1 807.0 426.5 A 34.1 43.4 0 0 1 745.0 426.5 Z" fill="none" stroke="#f4f0e8" stroke-width="0.9" opacity="0.18"/>
<path d="M 807.0 426.5 A 34.1 43.4 0 0 1 869.0 426.5 A 34.1 43.4 0 0 1 807.0 426.5 Z" fill="none" stroke="#f4f0e8" stroke-width="0.9" opacity="0.18"/>
<path d="M 869.0 426.5 A 34.1 43.4 0 0 1 931.0 426.5 A 34.1 43.4 0 0 1 869.0 426.5 Z" fill="none" stroke="#f4f0e8" stroke-width="0.9" opacity="0.18"/>
<path d="M 931.0 426.5 A 34.1 43.4 0 0 1 993.0 426.5 A 34.1 43.4 0 0 1 931.0 426.5 Z" fill="none" stroke="#f4f0e8" stroke-width="0.9" opacity="0.18"/>
<path d="M 993.0 426.5 A 34.1 43.4 0 0 1 1055.0 426.5 A 34.1 43.4 0 0 1 993.0 426.5 Z" fill="none" stroke="#f4f0e8" stroke-width="0.9" opacity="0.18"/>
<path d="M 1055.0 426.5 A 34.1 43.4 0 0 1 1117.0 426.5 A 34.1 43.4 0 0 1 1055.0 426.5 Z" fill="none" stroke="#f4f0e8" stroke-width="0.9" opacity="0.18"/>
<path d="M -30.0 466.8 A 34.1 43.4 0 0 1 32.0 466.8 A 34.1 43.4 0 0 1 -30.0 466.8 Z" fill="none" stroke="#f4f0e8" stroke-width="0.9" opacity="0.18"/>
<path d="M 32.0 466.8 A 34.1 43.4 0 0 1 94.0 466.8 A 34.1 43.4 0 0 1 32.0 466.8 Z" fill="none" stroke="#f4f0e8" stroke-width="0.9" opacity="0.18"/>
<path d="M 94.0 466.8 A 34.1 43.4 0 0 1 156.0 466.8 A 34.1 43.4 0 0 1 94.0 466.8 Z" fill="none" stroke="#f4f0e8" stroke-width="0.9" opacity="0.18"/>
<path d="M 156.0 466.8 A 34.1 43.4 0 0 1 218.0 466.8 A 34.1 43.4 0 0 1 156.0 466.8 Z" fill="none" stroke="#f4f0e8" stroke-width="0.9" opacity="0.18"/>
<path d="M 218.0 466.8 A 34.1 43.4 0 0 1 280.0 466.8 A 34.1 43.4 0 0 1 218.0 466.8 Z" fill="none" stroke="#f4f0e8" stroke-width="0.9" opacity="0.18"/>
<path d="M 280.0 466.8 A 34.1 43.4 0 0 1 342.0 466.8 A 34.1 43.4 0 0 1 280.0 466.8 Z" fill="none" stroke="#f4f0e8" stroke-width="0.9" opacity="0.18"/>
<path d="M 342.0 466.8 A 34.1 43.4 0 0 1 404.0 466.8 A 34.1 43.4 0 0 1 342.0 466.8 Z" fill="none" stroke="#f4f0e8" stroke-width="0.9" opacity="0.18"/>
<path d="M 404.0 466.8 A 34.1 43.4 0 0 1 466.0 466.8 A 34.1 43.4 0 0 1 404.0 466.8 Z" fill="none" stroke="#f4f0e8" stroke-width="0.9" opacity="0.18"/>
<path d="M 466.0 466.8 A 34.1 43.4 0 0 1 528.0 466.8 A 34.1 43.4 0 0 1 466.0 466.8 Z" fill="none" stroke="#f4f0e8" stroke-width="0.9" opacity="0.18"/>
<path d="M 528.0 466.8 A 34.1 43.4 0 0 1 590.0 466.8 A 34.1 43.4 0 0 1 528.0 466.8 Z" fill="none" stroke="#f4f0e8" stroke-width="0.9" opacity="0.18"/>
<path d="M 590.0 466.8 A 34.1 43.4 0 0 1 652.0 466.8 A 34.1 43.4 0 0 1 590.0 466.8 Z" fill="none" stroke="#f4f0e8" stroke-width="0.9" opacity="0.18"/>
<path d="M 652.0 466.8 A 34.1 43.4 0 0 1 714.0 466.8 A 34.1 43.4 0 0 1 652.0 466.8 Z" fill="none" stroke="#f4f0e8" stroke-width="0.9" opacity="0.18"/>
<path d="M 714.0 466.8 A 34.1 43.4 0 0 1 776.0 466.8 A 34.1 43.4 0 0 1 714.0 466.8 Z" fill="none" stroke="#f4f0e8" stroke-width="0.9" opacity="0.18"/>
<path d="M 776.0 466.8 A 34.1 43.4 0 0 1 838.0 466.8 A 34.1 43.4 0 0 1 776.0 466.8 Z" fill="none" stroke="#f4f0e8" stroke-width="0.9" opacity="0.18"/>
<path d="M 838.0 466.8 A 34.1 43.4 0 0 1 900.0 466.8 A 34.1 43.4 0 0 1 838.0 466.8 Z" fill="none" stroke="#f4f0e8" stroke-width="0.9" opacity="0.18"/>
<path d="M 900.0 466.8 A 34.1 43.4 0 0 1 962.0 466.8 A 34.1 43.4 0 0 1 900.0 466.8 Z" fill="none" stroke="#f4f0e8" stroke-width="0.9" opacity="0.18"/>
<path d="M 962.0 466.8 A 34.1 43.4 0 0 1 1024.0 466.8 A 34.1 43.4 0 0 1 962.0 466.8 Z" fill="none" stroke="#f4f0e8" stroke-width="0.9" opacity="0.18"/>
<path d="M 1024.0 466.8 A 34.1 43.4 0 0 1 1086.0 466.8 A 34.1 43.4 0 0 1 1024.0 466.8 Z" fill="none" stroke="#f4f0e8" stroke-width="0.9" opacity="0.18"/>
<path d="M 1.0 507.1 A 34.1 43.4 0 0 1 63.0 507.1 A 34.1 43.4 0 0 1 1.0 507.1 Z" fill="none" stroke="#f4f0e8" stroke-width="0.9" opacity="0.18"/>
<path d="M 63.0 507.1 A 34.1 43.4 0 0 1 125.0 507.1 A 34.1 43.4 0 0 1 63.0 507.1 Z" fill="none" stroke="#f4f0e8" stroke-width="0.9" opacity="0.18"/>
<path d="M 125.0 507.1 A 34.1 43.4 0 0 1 187.0 507.1 A 34.1 43.4 0 0 1 125.0 507.1 Z" fill="none" stroke="#f4f0e8" stroke-width="0.9" opacity="0.18"/>
<path d="M 187.0 507.1 A 34.1 43.4 0 0 1 249.0 507.1 A 34.1 43.4 0 0 1 187.0 507.1 Z" fill="none" stroke="#f4f0e8" stroke-width="0.9" opacity="0.18"/>
<path d="M 249.0 507.1 A 34.1 43.4 0 0 1 311.0 507.1 A 34.1 43.4 0 0 1 249.0 507.1 Z" fill="none" stroke="#f4f0e8" stroke-width="0.9" opacity="0.18"/>
<path d="M 311.0 507.1 A 34.1 43.4 0 0 1 373.0 507.1 A 34.1 43.4 0 0 1 311.0 507.1 Z" fill="none" stroke="#f4f0e8" stroke-width="0.9" opacity="0.18"/>
<path d="M 373.0 507.1 A 34.1 43.4 0 0 1 435.0 507.1 A 34.1 43.4 0 0 1 373.0 507.1 Z" fill="none" stroke="#f4f0e8" stroke-width="0.9" opacity="0.18"/>
<path d="M 435.0 507.1 A 34.1 43.4 0 0 1 497.0 507.1 A 34.1 43.4 0 0 1 435.0 507.1 Z" fill="none" stroke="#f4f0e8" stroke-width="0.9" opacity="0.18"/>
<path d="M 497.0 507.1 A 34.1 43.4 0 0 1 559.0 507.1 A 34.1 43.4 0 0 1 497.0 507.1 Z" fill="none" stroke="#f4f0e8" stroke-width="0.9" opacity="0.18"/>
<path d="M 559.0 507.1 A 34.1 43.4 0 0 1 621.0 507.1 A 34.1 43.4 0 0 1 559.0 507.1 Z" fill="none" stroke="#f4f0e8" stroke-width="0.9" opacity="0.18"/>
<path d="M 621.0 507.1 A 34.1 43.4 0 0 1 683.0 507.1 A 34.1 43.4 0 0 1 621.0 507.1 Z" fill="none" stroke="#f4f0e8" stroke-width="0.9" opacity="0.18"/>
<path d="M 683.0 507.1 A 34.1 43.4 0 0 1 745.0 507.1 A 34.1 43.4 0 0 1 683.0 507.1 Z" fill="none" stroke="#f4f0e8" stroke-width="0.9" opacity="0.18"/>
<path d="M 745.0 507.1 A 34.1 43.4 0 0 1 807.0 507.1 A 34.1 43.4 0 0 1 745.0 507.1 Z" fill="none" stroke="#f4f0e8" stroke-width="0.9" opacity="0.18"/>
<path d="M 807.0 507.1 A 34.1 43.4 0 0 1 869.0 507.1 A 34.1 43.4 0 0 1 807.0 507.1 Z" fill="none" stroke="#f4f0e8" stroke-width="0.9" opacity="0.18"/>
<path d="M 869.0 507.1 A 34.1 43.4 0 0 1 931.0 507.1 A 34.1 43.4 0 0 1 869.0 507.1 Z" fill="none" stroke="#f4f0e8" stroke-width="0.9" opacity="0.18"/>
<path d="M 931.0 507.1 A 34.1 43.4 0 0 1 993.0 507.1 A 34.1 43.4 0 0 1 931.0 507.1 Z" fill="none" stroke="#f4f0e8" stroke-width="0.9" opacity="0.18"/>
<path d="M 993.0 507.1 A 34.1 43.4 0 0 1 1055.0 507.1 A 34.1 43.4 0 0 1 993.0 507.1 Z" fill="none" stroke="#f4f0e8" stroke-width="0.9" opacity="0.18"/>
<path d="M 1055.0 507.1 A 34.1 43.4 0 0 1 1117.0 507.1 A 34.1 43.4 0 0 1 1055.0 507.1 Z" fill="none" stroke="#f4f0e8" stroke-width="0.9" opacity="0.18"/>
<path d="M -30.0 547.4 A 34.1 43.4 0 0 1 32.0 547.4 A 34.1 43.4 0 0 1 -30.0 547.4 Z" fill="none" stroke="#f4f0e8" stroke-width="0.9" opacity="0.18"/>
<path d="M 32.0 547.4 A 34.1 43.4 0 0 1 94.0 547.4 A 34.1 43.4 0 0 1 32.0 547.4 Z" fill="none" stroke="#f4f0e8" stroke-width="0.9" opacity="0.18"/>
<path d="M 94.0 547.4 A 34.1 43.4 0 0 1 156.0 547.4 A 34.1 43.4 0 0 1 94.0 547.4 Z" fill="none" stroke="#f4f0e8" stroke-width="0.9" opacity="0.18"/>
<path d="M 156.0 547.4 A 34.1 43.4 0 0 1 218.0 547.4 A 34.1 43.4 0 0 1 156.0 547.4 Z" fill="none" stroke="#f4f0e8" stroke-width="0.9" opacity="0.18"/>
<path d="M 218.0 547.4 A 34.1 43.4 0 0 1 280.0 547.4 A 34.1 43.4 0 0 1 218.0 547.4 Z" fill="none" stroke="#f4f0e8" stroke-width="0.9" opacity="0.18"/>
<path d="M 280.0 547.4 A 34.1 43.4 0 0 1 342.0 547.4 A 34.1 43.4 0 0 1 280.0 547.4 Z" fill="none" stroke="#f4f0e8" stroke-width="0.9" opacity="0.18"/>
<path d="M 342.0 547.4 A 34.1 43.4 0 0 1 404.0 547.4 A 34.1 43.4 0 0 1 342.0 547.4 Z" fill="none" stroke="#f4f0e8" stroke-width="0.9" opacity="0.18"/>
<path d="M 404.0 547.4 A 34.1 43.4 0 0 1 466.0 547.4 A 34.1 43.4 0 0 1 404.0 547.4 Z" fill="none" stroke="#f4f0e8" stroke-width="0.9" opacity="0.18"/>
<path d="M 466.0 547.4 A 34.1 43.4 0 0 1 528.0 547.4 A 34.1 43.4 0 0 1 466.0 547.4 Z" fill="none" stroke="#f4f0e8" stroke-width="0.9" opacity="0.18"/>
<path d="M 528.0 547.4 A 34.1 43.4 0 0 1 590.0 547.4 A 34.1 43.4 0 0 1 528.0 547.4 Z" fill="none" stroke="#f4f0e8" stroke-width="0.9" opacity="0.18"/>
<path d="M 590.0 547.4 A 34.1 43.4 0 0 1 652.0 547.4 A 34.1 43.4 0 0 1 590.0 547.4 Z" fill="none" stroke="#f4f0e8" stroke-width="0.9" opacity="0.18"/>
<path d="M 652.0 547.4 A 34.1 43.4 0 0 1 714.0 547.4 A 34.1 43.4 0 0 1 652.0 547.4 Z" fill="none" stroke="#f4f0e8" stroke-width="0.9" opacity="0.18"/>
<path d="M 714.0 547.4 A 34.1 43.4 0 0 1 776.0 547.4 A 34.1 43.4 0 0 1 714.0 547.4 Z" fill="none" stroke="#f4f0e8" stroke-width="0.9" opacity="0.18"/>
<path d="M 776.0 547.4 A 34.1 43.4 0 0 1 838.0 547.4 A 34.1 43.4 0 0 1 776.0 547.4 Z" fill="none" stroke="#f4f0e8" stroke-width="0.9" opacity="0.18"/>
<path d="M 838.0 547.4 A 34.1 43.4 0 0 1 900.0 547.4 A 34.1 43.4 0 0 1 838.0 547.4 Z" fill="none" stroke="#f4f0e8" stroke-width="0.9" opacity="0.18"/>
<path d="M 900.0 547.4 A 34.1 43.4 0 0 1 962.0 547.4 A 34.1 43.4 0 0 1 900.0 547.4 Z" fill="none" stroke="#f4f0e8" stroke-width="0.9" opacity="0.18"/>
<path d="M 962.0 547.4 A 34.1 43.4 0 0 1 1024.0 547.4 A 34.1 43.4 0 0 1 962.0 547.4 Z" fill="none" stroke="#f4f0e8" stroke-width="0.9" opacity="0.18"/>
<path d="M 1024.0 547.4 A 34.1 43.4 0 0 1 1086.0 547.4 A 34.1 43.4 0 0 1 1024.0 547.4 Z" fill="none" stroke="#f4f0e8" stroke-width="0.9" opacity="0.18"/>
<path d="M 1.0 587.7 A 34.1 43.4 0 0 1 63.0 587.7 A 34.1 43.4 0 0 1 1.0 587.7 Z" fill="none" stroke="#f4f0e8" stroke-width="0.9" opacity="0.18"/>
<path d="M 63.0 587.7 A 34.1 43.4 0 0 1 125.0 587.7 A 34.1 43.4 0 0 1 63.0 587.7 Z" fill="none" stroke="#f4f0e8" stroke-width="0.9" opacity="0.18"/>
<path d="M 125.0 587.7 A 34.1 43.4 0 0 1 187.0 587.7 A 34.1 43.4 0 0 1 125.0 587.7 Z" fill="none" stroke="#f4f0e8" stroke-width="0.9" opacity="0.18"/>
<path d="M 187.0 587.7 A 34.1 43.4 0 0 1 249.0 587.7 A 34.1 43.4 0 0 1 187.0 587.7 Z" fill="none" stroke="#f4f0e8" stroke-width="0.9" opacity="0.18"/>
<path d="M 249.0 587.7 A 34.1 43.4 0 0 1 311.0 587.7 A 34.1 43.4 0 0 1 249.0 587.7 Z" fill="none" stroke="#f4f0e8" stroke-width="0.9" opacity="0.18"/>
<path d="M 311.0 587.7 A 34.1 43.4 0 0 1 373.0 587.7 A 34.1 43.4 0 0 1 311.0 587.7 Z" fill="none" stroke="#f4f0e8" stroke-width="0.9" opacity="0.18"/>
<path d="M 373.0 587.7 A 34.1 43.4 0 0 1 435.0 587.7 A 34.1 43.4 0 0 1 373.0 587.7 Z" fill="none" stroke="#f4f0e8" stroke-width="0.9" opacity="0.18"/>
<path d="M 435.0 587.7 A 34.1 43.4 0 0 1 497.0 587.7 A 34.1 43.4 0 0 1 435.0 587.7 Z" fill="none" stroke="#f4f0e8" stroke-width="0.9" opacity="0.18"/>
<path d="M 497.0 587.7 A 34.1 43.4 0 0 1 559.0 587.7 A 34.1 43.4 0 0 1 497.0 587.7 Z" fill="none" stroke="#f4f0e8" stroke-width="0.9" opacity="0.18"/>
<path d="M 559.0 587.7 A 34.1 43.4 0 0 1 621.0 587.7 A 34.1 43.4 0 0 1 559.0 587.7 Z" fill="none" stroke="#f4f0e8" stroke-width="0.9" opacity="0.18"/>
<path d="M 621.0 587.7 A 34.1 43.4 0 0 1 683.0 587.7 A 34.1 43.4 0 0 1 621.0 587.7 Z" fill="none" stroke="#f4f0e8" stroke-width="0.9" opacity="0.18"/>
<path d="M 683.0 587.7 A 34.1 43.4 0 0 1 745.0 587.7 A 34.1 43.4 0 0 1 683.0 587.7 Z" fill="none" stroke="#f4f0e8" stroke-width="0.9" opacity="0.18"/>
<path d="M 745.0 587.7 A 34.1 43.4 0 0 1 807.0 587.7 A 34.1 43.4 0 0 1 745.0 587.7 Z" fill="none" stroke="#f4f0e8" stroke-width="0.9" opacity="0.18"/>
<path d="M 807.0 587.7 A 34.1 43.4 0 0 1 869.0 587.7 A 34.1 43.4 0 0 1 807.0 587.7 Z" fill="none" stroke="#f4f0e8" stroke-width="0.9" opacity="0.18"/>
<path d="M 869.0 587.7 A 34.1 43.4 0 0 1 931.0 587.7 A 34.1 43.4 0 0 1 869.0 587.7 Z" fill="none" stroke="#f4f0e8" stroke-width="0.9" opacity="0.18"/>
<path d="M 931.0 587.7 A 34.1 43.4 0 0 1 993.0 587.7 A 34.1 43.4 0 0 1 931.0 587.7 Z" fill="none" stroke="#f4f0e8" stroke-width="0.9" opacity="0.18"/>
<path d="M 993.0 587.7 A 34.1 43.4 0 0 1 1055.0 587.7 A 34.1 43.4 0 0 1 993.0 587.7 Z" fill="none" stroke="#f4f0e8" stroke-width="0.9" opacity="0.18"/>
<path d="M 1055.0 587.7 A 34.1 43.4 0 0 1 1117.0 587.7 A 34.1 43.4 0 0 1 1055.0 587.7 Z" fill="none" stroke="#f4f0e8" stroke-width="0.9" opacity="0.18"/>
<path d="M 600.0 -20.0 A 44.0 56.0 0 0 1 680.0 -20.0 A 44.0 56.0 0 0 1 600.0 -20.0 Z" fill="none" stroke="#c0392b" stroke-width="1.5" opacity="0.12"/>
<path d="M 680.0 -20.0 A 44.0 56.0 0 0 1 760.0 -20.0 A 44.0 56.0 0 0 1 680.0 -20.0 Z" fill="none" stroke="#c0392b" stroke-width="1.5" opacity="0.12"/>
<path d="M 760.0 -20.0 A 44.0 56.0 0 0 1 840.0 -20.0 A 44.0 56.0 0 0 1 760.0 -20.0 Z" fill="none" stroke="#c0392b" stroke-width="1.5" opacity="0.12"/>
<path d="M 840.0 -20.0 A 44.0 56.0 0 0 1 920.0 -20.0 A 44.0 56.0 0 0 1 840.0 -20.0 Z" fill="none" stroke="#c0392b" stroke-width="1.5" opacity="0.12"/>
<path d="M 920.0 -20.0 A 44.0 56.0 0 0 1 1000.0 -20.0 A 44.0 56.0 0 0 1 920.0 -20.0 Z" fill="none" stroke="#c0392b" stroke-width="1.5" opacity="0.12"/>
<path d="M 1000.0 -20.0 A 44.0 56.0 0 0 1 1080.0 -20.0 A 44.0 56.0 0 0 1 1000.0 -20.0 Z" fill="none" stroke="#c0392b" stroke-width="1.5" opacity="0.12"/>
<path d="M 1080.0 -20.0 A 44.0 56.0 0 0 1 1160.0 -20.0 A 44.0 56.0 0 0 1 1080.0 -20.0 Z" fill="none" stroke="#c0392b" stroke-width="1.5" opacity="0.12"/>
<path d="M 1160.0 -20.0 A 44.0 56.0 0 0 1 1240.0 -20.0 A 44.0 56.0 0 0 1 1160.0 -20.0 Z" fill="none" stroke="#c0392b" stroke-width="1.5" opacity="0.12"/>
<path d="M 1240.0 -20.0 A 44.0 56.0 0 0 1 1320.0 -20.0 A 44.0 56.0 0 0 1 1240.0 -20.0 Z" fill="none" stroke="#c0392b" stroke-width="1.5" opacity="0.12"/>
<path d="M 640.0 32.0 A 44.0 56.0 0 0 1 720.0 32.0 A 44.0 56.0 0 0 1 640.0 32.0 Z" fill="none" stroke="#c0392b" stroke-width="1.5" opacity="0.12"/>
<path d="M 720.0 32.0 A 44.0 56.0 0 0 1 800.0 32.0 A 44.0 56.0 0 0 1 720.0 32.0 Z" fill="none" stroke="#c0392b" stroke-width="1.5" opacity="0.12"/>
<path d="M 800.0 32.0 A 44.0 56.0 0 0 1 880.0 32.0 A 44.0 56.0 0 0 1 800.0 32.0 Z" fill="none" stroke="#c0392b" stroke-width="1.5" opacity="0.12"/>
<path d="M 880.0 32.0 A 44.0 56.0 0 0 1 960.0 32.0 A 44.0 56.0 0 0 1 880.0 32.0 Z" fill="none" stroke="#c0392b" stroke-width="1.5" opacity="0.12"/>
<path d="M 960.0 32.0 A 44.0 56.0 0 0 1 1040.0 32.0 A 44.0 56.0 0 0 1 960.0 32.0 Z" fill="none" stroke="#c0392b" stroke-width="1.5" opacity="0.12"/>
<path d="M 1040.0 32.0 A 44.0 56.0 0 0 1 1120.0 32.0 A 44.0 56.0 0 0 1 1040.0 32.0 Z" fill="none" stroke="#c0392b" stroke-width="1.5" opacity="0.12"/>
<path d="M 1120.0 32.0 A 44.0 56.0 0 0 1 1200.0 32.0 A 44.0 56.0 0 0 1 1120.0 32.0 Z" fill="none" stroke="#c0392b" stroke-width="1.5" opacity="0.12"/>
<path d="M 1200.0 32.0 A 44.0 56.0 0 0 1 1280.0 32.0 A 44.0 56.0 0 0 1 1200.0 32.0 Z" fill="none" stroke="#c0392b" stroke-width="1.5" opacity="0.12"/>
<path d="M 1280.0 32.0 A 44.0 56.0 0 0 1 1360.0 32.0 A 44.0 56.0 0 0 1 1280.0 32.0 Z" fill="none" stroke="#c0392b" stroke-width="1.5" opacity="0.12"/>
<path d="M 600.0 84.0 A 44.0 56.0 0 0 1 680.0 84.0 A 44.0 56.0 0 0 1 600.0 84.0 Z" fill="none" stroke="#c0392b" stroke-width="1.5" opacity="0.12"/>
<path d="M 680.0 84.0 A 44.0 56.0 0 0 1 760.0 84.0 A 44.0 56.0 0 0 1 680.0 84.0 Z" fill="none" stroke="#c0392b" stroke-width="1.5" opacity="0.12"/>
<path d="M 760.0 84.0 A 44.0 56.0 0 0 1 840.0 84.0 A 44.0 56.0 0 0 1 760.0 84.0 Z" fill="none" stroke="#c0392b" stroke-width="1.5" opacity="0.12"/>
<path d="M 840.0 84.0 A 44.0 56.0 0 0 1 920.0 84.0 A 44.0 56.0 0 0 1 840.0 84.0 Z" fill="none" stroke="#c0392b" stroke-width="1.5" opacity="0.12"/>
<path d="M 920.0 84.0 A 44.0 56.0 0 0 1 1000.0 84.0 A 44.0 56.0 0 0 1 920.0 84.0 Z" fill="none" stroke="#c0392b" stroke-width="1.5" opacity="0.12"/>
<path d="M 1000.0 84.0 A 44.0 56.0 0 0 1 1080.0 84.0 A 44.0 56.0 0 0 1 1000.0 84.0 Z" fill="none" stroke="#c0392b" stroke-width="1.5" opacity="0.12"/>
<path d="M 1080.0 84.0 A 44.0 56.0 0 0 1 1160.0 84.0 A 44.0 56.0 0 0 1 1080.0 84.0 Z" fill="none" stroke="#c0392b" stroke-width="1.5" opacity="0.12"/>
<path d="M 1160.0 84.0 A 44.0 56.0 0 0 1 1240.0 84.0 A 44.0 56.0 0 0 1 1160.0 84.0 Z" fill="none" stroke="#c0392b" stroke-width="1.5" opacity="0.12"/>
<path d="M 1240.0 84.0 A 44.0 56.0 0 0 1 1320.0 84.0 A 44.0 56.0 0 0 1 1240.0 84.0 Z" fill="none" stroke="#c0392b" stroke-width="1.5" opacity="0.12"/>
<path d="M 640.0 136.0 A 44.0 56.0 0 0 1 720.0 136.0 A 44.0 56.0 0 0 1 640.0 136.0 Z" fill="none" stroke="#c0392b" stroke-width="1.5" opacity="0.12"/>
<path d="M 720.0 136.0 A 44.0 56.0 0 0 1 800.0 136.0 A 44.0 56.0 0 0 1 720.0 136.0 Z" fill="none" stroke="#c0392b" stroke-width="1.5" opacity="0.12"/>
<path d="M 800.0 136.0 A 44.0 56.0 0 0 1 880.0 136.0 A 44.0 56.0 0 0 1 800.0 136.0 Z" fill="none" stroke="#c0392b" stroke-width="1.5" opacity="0.12"/>
<path d="M 880.0 136.0 A 44.0 56.0 0 0 1 960.0 136.0 A 44.0 56.0 0 0 1 880.0 136.0 Z" fill="none" stroke="#c0392b" stroke-width="1.5" opacity="0.12"/>
<path d="M 960.0 136.0 A 44.0 56.0 0 0 1 1040.0 136.0 A 44.0 56.0 0 0 1 960.0 136.0 Z" fill="none" stroke="#c0392b" stroke-width="1.5" opacity="0.12"/>
<path d="M 1040.0 136.0 A 44.0 56.0 0 0 1 1120.0 136.0 A 44.0 56.0 0 0 1 1040.0 136.0 Z" fill="none" stroke="#c0392b" stroke-width="1.5" opacity="0.12"/>
<path d="M 1120.0 136.0 A 44.0 56.0 0 0 1 1200.0 136.0 A 44.0 56.0 0 0 1 1120.0 136.0 Z" fill="none" stroke="#c0392b" stroke-width="1.5" opacity="0.12"/>
<path d="M 1200.0 136.0 A 44.0 56.0 0 0 1 1280.0 136.0 A 44.0 56.0 0 0 1 1200.0 136.0 Z" fill="none" stroke="#c0392b" stroke-width="1.5" opacity="0.12"/>
<path d="M 1280.0 136.0 A 44.0 56.0 0 0 1 1360.0 136.0 A 44.0 56.0 0 0 1 1280.0 136.0 Z" fill="none" stroke="#c0392b" stroke-width="1.5" opacity="0.12"/>
<path d="M 600.0 188.0 A 44.0 56.0 0 0 1 680.0 188.0 A 44.0 56.0 0 0 1 600.0 188.0 Z" fill="none" stroke="#c0392b" stroke-width="1.5" opacity="0.12"/>
<path d="M 680.0 188.0 A 44.0 56.0 0 0 1 760.0 188.0 A 44.0 56.0 0 0 1 680.0 188.0 Z" fill="none" stroke="#c0392b" stroke-width="1.5" opacity="0.12"/>
<path d="M 760.0 188.0 A 44.0 56.0 0 0 1 840.0 188.0 A 44.0 56.0 0 0 1 760.0 188.0 Z" fill="none" stroke="#c0392b" stroke-width="1.5" opacity="0.12"/>
<path d="M 840.0 188.0 A 44.0 56.0 0 0 1 920.0 188.0 A 44.0 56.0 0 0 1 840.0 188.0 Z" fill="none" stroke="#c0392b" stroke-width="1.5" opacity="0.12"/>
<path d="M 920.0 188.0 A 44.0 56.0 0 0 1 1000.0 188.0 A 44.0 56.0 0 0 1 920.0 188.0 Z" fill="none" stroke="#c0392b" stroke-width="1.5" opacity="0.12"/>
<path d="M 1000.0 188.0 A 44.0 56.0 0 0 1 1080.0 188.0 A 44.0 56.0 0 0 1 1000.0 188.0 Z" fill="none" stroke="#c0392b" stroke-width="1.5" opacity="0.12"/>
<path d="M 1080.0 188.0 A 44.0 56.0 0 0 1 1160.0 188.0 A 44.0 56.0 0 0 1 1080.0 188.0 Z" fill="none" stroke="#c0392b" stroke-width="1.5" opacity="0.12"/>
<path d="M 1160.0 188.0 A 44.0 56.0 0 0 1 1240.0 188.0 A 44.0 56.0 0 0 1 1160.0 188.0 Z" fill="none" stroke="#c0392b" stroke-width="1.5" opacity="0.12"/>
<path d="M 1240.0 188.0 A 44.0 56.0 0 0 1 1320.0 188.0 A 44.0 56.0 0 0 1 1240.0 188.0 Z" fill="none" stroke="#c0392b" stroke-width="1.5" opacity="0.12"/>
<!-- top bar -->
<rect x="0" y="0" width="1200" height="10" fill="#c0392b"/>
<!-- bottom bar -->
<rect x="0" y="595" width="1200" height="80" fill="#c0392b"/>
<!-- te reo headline -->
<text x="600" y="277" font-family="Georgia, serif" font-size="92"
      font-weight="bold" fill="#f4f0e8" text-anchor="middle">HOAHOA TIKA</text>
<!-- english line -->
<text x="600" y="357" font-family="Arial, sans-serif" font-size="46"
      font-weight="bold" fill="#c0392b" text-anchor="middle">DESIGN WITH CARE</text>
<!-- tag line -->
<text x="600" y="407" font-family="Arial, sans-serif" font-size="23"
      fill="#f4f0e8" text-anchor="middle" opacity="0.7">Ethical design works in interlocking layers.</text>
<!-- motif watermark -->
<text x="600" y="647" font-family="Arial, sans-serif" font-size="22" font-weight="bold"
      fill="#f4f0e8" text-anchor="middle">UNAUNAHI · KOTAHITANGA · kiwidialectic.com</text>

</svg>